<svg width="577" height="204" viewBox="0 0 577 204" fill="none" xmlns="http://www.w3.org/2000/svg">
<rect width="577" height="204" fill="white"/>
<line x1="104.719" y1="102.688" x2="455.29" y2="102.688" stroke="black" stroke-width="1.56296"/>
<path d="M106.042 117.917H103.151L102.602 119.565H100.849L103.827 111.565H105.355L108.349 119.565H106.597L106.042 117.917ZM103.596 116.582H105.596L104.591 113.587L103.596 116.582Z" fill="black"/>
<path d="M452.095 119.565V111.565H454.898C455.868 111.565 456.605 111.752 457.106 112.126C457.608 112.495 457.859 113.039 457.859 113.757C457.859 114.149 457.758 114.496 457.557 114.796C457.356 115.093 457.075 115.311 456.716 115.45C457.127 115.552 457.449 115.759 457.683 116.071C457.921 116.382 458.041 116.763 458.041 117.214C458.041 117.983 457.795 118.565 457.304 118.961C456.813 119.357 456.114 119.558 455.205 119.565H452.095ZM453.744 116.082V118.241H455.156C455.544 118.241 455.846 118.15 456.062 117.966C456.282 117.78 456.392 117.523 456.392 117.197C456.392 116.465 456.013 116.093 455.255 116.082H453.744ZM453.744 114.917H454.963C455.795 114.902 456.211 114.571 456.211 113.922C456.211 113.56 456.105 113.3 455.892 113.142C455.683 112.981 455.352 112.9 454.898 112.9H453.744V114.917Z" fill="black"/>
</svg>
