<svg width="577" height="206" viewBox="0 0 577 206" fill="none" xmlns="http://www.w3.org/2000/svg">
<rect width="577" height="205" transform="translate(0 0.0546875)" fill="white"/>
<line x1="199.277" y1="107.742" x2="481.86" y2="107.742" stroke="black" stroke-width="1.56296"/>
<line x1="199.277" y1="107.742" x2="481.86" y2="107.742" stroke="black" stroke-width="1.56296"/>
<path d="M482.1 108.295C482.405 107.99 482.405 107.495 482.1 107.19L477.127 102.216C476.822 101.911 476.327 101.911 476.022 102.216C475.716 102.521 475.716 103.016 476.022 103.321L480.442 107.742L476.022 112.163C475.716 112.468 475.716 112.963 476.022 113.268C476.327 113.573 476.822 113.573 477.127 113.268L482.1 108.295ZM199.277 108.524H481.547V106.961H199.277V108.524Z" fill="#008000"/>
<path d="M344.58 122.975L341.689 122.959L341.131 124.605L339.378 124.596L342.399 116.611L343.926 116.619L346.879 124.635L345.126 124.626L344.58 122.975ZM342.141 121.627L344.142 121.637L343.152 118.637L342.141 121.627ZM347.626 124.639L347.668 116.639L350.47 116.654C351.441 116.659 352.176 116.849 352.676 117.226C353.176 117.598 353.424 118.144 353.42 118.862C353.418 119.254 353.316 119.599 353.113 119.899C352.91 120.194 352.628 120.411 352.269 120.548C352.678 120.653 353 120.861 353.232 121.174C353.469 121.487 353.586 121.868 353.584 122.319C353.58 123.088 353.331 123.669 352.838 124.062C352.345 124.455 351.644 124.653 350.736 124.656L347.626 124.639ZM349.293 121.164L349.281 123.324L350.693 123.331C351.082 123.333 351.384 123.243 351.602 123.061C351.822 122.875 351.934 122.62 351.935 122.294C351.939 121.561 351.562 121.187 350.804 121.172L349.293 121.164ZM349.299 119.999L350.519 120.006C351.35 119.995 351.768 119.666 351.771 119.018C351.773 118.655 351.668 118.395 351.457 118.236C351.249 118.074 350.918 117.991 350.463 117.989L349.309 117.983L349.299 119.999Z" fill="#008000"/>
<path d="M200.6 122.971H197.71L197.16 124.619H195.408L198.386 116.619H199.913L202.908 124.619H201.155L200.6 122.971ZM198.155 121.635H200.155L199.15 118.641L198.155 121.635Z" fill="black"/>
<path d="M480.699 93.3594V85.359H483.501C484.472 85.359 485.208 85.5458 485.71 85.9195C486.212 86.2894 486.463 86.8334 486.463 87.5514C486.463 87.9434 486.362 88.2895 486.16 88.5899C485.959 88.8866 485.679 89.1046 485.32 89.2438C485.73 89.3464 486.052 89.5533 486.287 89.8647C486.525 90.1761 486.644 90.557 486.644 91.0076C486.644 91.7769 486.399 92.3593 485.908 92.755C485.417 93.1506 484.717 93.352 483.809 93.3594H480.699ZM482.347 89.8757V92.0351H483.759C484.148 92.0351 484.45 91.9436 484.666 91.7604C484.886 91.5736 484.996 91.3172 484.996 90.9911C484.996 90.2585 484.616 89.8867 483.858 89.8757H482.347ZM482.347 88.7108H483.567C484.399 88.6961 484.814 88.3646 484.814 87.7162C484.814 87.3536 484.708 87.0935 484.496 86.936C484.287 86.7748 483.955 86.6942 483.501 86.6942H482.347V88.7108Z" fill="black"/>
<circle cx="144.105" cy="71.4824" r="6.87701" transform="rotate(180 144.105 71.4824)" fill="#FF0000"/>
<circle cx="144.105" cy="71.4824" r="6.87701" transform="rotate(180 144.105 71.4824)" fill="#FF0000"/>
<path d="M150.785 77.6024C150.367 77.711 150.117 78.1377 150.225 78.5554L151.995 85.3624C152.104 85.7801 152.53 86.0307 152.948 85.9221C153.366 85.8135 153.616 85.3868 153.508 84.9691L151.935 78.9184L157.985 77.3452C158.403 77.2366 158.654 76.81 158.545 76.3923C158.436 75.9746 158.01 75.724 157.592 75.8326L150.785 77.6024ZM200.611 106.6L198.559 105.395L197.768 106.743L199.819 107.947L200.611 106.6ZM194.456 102.985L190.354 100.576L189.562 101.923L193.665 104.333L194.456 102.985ZM186.251 98.1661L182.148 95.7566L181.357 97.1043L185.459 99.5138L186.251 98.1661ZM178.045 93.347L173.943 90.9374L173.151 92.2852L177.254 94.6947L178.045 93.347ZM169.84 88.5279L165.737 86.1183L164.946 87.466L169.048 89.8756L169.84 88.5279ZM161.634 83.7088L157.532 81.2992L156.74 82.6469L160.843 85.0565L161.634 83.7088ZM153.429 78.8897L151.377 77.6849L150.586 79.0326L152.637 80.2374L153.429 78.8897ZM150.588 76.8461C149.753 77.0633 149.252 77.9166 149.469 78.752L153.009 92.366C153.226 93.2014 154.079 93.7026 154.915 93.4854C155.75 93.2682 156.251 92.4148 156.034 91.5794L152.888 79.4781L164.989 76.3318C165.824 76.1146 166.326 75.2612 166.108 74.4258C165.891 73.5904 165.038 73.0892 164.202 73.3064L150.588 76.8461ZM201.006 105.926L198.955 104.721L197.372 107.416L199.423 108.621L201.006 105.926ZM194.852 102.311L190.749 99.9018L189.166 102.597L193.269 105.007L194.852 102.311ZM186.647 97.4923L182.544 95.0827L180.961 97.7781L185.064 100.188L186.647 97.4923ZM178.441 92.6731L174.338 90.2636L172.755 92.959L176.858 95.3686L178.441 92.6731ZM170.236 87.854L166.133 85.4445L164.55 88.1399L168.653 90.5495L170.236 87.854ZM162.03 83.0349L157.927 80.6254L156.344 83.3208L160.447 85.7303L162.03 83.0349ZM153.825 78.2158L151.773 77.011L150.19 79.7064L152.242 80.9112L153.825 78.2158Z" fill="#FFA500"/>
<path d="M128.846 71.1383H125.681V73.2812H129.396V74.6055H124.033V66.6051H129.385V67.9403H125.681V69.847H128.846V71.1383Z" fill="black"/>
<path d="M180.907 83.4297H178.017L177.467 85.0781H175.714L178.692 77.0777H180.22L183.215 85.0781H181.462L180.907 83.4297ZM178.462 82.0945H180.462L179.456 79.0998L178.462 82.0945ZM188.775 81.6109H185.61V83.7539H189.325V85.0781H183.962V77.0777H189.314V78.413H185.61V80.3197H188.775V81.6109Z" fill="#FFA500"/>
</svg>
