<svg width="577" height="204" viewBox="0 0 577 204" fill="none" xmlns="http://www.w3.org/2000/svg">
<rect width="577" height="204" fill="white"/>
<line x1="16.0977" y1="107.687" x2="366.669" y2="107.687" stroke="black" stroke-width="1.56296"/>
<path d="M106.042 122.916H103.151L102.602 124.564H100.849L103.827 116.564H105.355L108.349 124.564H106.597L106.042 122.916ZM103.596 121.581H105.596L104.591 118.586L103.596 121.581Z" fill="black"/>
<path d="M243.567 36.3844H240.402V38.5273H244.116V39.8516H238.753V31.8512H244.105V33.1864H240.402V35.0931H243.567V36.3844Z" fill="black"/>
<path d="M363.478 124.564V116.564H366.28C367.251 116.564 367.987 116.751 368.489 117.125C368.991 117.495 369.242 118.038 369.242 118.756C369.242 119.148 369.141 119.495 368.94 119.795C368.738 120.092 368.458 120.31 368.099 120.449C368.509 120.551 368.832 120.758 369.066 121.07C369.304 121.381 369.423 121.762 369.423 122.213C369.423 122.982 369.178 123.564 368.687 123.96C368.196 124.356 367.497 124.557 366.588 124.564H363.478ZM365.126 121.081V123.24H366.539C366.927 123.24 367.229 123.149 367.445 122.965C367.665 122.779 367.775 122.522 367.775 122.196C367.775 121.464 367.396 121.092 366.637 121.081H365.126ZM365.126 119.916H366.346C367.178 119.901 367.594 119.57 367.594 118.921C367.594 118.559 367.487 118.299 367.275 118.141C367.066 117.98 366.735 117.899 366.28 117.899H365.126V119.916Z" fill="black"/>
<circle cx="241.32" cy="50.6387" r="6.87701" fill="#FF0000"/>
<line x1="241.477" y1="50.6387" x2="241.477" y2="108.468" stroke="#0000FF" stroke-width="1.56296"/>
<circle cx="241.945" cy="50.6387" r="6.87701" fill="#FF0000"/>
<path d="M235.114 53.0703C235.335 52.6998 235.214 52.22 234.844 51.9986L228.806 48.3912C228.435 48.1698 227.956 48.2907 227.734 48.6612C227.513 49.0317 227.634 49.5115 228.004 49.7329L233.371 52.9395L230.165 58.3063C229.943 58.6768 230.064 59.1566 230.435 59.378C230.805 59.5994 231.285 59.4785 231.506 59.108L235.114 53.0703ZM16.2886 108.443L234.634 53.4272L234.252 51.9117L15.9067 106.928L16.2886 108.443Z" fill="#008000"/>
<path d="M366.909 108.238C367.214 107.933 367.214 107.438 366.909 107.133L361.936 102.16C361.631 101.854 361.136 101.854 360.831 102.16C360.525 102.465 360.525 102.96 360.831 103.265L365.251 107.686L360.831 112.106C360.525 112.411 360.525 112.906 360.831 113.211C361.136 113.517 361.631 113.517 361.936 113.211L366.909 108.238ZM16.0977 108.467H366.356V106.904H16.0977V108.467Z" fill="#008000"/>
<path d="M129.688 72.3985L126.874 73.0572L126.715 74.7875L125.008 75.187L126.084 66.7184L127.572 66.3702L132.311 73.4775L130.604 73.877L129.688 72.3985ZM127.003 71.6557L128.951 71.1998L127.289 68.5132L127.003 71.6557ZM136.935 68.8342L133.853 69.5555L134.342 71.6421L137.959 70.7955L138.26 72.0849L133.039 73.3072L131.215 65.5174L136.426 64.2976L136.731 65.5976L133.125 66.4417L133.559 68.2982L136.641 67.5769L136.935 68.8342Z" fill="#008000"/>
<path d="M210.029 119.793L207.139 119.778L206.58 121.423L204.828 121.414L207.848 113.43L209.375 113.438L212.328 121.454L210.575 121.444L210.029 119.793ZM207.591 118.445L209.591 118.455L208.601 115.456L207.591 118.445ZM213.075 121.458L213.117 113.457L215.92 113.472C216.89 113.477 217.626 113.668 218.125 114.044C218.625 114.417 218.873 114.962 218.87 115.68C218.868 116.072 218.765 116.418 218.562 116.717C218.359 117.013 218.078 117.229 217.718 117.366C218.128 117.471 218.449 117.68 218.682 117.992C218.918 118.305 219.035 118.687 219.033 119.137C219.029 119.906 218.78 120.488 218.287 120.881C217.794 121.274 217.094 121.471 216.185 121.474L213.075 121.458ZM214.742 117.983L214.731 120.142L216.143 120.149C216.531 120.151 216.834 120.061 217.051 119.879C217.272 119.694 217.383 119.438 217.384 119.112C217.388 118.379 217.011 118.006 216.253 117.991L214.742 117.983ZM214.748 116.818L215.968 116.824C216.799 116.814 217.217 116.485 217.22 115.836C217.222 115.474 217.117 115.213 216.906 115.054C216.698 114.892 216.367 114.81 215.913 114.807L214.759 114.801L214.748 116.818Z" fill="#008000"/>
<path d="M367.372 107.688H16.2539L236.865 52.6719H557.975L367.372 107.688Z" fill="#C4C4C4" fill-opacity="0.3"/>
<path d="M153.086 154.174H150.196L149.647 155.822H147.894L150.872 147.822H152.4L155.394 155.822H153.641L153.086 154.174ZM150.641 152.839H152.641L151.636 149.844L150.641 152.839ZM159.378 151.366C159.162 151.337 158.971 151.322 158.807 151.322C158.206 151.322 157.812 151.525 157.625 151.932V155.822H156.037V149.877H157.537L157.581 150.586C157.9 150.04 158.341 149.767 158.905 149.767C159.081 149.767 159.246 149.791 159.4 149.838L159.378 151.366ZM162.774 155.932C161.902 155.932 161.191 155.665 160.642 155.13C160.096 154.595 159.823 153.883 159.823 152.992V152.839C159.823 152.242 159.938 151.709 160.169 151.24C160.4 150.767 160.726 150.404 161.147 150.152C161.572 149.895 162.056 149.767 162.598 149.767C163.411 149.767 164.05 150.023 164.516 150.536C164.985 151.049 165.219 151.776 165.219 152.718V153.366H161.433C161.484 153.754 161.638 154.066 161.895 154.3C162.155 154.535 162.483 154.652 162.878 154.652C163.49 154.652 163.968 154.43 164.312 153.987L165.093 154.861C164.854 155.198 164.532 155.461 164.125 155.652C163.719 155.839 163.268 155.932 162.774 155.932ZM162.592 151.053C162.277 151.053 162.021 151.159 161.823 151.372C161.629 151.584 161.504 151.888 161.45 152.284H163.658V152.157C163.651 151.806 163.556 151.535 163.373 151.344C163.19 151.15 162.929 151.053 162.592 151.053ZM169.571 155.822C169.498 155.679 169.444 155.502 169.411 155.289C169.027 155.718 168.527 155.932 167.911 155.932C167.329 155.932 166.845 155.764 166.461 155.427C166.08 155.09 165.889 154.665 165.889 154.152C165.889 153.522 166.122 153.038 166.587 152.701C167.056 152.364 167.732 152.194 168.615 152.19H169.346V151.85C169.346 151.575 169.274 151.355 169.131 151.19C168.992 151.025 168.77 150.943 168.466 150.943C168.199 150.943 167.988 151.007 167.834 151.135C167.684 151.263 167.609 151.439 167.609 151.663H166.021C166.021 151.318 166.127 151 166.34 150.707C166.552 150.414 166.853 150.185 167.241 150.02C167.629 149.851 168.065 149.767 168.549 149.767C169.281 149.767 169.862 149.952 170.291 150.322C170.723 150.688 170.939 151.205 170.939 151.872V154.449C170.943 155.013 171.021 155.439 171.175 155.729V155.822H169.571ZM168.258 154.718C168.492 154.718 168.708 154.667 168.906 154.564C169.104 154.458 169.25 154.317 169.346 154.141V153.119H168.752C167.957 153.119 167.534 153.394 167.483 153.943L167.477 154.036C167.477 154.234 167.547 154.397 167.686 154.525C167.825 154.654 168.016 154.718 168.258 154.718ZM180.011 151.723H175.099V150.426H180.011V151.723ZM180.011 154.102H175.099V152.806H180.011V154.102ZM188.824 154.174H185.934L185.385 155.822H183.632L186.61 147.822H188.138L191.132 155.822H189.379L188.824 154.174ZM186.379 152.839H188.379L187.374 149.844L186.379 152.839ZM191.88 155.822V147.822H194.682C195.653 147.822 196.389 148.009 196.891 148.382C197.393 148.752 197.644 149.296 197.644 150.014C197.644 150.406 197.543 150.752 197.341 151.053C197.14 151.35 196.86 151.567 196.501 151.707C196.911 151.809 197.233 152.016 197.468 152.328C197.706 152.639 197.825 153.02 197.825 153.471C197.825 154.24 197.579 154.822 197.089 155.218C196.598 155.613 195.898 155.815 194.99 155.822H191.88ZM193.528 152.339V154.498H194.94C195.328 154.498 195.631 154.406 195.847 154.223C196.067 154.036 196.176 153.78 196.176 153.454C196.176 152.721 195.797 152.35 195.039 152.339H193.528ZM193.528 151.174H194.748C195.579 151.159 195.995 150.828 195.995 150.179C195.995 149.816 195.889 149.556 195.676 149.399C195.468 149.238 195.136 149.157 194.682 149.157H193.528V151.174ZM203.028 150.536L201.303 150.047L201.627 149.053L203.336 149.74L203.226 147.822H204.303L204.193 149.778L205.858 149.102L206.182 150.108L204.424 150.597L205.578 152.058L204.704 152.679L203.704 151.075L202.715 152.624L201.842 152.031L203.028 150.536ZM214.287 154.174H211.397L210.848 155.822H209.095L212.073 147.822H213.6L216.595 155.822H214.842L214.287 154.174ZM211.842 152.839H213.842L212.837 149.844L211.842 152.839ZM222.156 152.355H218.991V154.498H222.705V155.822H217.342V147.822H222.694V149.157H218.991V151.064H222.156V152.355Z" fill="black"/>
</svg>
