<svg width="577" height="204" viewBox="0 0 577 204" fill="none" xmlns="http://www.w3.org/2000/svg">
<rect width="577" height="204" fill="white"/>
<line x1="104.719" y1="107.687" x2="455.29" y2="107.687" stroke="black" stroke-width="1.56296"/>
<path d="M485.915 104.715C485.841 104.572 485.788 104.394 485.755 104.182C485.371 104.61 484.871 104.825 484.255 104.825C483.673 104.825 483.189 104.656 482.804 104.319C482.424 103.982 482.233 103.557 482.233 103.044C482.233 102.414 482.466 101.931 482.931 101.594C483.4 101.257 484.076 101.086 484.958 101.083H485.689V100.742C485.689 100.467 485.618 100.248 485.475 100.083C485.336 99.9179 485.114 99.8355 484.81 99.8355C484.543 99.8355 484.332 99.8996 484.178 100.028C484.028 100.156 483.953 100.332 483.953 100.555H482.365C482.365 100.211 482.471 99.8923 482.684 99.5992C482.896 99.3062 483.196 99.0772 483.585 98.9124C483.973 98.7439 484.409 98.6596 484.892 98.6596C485.625 98.6596 486.206 98.8446 486.634 99.2146C487.067 99.5809 487.283 100.097 487.283 100.764V103.341C487.286 103.905 487.365 104.332 487.519 104.621V104.715H485.915ZM484.601 103.61C484.836 103.61 485.052 103.559 485.25 103.457C485.447 103.35 485.594 103.209 485.689 103.033V102.011H485.096C484.301 102.011 483.878 102.286 483.827 102.836L483.821 102.929C483.821 103.127 483.891 103.29 484.03 103.418C484.169 103.546 484.359 103.61 484.601 103.61Z" fill="black"/>
<path d="M74.8579 120.656C74.7846 120.513 74.7315 120.336 74.6985 120.123C74.3139 120.552 73.8139 120.766 73.1985 120.766C72.616 120.766 72.1325 120.598 71.7478 120.261C71.3669 119.924 71.1764 119.499 71.1764 118.986C71.1764 118.356 71.409 117.872 71.8742 117.535C72.3431 117.198 73.019 117.028 73.9018 117.024H74.6326V116.684C74.6326 116.409 74.5612 116.189 74.4183 116.024C74.2791 115.859 74.0575 115.777 73.7534 115.777C73.486 115.777 73.2754 115.841 73.1215 115.969C72.9713 116.097 72.8962 116.273 72.8962 116.497H71.3083C71.3083 116.152 71.4145 115.834 71.627 115.541C71.8394 115.248 72.1398 115.019 72.5281 114.854C72.9164 114.685 73.3523 114.601 73.8358 114.601C74.5685 114.601 75.1491 114.786 75.5777 115.156C76.0099 115.522 76.2261 116.039 76.2261 116.706V119.283C76.2297 119.847 76.3085 120.273 76.4623 120.563V120.656H74.8579ZM73.5446 119.552C73.7791 119.552 73.9952 119.501 74.193 119.398C74.3908 119.292 74.5373 119.151 74.6326 118.975V117.953H74.0392C73.2442 117.953 72.8211 118.228 72.7699 118.777L72.7644 118.87C72.7644 119.068 72.834 119.231 72.9732 119.359C73.1124 119.488 73.3029 119.552 73.5446 119.552Z" fill="black"/>
<path d="M519.711 122.74C519.711 123.693 519.508 124.437 519.102 124.971C518.695 125.503 518.127 125.768 517.398 125.768C516.753 125.768 516.239 125.521 515.854 125.026L515.783 125.658H514.354V117.218H515.942V120.246C516.308 119.817 516.79 119.603 517.387 119.603C518.112 119.603 518.68 119.87 519.091 120.405C519.504 120.936 519.711 121.685 519.711 122.653V122.74ZM518.123 122.625C518.123 122.024 518.028 121.587 517.838 121.312C517.647 121.033 517.363 120.894 516.986 120.894C516.481 120.894 516.133 121.101 515.942 121.515V123.861C516.136 124.279 516.488 124.488 516.997 124.488C517.51 124.488 517.847 124.235 518.008 123.73C518.085 123.488 518.123 123.12 518.123 122.625Z" fill="black"/>
<path d="M41.2896 91.3245C41.2896 92.2769 41.0863 93.0205 40.6797 93.5553C40.2731 94.0865 39.7053 94.3521 38.9763 94.3521C38.3316 94.3521 37.8169 94.1048 37.4323 93.6103L37.3608 94.2422H35.9322V85.8022H37.5202V88.8298C37.8865 88.4012 38.3682 88.1869 38.9653 88.1869C39.6906 88.1869 40.2584 88.4544 40.6687 88.9892C41.0826 89.5203 41.2896 90.2695 41.2896 91.2365V91.3245ZM39.7016 91.2091C39.7016 90.6083 39.6064 90.1706 39.4159 89.8958C39.2254 89.6174 38.9415 89.4782 38.5642 89.4782C38.0587 89.4782 37.7107 89.6852 37.5202 90.0991V92.4454C37.7143 92.863 38.066 93.0718 38.5752 93.0718C39.088 93.0718 39.425 92.819 39.5862 92.3135C39.6631 92.0718 39.7016 91.7036 39.7016 91.2091Z" fill="black"/>
<path d="M479.002 131.054C479.296 131.054 479.534 130.974 479.717 130.812C479.9 130.651 479.995 130.437 480.003 130.17H481.492C481.488 130.573 481.378 130.942 481.162 131.28C480.946 131.613 480.649 131.873 480.272 132.06C479.898 132.243 479.484 132.335 479.03 132.335C478.18 132.335 477.51 132.065 477.019 131.527C476.528 130.985 476.283 130.237 476.283 129.285V129.181C476.283 128.265 476.526 127.534 477.013 126.988C477.501 126.442 478.169 126.169 479.019 126.169C479.763 126.169 480.358 126.382 480.805 126.807C481.255 127.228 481.484 127.79 481.492 128.494H480.003C479.995 128.186 479.9 127.937 479.717 127.746C479.534 127.552 479.292 127.455 478.991 127.455C478.622 127.455 478.341 127.591 478.151 127.862C477.964 128.129 477.871 128.565 477.871 129.17V129.334C477.871 129.946 477.964 130.386 478.151 130.653C478.338 130.921 478.622 131.054 479.002 131.054Z" fill="#0000FF"/>
<path d="M84.356 85.4156C84.6491 85.4156 84.8872 85.335 85.0703 85.1738C85.2535 85.0126 85.3487 84.7983 85.3561 84.5309H86.8451C86.8415 84.9338 86.7316 85.3038 86.5154 85.6408C86.2993 85.9742 86.0026 86.2343 85.6253 86.4211C85.2517 86.6043 84.8377 86.6958 84.3835 86.6958C83.5336 86.6958 82.8633 86.4266 82.3724 85.8881C81.8815 85.346 81.6361 84.5987 81.6361 83.6462V83.5418C81.6361 82.626 81.8797 81.8952 82.3669 81.3494C82.8541 80.8036 83.5226 80.5307 84.3725 80.5307C85.1161 80.5307 85.7114 80.7432 86.1583 81.1681C86.6089 81.5894 86.8378 82.1517 86.8451 82.855H85.3561C85.3487 82.5473 85.2535 82.2982 85.0703 82.1077C84.8872 81.9136 84.6454 81.8165 84.345 81.8165C83.975 81.8165 83.6948 81.952 83.5043 82.2231C83.3175 82.4905 83.2241 82.9264 83.2241 83.5308V83.6957C83.2241 84.3074 83.3175 84.747 83.5043 85.0144C83.6911 85.2818 83.975 85.4156 84.356 85.4156Z" fill="#0000FF"/>
<line x1="453.986" y1="107.496" x2="510.565" y2="143.288" stroke="#0000FF" stroke-width="1.56296"/>
<line x1="104.77" y1="108.348" x2="48.1907" y2="72.5562" stroke="#0000FF" stroke-width="1.56296"/>
<circle cx="510.15" cy="143.947" r="6.87701" fill="#FF0000"/>
<circle cx="48.6074" cy="71.8964" r="6.87701" transform="rotate(180 48.6074 71.8964)" fill="#FF0000"/>
<line x1="453.986" y1="107.496" x2="510.565" y2="143.288" stroke="#0000FF" stroke-width="1.56296"/>
<line x1="104.77" y1="108.348" x2="48.1907" y2="72.5562" stroke="#0000FF" stroke-width="1.56296"/>
<circle cx="510.15" cy="143.947" r="6.87701" fill="#FF0000"/>
<circle cx="48.6074" cy="71.8964" r="6.87701" transform="rotate(180 48.6074 71.8964)" fill="#FF0000"/>
<path d="M47.5918 72.9121L103.424 107.805H47.5918V72.9121Z" fill="#C4C4C4" fill-opacity="0.3"/>
<path d="M512.415 143.089V107.805H456.583L512.415 143.089Z" fill="#C4C4C4" fill-opacity="0.3"/>
</svg>
