<svg width="577" height="204" viewBox="0 0 577 204" fill="none" xmlns="http://www.w3.org/2000/svg">
<rect width="577" height="204" fill="white"/>
<line x1="104.719" y1="107.687" x2="455.29" y2="107.687" stroke="black" stroke-width="1.56296"/>
<path d="M106.042 122.916H103.151L102.602 124.564H100.849L103.827 116.564H105.355L108.349 124.564H106.597L106.042 122.916ZM103.596 121.581H105.596L104.591 118.586L103.596 121.581Z" fill="black"/>
<path d="M332.186 36.3844H329.021V38.5273H332.735V39.8516H327.373V31.8512H332.724V33.1864H329.021V35.0931H332.186V36.3844Z" fill="black"/>
<path d="M452.095 124.564V116.564H454.898C455.868 116.564 456.605 116.751 457.106 117.125C457.608 117.495 457.859 118.038 457.859 118.756C457.859 119.148 457.758 119.495 457.557 119.795C457.356 120.092 457.075 120.31 456.716 120.449C457.127 120.551 457.449 120.758 457.683 121.07C457.921 121.381 458.041 121.762 458.041 122.213C458.041 122.982 457.795 123.564 457.304 123.96C456.813 124.356 456.114 124.557 455.205 124.564H452.095ZM453.744 121.081V123.24H455.156C455.544 123.24 455.846 123.149 456.062 122.965C456.282 122.779 456.392 122.522 456.392 122.196C456.392 121.464 456.013 121.092 455.255 121.081H453.744ZM453.744 119.916H454.963C455.795 119.901 456.211 119.57 456.211 118.921C456.211 118.559 456.105 118.299 455.892 118.141C455.683 117.98 455.352 117.899 454.898 117.899H453.744V119.916Z" fill="black"/>
<circle cx="329.941" cy="50.6407" r="6.87701" fill="#FF0000"/>
<line x1="330.096" y1="50.6406" x2="330.096" y2="108.47" stroke="#0000FF" stroke-width="1.56296"/>
<circle cx="330.565" cy="50.6407" r="6.87701" fill="#FF0000"/>
<path d="M323.735 53.0722C323.956 52.7017 323.835 52.2219 323.465 52.0005L317.427 48.3931C317.057 48.1717 316.577 48.2926 316.355 48.6631C316.134 49.0336 316.255 49.5135 316.625 49.7348L321.992 52.9414L318.786 58.3083C318.564 58.6788 318.685 59.1586 319.056 59.38C319.426 59.6013 319.906 59.4804 320.127 59.1099L323.735 53.0722ZM104.91 108.445L107.283 107.847L106.901 106.332L104.528 106.93L104.91 108.445ZM112.03 106.651L116.776 105.455L116.394 103.94L111.648 105.136L112.03 106.651ZM121.523 104.259L126.27 103.063L125.888 101.548L121.141 102.744L121.523 104.259ZM131.016 101.867L135.763 100.671L135.381 99.1557L130.634 100.352L131.016 101.867ZM140.509 99.4753L145.256 98.2793L144.874 96.7637L140.128 97.9597L140.509 99.4753ZM150.003 97.0833L154.749 95.8873L154.367 94.3717L149.621 95.5677L150.003 97.0833ZM159.496 94.6913L164.243 93.4953L163.861 91.9797L159.114 93.1757L159.496 94.6913ZM168.989 92.2993L173.736 91.1033L173.354 89.5877L168.607 90.7837L168.989 92.2993ZM178.483 89.9073L183.229 88.7113L182.847 87.1957L178.101 88.3917L178.483 89.9073ZM187.976 87.5153L192.722 86.3193L192.341 84.8037L187.594 85.9997L187.976 87.5153ZM197.469 85.1233L202.216 83.9273L201.834 82.4117L197.087 83.6077L197.469 85.1233ZM206.962 82.7313L211.709 81.5352L211.327 80.0197L206.58 81.2157L206.962 82.7313ZM216.456 80.3392L221.202 79.1432L220.82 77.6277L216.074 78.8237L216.456 80.3392ZM225.949 77.9472L230.695 76.7512L230.314 75.2357L225.567 76.4317L225.949 77.9472ZM235.442 75.5552L240.189 74.3592L239.807 72.8437L235.06 74.0397L235.442 75.5552ZM244.935 73.1632L249.682 71.9672L249.3 70.4517L244.553 71.6477L244.935 73.1632ZM254.429 70.7712L259.175 69.5752L258.793 68.0596L254.047 69.2557L254.429 70.7712ZM263.922 68.3792L268.668 67.1832L268.287 65.6676L263.54 66.8636L263.922 68.3792ZM273.415 65.9872L278.162 64.7912L277.78 63.2756L273.033 64.4716L273.415 65.9872ZM282.908 63.5952L287.655 62.3992L287.273 60.8836L282.527 62.0796L282.908 63.5952ZM292.402 61.2032L297.148 60.0072L296.766 58.4916L292.02 59.6876L292.402 61.2032ZM301.895 58.8112L306.642 57.6152L306.26 56.0996L301.513 57.2956L301.895 58.8112ZM311.388 56.4192L316.135 55.2232L315.753 53.7076L311.006 54.9036L311.388 56.4192ZM320.881 54.0272L323.255 53.4292L322.873 51.9136L320.5 52.5116L320.881 54.0272ZM324.406 53.4731C324.848 52.732 324.607 51.7724 323.866 51.3297L311.79 44.1148C311.049 43.6721 310.09 43.9139 309.647 44.6549C309.204 45.3959 309.446 46.3555 310.187 46.7982L320.921 53.2115L314.507 63.9452C314.065 64.6862 314.306 65.6458 315.047 66.0885C315.788 66.5313 316.748 66.2895 317.191 65.5485L324.406 53.4731ZM105.101 109.203L107.474 108.605L106.71 105.574L104.337 106.172L105.101 109.203ZM112.221 107.409L116.967 106.213L116.203 103.182L111.457 104.378L112.221 107.409ZM121.714 105.017L126.46 103.821L125.697 100.79L120.95 101.986L121.714 105.017ZM131.207 102.625L135.954 101.429L135.19 98.3979L130.443 99.5939L131.207 102.625ZM140.7 100.233L145.447 99.0371L144.683 96.0059L139.937 97.2019L140.7 100.233ZM150.194 97.8411L154.94 96.6451L154.177 93.6139L149.43 94.8099L150.194 97.8411ZM159.687 95.4491L164.434 94.2531L163.67 91.2219L158.923 92.4179L159.687 95.4491ZM169.18 93.0571L173.927 91.8611L173.163 88.8299L168.416 90.0259L169.18 93.0571ZM178.673 90.6651L183.42 89.4691L182.656 86.4379L177.91 87.6339L178.673 90.6651ZM188.167 88.273L192.913 87.077L192.15 84.0459L187.403 85.2419L188.167 88.273ZM197.66 85.881L202.407 84.685L201.643 81.6539L196.896 82.8499L197.66 85.881ZM207.153 83.489L211.9 82.293L211.136 79.2619L206.389 80.4579L207.153 83.489ZM216.646 81.097L221.393 79.901L220.629 76.8699L215.883 78.0659L216.646 81.097ZM226.14 78.705L230.886 77.509L230.123 74.4779L225.376 75.6739L226.14 78.705ZM235.633 76.313L240.38 75.117L239.616 72.0859L234.869 73.2819L235.633 76.313ZM245.126 73.921L249.873 72.725L249.109 69.6939L244.363 70.8899L245.126 73.921ZM254.62 71.529L259.366 70.333L258.602 67.3019L253.856 68.4979L254.62 71.529ZM264.113 69.137L268.859 67.941L268.096 64.9099L263.349 66.1059L264.113 69.137ZM273.606 66.745L278.353 65.549L277.589 62.5179L272.842 63.7139L273.606 66.745ZM283.099 64.353L287.846 63.157L287.082 60.1258L282.336 61.3219L283.099 64.353ZM292.593 61.961L297.339 60.765L296.575 57.7338L291.829 58.9298L292.593 61.961ZM302.086 59.569L306.832 58.373L306.069 55.3418L301.322 56.5378L302.086 59.569ZM311.579 57.177L316.326 55.981L315.562 52.9498L310.815 54.1458L311.579 57.177ZM321.072 54.785L323.446 54.187L322.682 51.1558L320.309 51.7538L321.072 54.785Z" fill="#FFA500"/>
<path d="M218.309 72.4004L215.495 73.0592L215.336 74.7895L213.629 75.189L214.705 66.7204L216.193 66.3722L220.932 73.4795L219.225 73.879L218.309 72.4004ZM215.624 71.6576L217.572 71.2018L215.91 68.5151L215.624 71.6576ZM225.556 68.8361L222.475 69.5575L222.963 71.644L226.58 70.7974L226.881 72.0868L221.66 73.3091L219.836 65.5193L225.047 64.2995L225.352 65.5996L221.746 66.4437L222.18 68.3002L225.262 67.5788L225.556 68.8361Z" fill="#FFA500"/>
<path d="M455.53 108.24C455.835 107.935 455.835 107.44 455.53 107.135L450.557 102.162C450.252 101.856 449.757 101.856 449.452 102.162C449.146 102.467 449.146 102.962 449.452 103.267L453.872 107.688L449.452 112.108C449.146 112.413 449.146 112.908 449.452 113.213C449.757 113.519 450.252 113.519 450.557 113.213L455.53 108.24ZM104.719 108.469H454.978V106.906H104.719V108.469Z" fill="#008000"/>
<path d="M246.083 166.992H243.192L242.643 168.641H240.89L243.868 160.64H245.396L248.39 168.641H246.638L246.083 166.992ZM243.637 165.657H245.638L244.632 162.662L243.637 165.657ZM249.138 168.641V160.64H251.94C252.911 160.64 253.647 160.827 254.149 161.201C254.651 161.571 254.902 162.115 254.902 162.833C254.902 163.225 254.801 163.571 254.599 163.871C254.398 164.168 254.118 164.386 253.759 164.525C254.169 164.628 254.491 164.835 254.726 165.146C254.964 165.457 255.083 165.838 255.083 166.289C255.083 167.058 254.838 167.641 254.347 168.036C253.856 168.432 253.156 168.633 252.248 168.641H249.138ZM250.786 165.157V167.316H252.198C252.587 167.316 252.889 167.225 253.105 167.042C253.325 166.855 253.435 166.598 253.435 166.272C253.435 165.54 253.055 165.168 252.297 165.157H250.786ZM250.786 163.992H252.006C252.837 163.977 253.253 163.646 253.253 162.997C253.253 162.635 253.147 162.375 252.935 162.217C252.726 162.056 252.394 161.975 251.94 161.975H250.786V163.992ZM256.303 167.86C256.303 167.608 256.387 167.402 256.556 167.245C256.728 167.087 256.942 167.009 257.199 167.009C257.459 167.009 257.673 167.087 257.841 167.245C258.014 167.402 258.1 167.608 258.1 167.86C258.1 168.109 258.015 168.313 257.847 168.47C257.678 168.624 257.462 168.701 257.199 168.701C256.938 168.701 256.724 168.624 256.556 168.47C256.387 168.313 256.303 168.109 256.303 167.86ZM261.759 164.47L262.759 162.695H264.457L262.765 165.608L264.529 168.641H262.825L261.765 166.772L260.71 168.641H259.001L260.765 165.608L259.078 162.695H260.781L261.759 164.47ZM269.287 163.355L267.562 162.866L267.886 161.871L269.595 162.558L269.485 160.64H270.562L270.452 162.596L272.117 161.921L272.441 162.926L270.683 163.415L271.837 164.877L270.963 165.498L269.963 163.893L268.974 165.443L268.1 164.849L269.287 163.355ZM276.029 168.641V160.64H278.831C279.802 160.64 280.538 160.827 281.04 161.201C281.542 161.571 281.793 162.115 281.793 162.833C281.793 163.225 281.692 163.571 281.491 163.871C281.289 164.168 281.009 164.386 280.65 164.525C281.06 164.628 281.383 164.835 281.617 165.146C281.855 165.457 281.974 165.838 281.974 166.289C281.974 167.058 281.729 167.641 281.238 168.036C280.747 168.432 280.048 168.633 279.139 168.641H276.029ZM277.678 165.157V167.316H279.09C279.478 167.316 279.78 167.225 279.996 167.042C280.216 166.855 280.326 166.598 280.326 166.272C280.326 165.54 279.947 165.168 279.189 165.157H277.678ZM277.678 163.992H278.897C279.729 163.977 280.145 163.646 280.145 162.997C280.145 162.635 280.038 162.375 279.826 162.217C279.617 162.056 279.286 161.975 278.831 161.975H277.678V163.992ZM288.03 165.173H284.865V167.316H288.579V168.641H283.216V160.64H288.568V161.975H284.865V163.882H288.03V165.173ZM289.524 167.86C289.524 167.608 289.609 167.402 289.777 167.245C289.949 167.087 290.163 167.009 290.42 167.009C290.68 167.009 290.894 167.087 291.063 167.245C291.235 167.402 291.321 167.608 291.321 167.86C291.321 168.109 291.237 168.313 291.068 168.47C290.9 168.624 290.684 168.701 290.42 168.701C290.16 168.701 289.946 168.624 289.777 168.47C289.609 168.313 289.524 168.109 289.524 167.86ZM294.981 164.47L295.981 162.695H297.678L295.986 165.608L297.75 168.641H296.047L294.986 166.772L293.931 168.641H292.222L293.986 165.608L292.299 162.695H294.002L294.981 164.47ZM304.448 164.162H306.432V165.597H304.448V167.838H302.937V165.597H300.948V164.162H302.937V162.014H304.448V164.162ZM314.811 166.992H311.921L311.371 168.641H309.619L312.597 160.64H314.124L317.119 168.641H315.366L314.811 166.992ZM312.366 165.657H314.366L313.361 162.662L312.366 165.657ZM317.866 168.641V160.64H320.669C321.639 160.64 322.376 160.827 322.878 161.201C323.379 161.571 323.63 162.115 323.63 162.833C323.63 163.225 323.53 163.571 323.328 163.871C323.127 164.168 322.846 164.386 322.487 164.525C322.898 164.628 323.22 164.835 323.454 165.146C323.693 165.457 323.812 165.838 323.812 166.289C323.812 167.058 323.566 167.641 323.075 168.036C322.584 168.432 321.885 168.633 320.976 168.641H317.866ZM319.515 165.157V167.316H320.927C321.315 167.316 321.617 167.225 321.834 167.042C322.053 166.855 322.163 166.598 322.163 166.272C322.163 165.54 321.784 165.168 321.026 165.157H319.515ZM319.515 163.992H320.735C321.566 163.977 321.982 163.646 321.982 162.997C321.982 162.635 321.876 162.375 321.663 162.217C321.454 162.056 321.123 161.975 320.669 161.975H319.515V163.992ZM325.031 167.86C325.031 167.608 325.116 167.402 325.284 167.245C325.456 167.087 325.671 167.009 325.927 167.009C326.187 167.009 326.401 167.087 326.57 167.245C326.742 167.402 326.828 167.608 326.828 167.86C326.828 168.109 326.744 168.313 326.575 168.47C326.407 168.624 326.191 168.701 325.927 168.701C325.667 168.701 325.453 168.624 325.284 168.47C325.116 168.313 325.031 168.109 325.031 167.86ZM330.444 166.393L331.543 162.695H333.246L330.856 169.564L330.724 169.877C330.369 170.654 329.783 171.042 328.966 171.042C328.735 171.042 328.5 171.007 328.262 170.937V169.734L328.504 169.74C328.805 169.74 329.028 169.694 329.175 169.602C329.325 169.511 329.442 169.359 329.526 169.146L329.713 168.657L327.63 162.695H329.339L330.444 166.393ZM337.939 163.355L336.213 162.866L336.538 161.871L338.246 162.558L338.136 160.64H339.213L339.104 162.596L340.768 161.921L341.093 162.926L339.334 163.415L340.488 164.877L339.615 165.498L338.615 163.893L337.625 165.443L336.752 164.849L337.939 163.355ZM344.681 168.641V160.64H347.483C348.454 160.64 349.19 160.827 349.692 161.201C350.194 161.571 350.445 162.115 350.445 162.833C350.445 163.225 350.344 163.571 350.143 163.871C349.941 164.168 349.661 164.386 349.302 164.525C349.712 164.628 350.035 164.835 350.269 165.146C350.507 165.457 350.626 165.838 350.626 166.289C350.626 167.058 350.381 167.641 349.89 168.036C349.399 168.432 348.699 168.633 347.791 168.641H344.681ZM346.329 165.157V167.316H347.741C348.13 167.316 348.432 167.225 348.648 167.042C348.868 166.855 348.978 166.598 348.978 166.272C348.978 165.54 348.599 165.168 347.84 165.157H346.329ZM346.329 163.992H347.549C348.381 163.977 348.796 163.646 348.796 162.997C348.796 162.635 348.69 162.375 348.478 162.217C348.269 162.056 347.937 161.975 347.483 161.975H346.329V163.992ZM356.681 165.173H353.516V167.316H357.231V168.641H351.868V160.64H357.22V161.975H353.516V163.882H356.681V165.173ZM358.176 167.86C358.176 167.608 358.26 167.402 358.429 167.245C358.601 167.087 358.815 167.009 359.072 167.009C359.332 167.009 359.546 167.087 359.714 167.245C359.887 167.402 359.973 167.608 359.973 167.86C359.973 168.109 359.888 168.313 359.72 168.47C359.551 168.624 359.335 168.701 359.072 168.701C358.811 168.701 358.597 168.624 358.429 168.47C358.26 168.313 358.176 168.109 358.176 167.86ZM363.588 166.393L364.687 162.695H366.391L364 169.564L363.869 169.877C363.513 170.654 362.927 171.042 362.11 171.042C361.879 171.042 361.645 171.007 361.407 170.937V169.734L361.649 169.74C361.949 169.74 362.172 169.694 362.319 169.602C362.469 169.511 362.586 169.359 362.671 169.146L362.857 168.657L360.775 162.695H362.484L363.588 166.393ZM374.869 164.542H369.957V163.245H374.869V164.542ZM374.869 166.921H369.957V165.624H374.869V166.921ZM384.38 165.333C384.38 166.439 384.152 167.285 383.694 167.871C383.236 168.457 382.565 168.751 381.683 168.751C380.811 168.751 380.144 168.463 379.682 167.888C379.221 167.313 378.985 166.489 378.974 165.415V163.943C378.974 162.825 379.204 161.977 379.666 161.399C380.131 160.82 380.8 160.53 381.672 160.53C382.543 160.53 383.21 160.818 383.672 161.393C384.133 161.964 384.369 162.787 384.38 163.86V165.333ZM382.792 163.717C382.792 163.054 382.701 162.573 382.518 162.272C382.338 161.968 382.056 161.816 381.672 161.816C381.298 161.816 381.021 161.961 380.842 162.25C380.666 162.536 380.573 162.985 380.562 163.596V165.542C380.562 166.194 380.65 166.679 380.825 166.998C381.005 167.313 381.291 167.47 381.683 167.47C382.071 167.47 382.351 167.318 382.523 167.014C382.695 166.71 382.785 166.245 382.792 165.619V163.717Z" fill="black"/>
</svg>
