<svg width="577" height="204" viewBox="0 0 577 204" fill="none" xmlns="http://www.w3.org/2000/svg">
<rect width="577" height="204" fill="white"/>
<line x1="104.719" y1="107.687" x2="455.29" y2="107.687" stroke="black" stroke-width="1.56296"/>
<path d="M106.042 121.354H103.151L102.602 123.002H100.849L103.827 115.002H105.355L108.349 123.002H106.597L106.042 121.354ZM103.596 120.018H105.596L104.591 117.024L103.596 120.018Z" fill="black"/>
<path d="M332.186 36.3844H329.021V38.5273H332.735V39.8516H327.373V31.8512H332.724V33.1864H329.021V35.0931H332.186V36.3844Z" fill="black"/>
<path d="M452.095 124.564V116.564H454.898C455.868 116.564 456.605 116.751 457.106 117.125C457.608 117.495 457.859 118.038 457.859 118.756C457.859 119.148 457.758 119.495 457.557 119.795C457.356 120.092 457.075 120.31 456.716 120.449C457.127 120.551 457.449 120.758 457.683 121.07C457.921 121.381 458.041 121.762 458.041 122.213C458.041 122.982 457.795 123.564 457.304 123.96C456.813 124.356 456.114 124.557 455.205 124.564H452.095ZM453.744 121.081V123.24H455.156C455.544 123.24 455.846 123.149 456.062 122.965C456.282 122.779 456.392 122.522 456.392 122.196C456.392 121.464 456.013 121.092 455.255 121.081H453.744ZM453.744 119.916H454.963C455.795 119.901 456.211 119.57 456.211 118.921C456.211 118.559 456.105 118.299 455.892 118.141C455.683 117.98 455.352 117.899 454.898 117.899H453.744V119.916Z" fill="black"/>
<circle cx="329.941" cy="50.6387" r="6.87701" fill="#FF0000"/>
<line x1="330.253" y1="50.6387" x2="330.253" y2="108.468" stroke="#0000FF" stroke-width="6.25183"/>
<circle cx="330.565" cy="50.6387" r="6.87701" fill="#FF0000"/>
<rect x="104.719" y="51.8887" width="350.259" height="55.7976" fill="#C4C4C4" fill-opacity="0.3"/>
<line x1="106.594" y1="51.1074" x2="106.594" y2="107.686" stroke="#0000FF" stroke-width="4.68887"/>
<path d="M90.6883 80.3778H89.3695L89.1827 74.8336H90.8751L90.6883 80.3778ZM90.0289 81.246C90.2963 81.246 90.5106 81.3248 90.6718 81.4823C90.8366 81.6398 90.9191 81.8413 90.9191 82.0867C90.9191 82.3285 90.8366 82.5281 90.6718 82.6856C90.5106 82.8431 90.2963 82.9219 90.0289 82.9219C89.7652 82.9219 89.5509 82.8431 89.386 82.6856C89.2248 82.5281 89.1442 82.3285 89.1442 82.0867C89.1442 81.8449 89.2248 81.6453 89.386 81.4878C89.5509 81.3266 89.7652 81.246 90.0289 81.246ZM93.7544 80.3778H92.4356L92.2488 74.8336H93.9412L93.7544 80.3778ZM93.095 81.246C93.3624 81.246 93.5767 81.3248 93.7379 81.4823C93.9027 81.6398 93.9851 81.8413 93.9851 82.0867C93.9851 82.3285 93.9027 82.5281 93.7379 82.6856C93.5767 82.8431 93.3624 82.9219 93.095 82.9219C92.8312 82.9219 92.6169 82.8431 92.4521 82.6856C92.2909 82.5281 92.2103 82.3285 92.2103 82.0867C92.2103 81.8449 92.2909 81.6453 92.4521 81.4878C92.6169 81.3266 92.8312 81.246 93.095 81.246ZM96.8204 80.3778H95.5017L95.3149 74.8336H97.0073L96.8204 80.3778ZM96.1611 81.246C96.4285 81.246 96.6428 81.3248 96.804 81.4823C96.9688 81.6398 97.0512 81.8413 97.0512 82.0867C97.0512 82.3285 96.9688 82.5281 96.804 82.6856C96.6428 82.8431 96.4285 82.9219 96.1611 82.9219C95.8973 82.9219 95.683 82.8431 95.5182 82.6856C95.357 82.5281 95.2764 82.3285 95.2764 82.0867C95.2764 81.8449 95.357 81.6453 95.5182 81.4878C95.683 81.3266 95.8973 81.246 96.1611 81.246Z" fill="#800080"/>
<path d="M239.201 151.327L240.278 145.634H241.921L240.146 153.635H238.487L237.185 148.283L235.882 153.635H234.223L232.448 145.634H234.091L235.174 151.316L236.492 145.634H237.888L239.201 151.327ZM244.388 153.635H242.795V147.689H244.388V153.635ZM242.701 146.151C242.701 145.913 242.78 145.717 242.938 145.563C243.099 145.409 243.317 145.332 243.592 145.332C243.863 145.332 244.079 145.409 244.24 145.563C244.401 145.717 244.482 145.913 244.482 146.151C244.482 146.393 244.399 146.59 244.234 146.744C244.073 146.898 243.859 146.975 243.592 146.975C243.324 146.975 243.108 146.898 242.943 146.744C242.782 146.59 242.701 146.393 242.701 146.151ZM245.454 150.618C245.454 149.691 245.661 148.953 246.075 148.404C246.493 147.854 247.062 147.58 247.784 147.58C248.363 147.58 248.841 147.796 249.218 148.228V145.195H250.812V153.635H249.378L249.301 153.003C248.905 153.497 248.396 153.745 247.773 153.745C247.073 153.745 246.511 153.47 246.086 152.92C245.665 152.367 245.454 151.6 245.454 150.618ZM247.042 150.734C247.042 151.29 247.139 151.717 247.334 152.014C247.528 152.311 247.81 152.459 248.18 152.459C248.671 152.459 249.017 152.252 249.218 151.838V149.492C249.02 149.078 248.678 148.871 248.191 148.871C247.425 148.871 247.042 149.492 247.042 150.734ZM253.944 146.228V147.689H254.96V148.854H253.944V151.821C253.944 152.041 253.986 152.199 254.07 152.294C254.154 152.389 254.316 152.437 254.554 152.437C254.729 152.437 254.885 152.424 255.021 152.398V153.602C254.709 153.697 254.389 153.745 254.059 153.745C252.946 153.745 252.378 153.182 252.356 152.058V148.854H251.488V147.689H252.356V146.228H253.944ZM257.394 148.338C257.816 147.832 258.345 147.58 258.982 147.58C260.272 147.58 260.926 148.329 260.944 149.827V153.635H259.356V149.871C259.356 149.53 259.283 149.279 259.136 149.118C258.99 148.953 258.746 148.871 258.405 148.871C257.94 148.871 257.603 149.05 257.394 149.409V153.635H255.806V145.195H257.394V148.338Z" fill="#0000FF"/>
<path d="M269.994 149.536H265.082V148.239H269.994V149.536ZM269.994 151.915H265.082V150.618H269.994V151.915ZM301.182 154.322H300.001L302.946 145.634H304.127L301.182 154.322ZM312.315 151.986H309.424L308.875 153.635H307.122L310.1 145.634H311.628L314.622 153.635H312.87L312.315 151.986ZM309.87 150.651H311.87L310.864 147.656L309.87 150.651ZM315.37 153.635V145.634H318.172C319.143 145.634 319.879 145.821 320.381 146.195C320.883 146.565 321.134 147.109 321.134 147.827C321.134 148.219 321.033 148.565 320.832 148.865C320.63 149.162 320.35 149.38 319.991 149.519C320.401 149.622 320.724 149.829 320.958 150.14C321.196 150.451 321.315 150.832 321.315 151.283C321.315 152.052 321.07 152.635 320.579 153.03C320.088 153.426 319.388 153.627 318.48 153.635H315.37ZM317.018 150.151V152.311H318.43C318.819 152.311 319.121 152.219 319.337 152.036C319.557 151.849 319.667 151.593 319.667 151.267C319.667 150.534 319.288 150.162 318.529 150.151H317.018ZM317.018 148.986H318.238C319.07 148.972 319.485 148.64 319.485 147.992C319.485 147.629 319.379 147.369 319.167 147.211C318.958 147.05 318.626 146.97 318.172 146.97H317.018V148.986ZM324.068 151.179H322.749L322.562 145.634H324.255L324.068 151.179ZM323.409 152.047C323.676 152.047 323.89 152.126 324.052 152.283C324.216 152.441 324.299 152.642 324.299 152.887C324.299 153.129 324.216 153.329 324.052 153.486C323.89 153.644 323.676 153.723 323.409 153.723C323.145 153.723 322.931 153.644 322.766 153.486C322.605 153.329 322.524 153.129 322.524 152.887C322.524 152.646 322.605 152.446 322.766 152.289C322.931 152.127 323.145 152.047 323.409 152.047Z" fill="black"/>
<path d="M278.808 151.986H275.917L275.368 153.635H273.615L276.593 145.634H278.121L281.115 153.635H279.363L278.808 151.986ZM276.362 150.651H278.362L277.357 147.656L276.362 150.651ZM285.099 149.179C284.883 149.149 284.692 149.135 284.528 149.135C283.927 149.135 283.533 149.338 283.346 149.744V153.635H281.758V147.689H283.258L283.302 148.398C283.621 147.852 284.062 147.58 284.627 147.58C284.802 147.58 284.967 147.603 285.121 147.651L285.099 149.179ZM288.495 153.745C287.623 153.745 286.912 153.477 286.363 152.942C285.817 152.408 285.544 151.695 285.544 150.805V150.651C285.544 150.054 285.66 149.521 285.89 149.052C286.121 148.58 286.447 148.217 286.868 147.964C287.293 147.708 287.777 147.58 288.319 147.58C289.132 147.58 289.771 147.836 290.237 148.349C290.706 148.862 290.94 149.589 290.94 150.53V151.179H287.154C287.205 151.567 287.359 151.878 287.616 152.113C287.876 152.347 288.204 152.464 288.599 152.464C289.211 152.464 289.689 152.243 290.033 151.8L290.814 152.673C290.576 153.01 290.253 153.274 289.847 153.464C289.44 153.651 288.989 153.745 288.495 153.745ZM288.314 148.865C287.998 148.865 287.742 148.972 287.544 149.184C287.35 149.396 287.226 149.701 287.171 150.096H289.38V149.97C289.372 149.618 289.277 149.347 289.094 149.157C288.911 148.962 288.651 148.865 288.314 148.865ZM295.292 153.635C295.219 153.492 295.165 153.314 295.133 153.102C294.748 153.53 294.248 153.745 293.632 153.745C293.05 153.745 292.566 153.576 292.182 153.239C291.801 152.902 291.61 152.477 291.61 151.964C291.61 151.334 291.843 150.851 292.308 150.514C292.777 150.177 293.453 150.006 294.336 150.003H295.067V149.662C295.067 149.387 294.995 149.168 294.852 149.003C294.713 148.838 294.491 148.755 294.187 148.755C293.92 148.755 293.709 148.82 293.556 148.948C293.405 149.076 293.33 149.252 293.33 149.475H291.742C291.742 149.131 291.848 148.812 292.061 148.519C292.273 148.226 292.574 147.997 292.962 147.832C293.35 147.664 293.786 147.58 294.27 147.58C295.002 147.58 295.583 147.765 296.012 148.134C296.444 148.501 296.66 149.017 296.66 149.684V152.261C296.664 152.825 296.742 153.252 296.896 153.541V153.635H295.292ZM293.979 152.53C294.213 152.53 294.429 152.479 294.627 152.376C294.825 152.27 294.971 152.129 295.067 151.953V150.931H294.473C293.678 150.931 293.255 151.206 293.204 151.756L293.198 151.849C293.198 152.047 293.268 152.21 293.407 152.338C293.546 152.466 293.737 152.53 293.979 152.53Z" fill="#808080"/>
</svg>
