<svg width="577" height="205" viewBox="0 0 577 205" fill="none" xmlns="http://www.w3.org/2000/svg">
<rect width="577" height="205" fill="white"/>
<line x1="200.801" y1="170.178" x2="551.372" y2="170.178" stroke="#008000" stroke-width="1.56296"/>
<path d="M202.124 185.096H199.233L198.684 186.744H196.931L199.909 178.744H201.437L204.431 186.744H202.679L202.124 185.096ZM199.678 183.76H201.679L200.673 180.766L199.678 183.76Z" fill="black"/>
<path d="M428.268 98.8765H425.103V101.02H428.817V102.344H423.455V94.3434H428.806V95.6786H425.103V97.5853H428.268V98.8765Z" fill="black"/>
<circle cx="426.023" cy="113.131" r="6.87701" fill="#FF0000"/>
<line x1="426.18" y1="113.131" x2="426.18" y2="170.96" stroke="#0000FF" stroke-width="1.56296"/>
<circle cx="426.648" cy="113.131" r="6.87701" fill="#FF0000"/>
<path d="M419.817 115.564C420.038 115.194 419.917 114.714 419.547 114.493L413.509 110.885C413.139 110.664 412.659 110.785 412.437 111.155C412.216 111.526 412.337 112.006 412.707 112.227L418.074 115.434L414.868 120.8C414.646 121.171 414.767 121.651 415.138 121.872C415.508 122.094 415.988 121.973 416.209 121.602L419.817 115.564ZM200.992 170.937L419.337 115.921L418.955 114.406L200.61 169.422L200.992 170.937Z" fill="#008000"/>
<path d="M314.391 134.891L311.577 135.549L311.418 137.28L309.711 137.679L310.788 129.211L312.275 128.862L317.014 135.97L315.307 136.369L314.391 134.891ZM311.706 134.148L313.654 133.692L311.992 131.005L311.706 134.148ZM321.638 131.326L318.557 132.048L319.045 134.134L322.662 133.288L322.964 134.577L317.742 135.799L315.918 128.01L321.129 126.79L321.434 128.09L317.828 128.934L318.262 130.79L321.344 130.069L321.638 131.326Z" fill="#008000"/>
<path d="M200.801 114.381H551.06V170.178C414.275 170.178 337.585 170.178 200.801 170.178V114.381Z" fill="#C4C4C4" fill-opacity="0.3"/>
<path d="M337.79 189.002H334.899L334.35 190.65H332.597L335.575 182.65H337.103L340.097 190.65H338.345L337.79 189.002ZM335.344 187.667H337.345L336.339 184.672L335.344 187.667ZM344.081 186.194C343.865 186.165 343.675 186.15 343.51 186.15C342.909 186.15 342.515 186.353 342.328 186.76V190.65H340.74V184.705H342.24L342.284 185.414C342.603 184.868 343.044 184.595 343.609 184.595C343.784 184.595 343.949 184.619 344.103 184.667L344.081 186.194ZM347.477 190.76C346.605 190.76 345.894 190.493 345.345 189.958C344.799 189.423 344.526 188.711 344.526 187.821V187.667C344.526 187.07 344.642 186.537 344.872 186.068C345.103 185.595 345.429 185.233 345.85 184.98C346.275 184.723 346.759 184.595 347.301 184.595C348.114 184.595 348.754 184.852 349.219 185.364C349.688 185.877 349.922 186.604 349.922 187.546V188.194H346.136C346.187 188.583 346.341 188.894 346.598 189.128C346.858 189.363 347.186 189.48 347.581 189.48C348.193 189.48 348.671 189.258 349.015 188.815L349.796 189.689C349.558 190.026 349.235 190.29 348.829 190.48C348.422 190.667 347.971 190.76 347.477 190.76ZM347.296 185.881C346.981 185.881 346.724 185.987 346.526 186.2C346.332 186.412 346.208 186.716 346.153 187.112H348.362V186.985C348.354 186.634 348.259 186.363 348.076 186.172C347.893 185.978 347.633 185.881 347.296 185.881ZM354.274 190.65C354.201 190.508 354.148 190.33 354.115 190.117C353.73 190.546 353.23 190.76 352.615 190.76C352.032 190.76 351.549 190.592 351.164 190.255C350.783 189.918 350.592 189.493 350.592 188.98C350.592 188.35 350.825 187.866 351.29 187.529C351.759 187.192 352.435 187.022 353.318 187.018H354.049V186.678C354.049 186.403 353.977 186.183 353.834 186.018C353.695 185.853 353.474 185.771 353.169 185.771C352.902 185.771 352.691 185.835 352.538 185.963C352.387 186.092 352.312 186.267 352.312 186.491H350.724C350.724 186.147 350.831 185.828 351.043 185.535C351.255 185.242 351.556 185.013 351.944 184.848C352.332 184.679 352.768 184.595 353.252 184.595C353.985 184.595 354.565 184.78 354.994 185.15C355.426 185.516 355.642 186.033 355.642 186.7V189.277C355.646 189.841 355.725 190.268 355.878 190.557V190.65H354.274ZM352.961 189.546C353.195 189.546 353.411 189.495 353.609 189.392C353.807 189.286 353.953 189.145 354.049 188.969V187.947H353.455C352.66 187.947 352.237 188.222 352.186 188.771L352.18 188.865C352.18 189.062 352.25 189.225 352.389 189.354C352.528 189.482 352.719 189.546 352.961 189.546Z" fill="#808080"/>
<path d="M364.714 186.551H359.802V185.255H364.714V186.551ZM364.714 188.931H359.802V187.634H364.714V188.931ZM387.732 185.364L386.006 184.875L386.33 183.881L388.039 184.568L387.929 182.65H389.006L388.896 184.606L390.561 183.93L390.886 184.936L389.127 185.425L390.281 186.886L389.407 187.507L388.407 185.903L387.418 187.452L386.545 186.859L387.732 185.364Z" fill="black"/>
<path d="M373.528 189.002H370.637L370.088 190.65H368.335L371.313 182.65H372.841L375.835 190.65H374.083L373.528 189.002ZM371.082 187.667H373.083L372.077 184.672L371.082 187.667ZM376.583 190.65V182.65H379.385C380.356 182.65 381.092 182.837 381.594 183.21C382.096 183.58 382.347 184.124 382.347 184.842C382.347 185.234 382.246 185.581 382.045 185.881C381.843 186.178 381.563 186.396 381.204 186.535C381.614 186.637 381.936 186.844 382.171 187.156C382.409 187.467 382.528 187.848 382.528 188.299C382.528 189.068 382.283 189.65 381.792 190.046C381.301 190.442 380.601 190.643 379.693 190.65H376.583ZM378.231 187.167V189.326H379.643C380.032 189.326 380.334 189.235 380.55 189.051C380.77 188.865 380.88 188.608 380.88 188.282C380.88 187.55 380.5 187.178 379.742 187.167H378.231ZM378.231 186.002H379.451C380.283 185.987 380.698 185.656 380.698 185.007C380.698 184.645 380.592 184.385 380.38 184.227C380.171 184.066 379.839 183.985 379.385 183.985H378.231V186.002ZM398.99 189.002H396.1L395.551 190.65H393.798L396.776 182.65H398.304L401.298 190.65H399.545L398.99 189.002ZM396.545 187.667H398.545L397.54 184.672L396.545 187.667ZM406.859 187.183H403.694V189.326H407.408V190.65H402.045V182.65H407.397V183.985H403.694V185.892H406.859V187.183Z" fill="#008000"/>
<path d="M177.356 41.3928H15.7461L111.801 13.8848H177.356V41.3928Z" fill="#EDEDED"/>
<path d="M320.524 92.344H158.914L254.969 64.8359H320.524V92.344Z" fill="#EDEDED"/>
<g filter="url(#filter0_d)">
<path d="M187.203 14.0391V41.3908L282.075 14.0391H187.203Z" fill="#EDEDED"/>
</g>
<g opacity="0.5" filter="url(#filter1_d)">
<path d="M328.338 64.8359V92.1877L423.209 64.8359H328.338Z" fill="#EDEDED" fill-opacity="0.5"/>
<path d="M328.338 64.8359V92.1877L423.209 64.8359H328.338Z" stroke="black" stroke-width="1.25037" stroke-dasharray="1.56 1.56"/>
</g>
<g filter="url(#filter2_d)">
<path d="M134.219 64.9922V92.3439L229.09 64.9922H134.219Z" fill="#EDEDED"/>
</g>
<path d="M200.26 26.1581C200.566 25.8529 200.566 25.3581 200.26 25.0529L195.287 20.0796C194.982 19.7744 194.487 19.7744 194.182 20.0796C193.877 20.3848 193.877 20.8796 194.182 21.1848L198.603 25.6055L194.182 30.0262C193.877 30.3314 193.877 30.8262 194.182 31.1314C194.487 31.4365 194.982 31.4365 195.287 31.1314L200.26 26.1581ZM163.76 26.3869H199.708V24.824H163.76V26.3869Z" fill="black"/>
<path d="M154.288 78.2837C154.119 78.6808 154.303 79.1398 154.701 79.3089L161.172 82.064C161.569 82.233 162.028 82.0482 162.197 81.651C162.366 81.2539 162.181 80.795 161.784 80.6259L156.032 78.1769L158.481 72.4247C158.65 72.0276 158.465 71.5686 158.068 71.3996C157.671 71.2305 157.212 71.4154 157.043 71.8125L154.288 78.2837ZM345.844 78.5898C346.083 77.846 346.083 77.8459 346.083 77.8458C346.082 77.8457 346.082 77.8455 346.081 77.8453C346.08 77.8449 346.078 77.8444 346.076 77.8437C346.072 77.8424 346.066 77.8405 346.059 77.8381C346.043 77.8333 346.021 77.8264 345.992 77.8174C345.934 77.7993 345.848 77.773 345.734 77.739C345.505 77.671 345.163 77.572 344.704 77.4465C343.787 77.1956 342.403 76.8388 340.526 76.4114C336.772 75.5567 331.044 74.4197 323.126 73.2837C307.29 71.0117 282.695 68.7432 247.612 68.7432V70.3062C282.628 70.3062 307.148 72.5703 322.904 74.8308C330.782 75.9611 336.468 77.0904 340.179 77.9354C342.035 78.3579 343.397 78.7093 344.292 78.9541C344.739 79.0765 345.07 79.1723 345.288 79.2371C345.397 79.2694 345.477 79.294 345.53 79.3103C345.556 79.3185 345.575 79.3245 345.588 79.3284C345.594 79.3304 345.598 79.3318 345.601 79.3327C345.602 79.3331 345.603 79.3334 345.604 79.3336C345.604 79.3337 345.604 79.3337 345.604 79.3337C345.604 79.3337 345.604 79.3337 345.844 78.5898ZM247.612 68.7432C212.53 68.7432 189.337 71.0116 174.901 73.2853C167.682 74.4222 162.652 75.5607 159.418 76.418C157.801 76.8467 156.634 77.2052 155.866 77.4581C155.482 77.5846 155.199 77.6846 155.009 77.7539C154.914 77.7885 154.842 77.8155 154.794 77.8342C154.769 77.8435 154.75 77.8508 154.737 77.856C154.731 77.8585 154.726 77.8606 154.722 77.8621C154.72 77.8628 154.718 77.8634 154.717 77.8639C154.717 77.8642 154.716 77.8644 154.716 77.8645C154.715 77.8648 154.715 77.865 155.007 78.5898C155.299 79.3147 155.298 79.3149 155.298 79.3149C155.298 79.3149 155.298 79.315 155.298 79.3149C155.298 79.3149 155.299 79.3146 155.3 79.3143C155.301 79.3136 155.305 79.3124 155.309 79.3106C155.318 79.307 155.333 79.3013 155.353 79.2935C155.394 79.2779 155.457 79.2539 155.544 79.2222C155.718 79.1587 155.987 79.064 156.355 78.9426C157.092 78.6997 158.23 78.35 159.819 77.9288C162.996 77.0864 167.973 75.9586 175.144 74.8292C189.486 72.5704 212.595 70.3062 247.612 70.3062V68.7432Z" fill="black"/>
<path d="M548.179 187.055V179.054H550.981C551.952 179.054 552.689 179.241 553.19 179.615C553.692 179.985 553.943 180.529 553.943 181.247C553.943 181.639 553.842 181.985 553.641 182.285C553.439 182.582 553.159 182.8 552.8 182.939C553.211 183.042 553.533 183.249 553.767 183.56C554.005 183.871 554.125 184.252 554.125 184.703C554.125 185.472 553.879 186.055 553.388 186.45C552.897 186.846 552.198 187.047 551.289 187.055H548.179ZM549.828 183.571V185.73H551.24C551.628 185.73 551.93 185.639 552.146 185.456C552.366 185.269 552.476 185.012 552.476 184.686C552.476 183.954 552.097 183.582 551.339 183.571H549.828ZM549.828 182.406H551.047C551.879 182.391 552.295 182.06 552.295 181.412C552.295 181.049 552.189 180.789 551.976 180.631C551.767 180.47 551.436 180.39 550.981 180.39H549.828V182.406Z" fill="black"/>
<defs>
<filter id="filter0_d" x="185.64" y="12.4761" width="97.9974" height="30.4777" filterUnits="userSpaceOnUse" color-interpolation-filters="sRGB">
<feFlood flood-opacity="0" result="BackgroundImageFix"/>
<feColorMatrix in="SourceAlpha" type="matrix" values="0 0 0 0 0 0 0 0 0 0 0 0 0 0 0 0 0 0 127 0"/>
<feOffset/>
<feGaussianBlur stdDeviation="0.781479"/>
<feColorMatrix type="matrix" values="0 0 0 0 0 0 0 0 0 0 0 0 0 0 0 0 0 0 0.1 0"/>
<feBlend mode="normal" in2="BackgroundImageFix" result="effect1_dropShadow"/>
<feBlend mode="normal" in="SourceGraphic" in2="effect1_dropShadow" result="shape"/>
</filter>
<filter id="filter1_d" x="326.15" y="62.648" width="98.7958" height="31.9337" filterUnits="userSpaceOnUse" color-interpolation-filters="sRGB">
<feFlood flood-opacity="0" result="BackgroundImageFix"/>
<feColorMatrix in="SourceAlpha" type="matrix" values="0 0 0 0 0 0 0 0 0 0 0 0 0 0 0 0 0 0 127 0"/>
<feOffset/>
<feGaussianBlur stdDeviation="0.781479"/>
<feColorMatrix type="matrix" values="0 0 0 0 0 0 0 0 0 0 0 0 0 0 0 0 0 0 0.1 0"/>
<feBlend mode="normal" in2="BackgroundImageFix" result="effect1_dropShadow"/>
<feBlend mode="normal" in="SourceGraphic" in2="effect1_dropShadow" result="shape"/>
</filter>
<filter id="filter2_d" x="132.656" y="63.4292" width="97.9974" height="30.4777" filterUnits="userSpaceOnUse" color-interpolation-filters="sRGB">
<feFlood flood-opacity="0" result="BackgroundImageFix"/>
<feColorMatrix in="SourceAlpha" type="matrix" values="0 0 0 0 0 0 0 0 0 0 0 0 0 0 0 0 0 0 127 0"/>
<feOffset/>
<feGaussianBlur stdDeviation="0.781479"/>
<feColorMatrix type="matrix" values="0 0 0 0 0 0 0 0 0 0 0 0 0 0 0 0 0 0 0.1 0"/>
<feBlend mode="normal" in2="BackgroundImageFix" result="effect1_dropShadow"/>
<feBlend mode="normal" in="SourceGraphic" in2="effect1_dropShadow" result="shape"/>
</filter>
</defs>
</svg>
