<svg width="577" height="205" viewBox="0 0 577 205" fill="none" xmlns="http://www.w3.org/2000/svg">
<rect width="577" height="205" fill="white"/>
<line x1="200.684" y1="169.892" x2="551.255" y2="169.892" stroke="black" stroke-width="1.56296"/>
<path d="M202.006 184.811H199.116L198.567 186.459H196.814L199.792 178.459H201.32L204.314 186.459H202.561L202.006 184.811ZM199.561 183.475H201.561L200.556 180.481L199.561 183.475Z" fill="black"/>
<path d="M428.151 98.5914H424.986V100.734H428.7V102.059H423.337V94.0582H428.689V95.3934H424.986V97.3001H428.151V98.5914Z" fill="black"/>
<path d="M548.062 186.77V178.769H550.864C551.835 178.769 552.571 178.956 553.073 179.33C553.575 179.7 553.826 180.244 553.826 180.962C553.826 181.354 553.725 181.7 553.524 182C553.322 182.297 553.042 182.515 552.683 182.654C553.093 182.757 553.416 182.963 553.65 183.275C553.888 183.586 554.007 183.967 554.007 184.418C554.007 185.187 553.762 185.769 553.271 186.165C552.78 186.561 552.08 186.762 551.172 186.77H548.062ZM549.71 183.286V185.445H551.123C551.511 185.445 551.813 185.354 552.029 185.171C552.249 184.984 552.359 184.727 552.359 184.401C552.359 183.669 551.98 183.297 551.221 183.286H549.71ZM549.71 182.121H550.93C551.762 182.106 552.178 181.775 552.178 181.126C552.178 180.764 552.071 180.504 551.859 180.346C551.65 180.185 551.319 180.104 550.864 180.104H549.71V182.121Z" fill="black"/>
<circle cx="425.906" cy="112.846" r="6.87701" fill="#FF0000"/>
<line x1="426.063" y1="112.846" x2="426.063" y2="170.675" stroke="#0000FF" stroke-width="1.56296"/>
<circle cx="426.531" cy="112.846" r="6.87701" fill="#FF0000"/>
<path d="M419.7 115.279C419.921 114.909 419.8 114.429 419.43 114.208L413.392 110.6C413.021 110.379 412.542 110.5 412.32 110.87C412.099 111.241 412.22 111.72 412.59 111.942L417.957 115.148L414.75 120.515C414.529 120.886 414.65 121.366 415.02 121.587C415.391 121.808 415.871 121.687 416.092 121.317L419.7 115.279ZM200.875 170.652L419.22 115.636L418.838 114.121L200.493 169.137L200.875 170.652Z" fill="#008000"/>
<path d="M314.274 134.605L311.46 135.264L311.301 136.995L309.594 137.394L310.67 128.925L312.158 128.577L316.897 135.685L315.19 136.084L314.274 134.605ZM311.589 133.863L313.537 133.407L311.875 130.72L311.589 133.863ZM321.521 131.041L318.439 131.763L318.928 133.849L322.545 133.003L322.846 134.292L317.625 135.514L315.801 127.724L321.012 126.505L321.316 127.805L317.71 128.649L318.145 130.505L321.227 129.784L321.521 131.041Z" fill="#008000"/>
<rect x="200.684" y="114.096" width="350.259" height="55.7976" fill="#C4C4C4" fill-opacity="0.3"/>
<path d="M337.672 188.717H334.782L334.233 190.365H332.48L335.458 182.365H336.986L339.98 190.365H338.227L337.672 188.717ZM335.227 187.382H337.227L336.222 184.387L335.227 187.382ZM343.964 185.909C343.748 185.88 343.557 185.865 343.392 185.865C342.792 185.865 342.398 186.068 342.211 186.475V190.365H340.623V184.42H342.123L342.167 185.129C342.486 184.583 342.927 184.31 343.491 184.31C343.667 184.31 343.832 184.334 343.986 184.381L343.964 185.909ZM347.36 190.475C346.488 190.475 345.777 190.208 345.228 189.673C344.682 189.138 344.409 188.426 344.409 187.535V187.382C344.409 186.784 344.524 186.251 344.755 185.783C344.986 185.31 345.312 184.947 345.733 184.695C346.158 184.438 346.642 184.31 347.184 184.31C347.997 184.31 348.636 184.566 349.102 185.079C349.57 185.592 349.805 186.319 349.805 187.261V187.909H346.019C346.07 188.297 346.224 188.609 346.481 188.843C346.741 189.078 347.068 189.195 347.464 189.195C348.076 189.195 348.554 188.973 348.898 188.53L349.679 189.404C349.44 189.741 349.118 190.004 348.711 190.195C348.305 190.382 347.854 190.475 347.36 190.475ZM347.178 185.596C346.863 185.596 346.607 185.702 346.409 185.914C346.215 186.127 346.09 186.431 346.035 186.827H348.244V186.7C348.237 186.349 348.142 186.077 347.959 185.887C347.775 185.693 347.515 185.596 347.178 185.596ZM354.157 190.365C354.083 190.222 354.03 190.045 353.997 189.832C353.613 190.261 353.113 190.475 352.497 190.475C351.915 190.475 351.431 190.307 351.047 189.97C350.666 189.633 350.475 189.208 350.475 188.695C350.475 188.065 350.708 187.581 351.173 187.244C351.642 186.907 352.318 186.737 353.201 186.733H353.931V186.393C353.931 186.118 353.86 185.898 353.717 185.733C353.578 185.568 353.356 185.486 353.052 185.486C352.785 185.486 352.574 185.55 352.42 185.678C352.27 185.806 352.195 185.982 352.195 186.206H350.607C350.607 185.861 350.713 185.543 350.926 185.25C351.138 184.957 351.439 184.728 351.827 184.563C352.215 184.394 352.651 184.31 353.135 184.31C353.867 184.31 354.448 184.495 354.877 184.865C355.309 185.231 355.525 185.748 355.525 186.414V188.992C355.529 189.556 355.607 189.982 355.761 190.272V190.365H354.157ZM352.843 189.261C353.078 189.261 353.294 189.21 353.492 189.107C353.69 189.001 353.836 188.86 353.931 188.684V187.662H353.338C352.543 187.662 352.12 187.937 352.069 188.486L352.063 188.579C352.063 188.777 352.133 188.94 352.272 189.068C352.411 189.197 352.602 189.261 352.843 189.261Z" fill="#808080"/>
<path d="M364.597 186.266H359.684V184.969H364.597V186.266ZM364.597 188.645H359.684V187.349H364.597V188.645ZM373.41 188.717H370.52L369.971 190.365H368.218L371.196 182.365H372.724L375.718 190.365H373.965L373.41 188.717ZM370.965 187.382H372.965L371.96 184.387L370.965 187.382ZM376.466 190.365V182.365H379.268C380.239 182.365 380.975 182.552 381.477 182.925C381.979 183.295 382.23 183.839 382.23 184.557C382.23 184.949 382.129 185.295 381.927 185.596C381.726 185.892 381.446 186.11 381.087 186.25C381.497 186.352 381.819 186.559 382.054 186.871C382.292 187.182 382.411 187.563 382.411 188.013C382.411 188.783 382.165 189.365 381.675 189.761C381.184 190.156 380.484 190.358 379.576 190.365H376.466ZM378.114 186.882V189.041H379.526C379.914 189.041 380.217 188.949 380.433 188.766C380.653 188.579 380.762 188.323 380.762 187.997C380.762 187.264 380.383 186.893 379.625 186.882H378.114ZM378.114 185.717H379.334C380.165 185.702 380.581 185.37 380.581 184.722C380.581 184.359 380.475 184.099 380.262 183.942C380.054 183.781 379.722 183.7 379.268 183.7H378.114V185.717ZM387.614 185.079L385.889 184.59L386.213 183.596L387.922 184.283L387.812 182.365H388.889L388.779 184.321L390.444 183.645L390.768 184.651L389.01 185.14L390.164 186.601L389.29 187.222L388.29 185.618L387.301 187.167L386.428 186.574L387.614 185.079Z" fill="black"/>
<path d="M398.873 188.717H395.983L395.433 190.365H393.681L396.659 182.365H398.186L401.181 190.365H399.428L398.873 188.717ZM396.428 187.382H398.428L397.423 184.387L396.428 187.382ZM406.742 186.898H403.577V189.041H407.291V190.365H401.928V182.365H407.28V183.7H403.577V185.607H406.742V186.898Z" fill="#008000"/>
<path d="M177.239 41.1077H15.6289L111.684 13.5996H177.239V41.1077Z" fill="#EDEDED"/>
<path d="M320.407 92.0588H158.797L254.852 64.5508H320.407V92.0588Z" fill="#EDEDED"/>
<g filter="url(#filter0_d)">
<path d="M187.086 13.7539V41.1057L281.957 13.7539H187.086Z" fill="#EDEDED"/>
</g>
<g opacity="0.5" filter="url(#filter1_d)">
<path d="M328.221 64.5508V91.9025L423.092 64.5508H328.221Z" fill="#EDEDED" fill-opacity="0.5"/>
<path d="M328.221 64.5508V91.9025L423.092 64.5508H328.221Z" stroke="black" stroke-width="1.25037" stroke-dasharray="1.56 1.56"/>
</g>
<g filter="url(#filter2_d)">
<path d="M134.102 64.707V92.0588L228.973 64.707H134.102Z" fill="#EDEDED"/>
</g>
<path d="M200.143 25.8729C200.448 25.5677 200.448 25.0729 200.143 24.7677L195.17 19.7944C194.865 19.4892 194.37 19.4892 194.065 19.7944C193.76 20.0996 193.76 20.5944 194.065 20.8996L198.485 25.3203L194.065 29.741C193.76 30.0462 193.76 30.541 194.065 30.8462C194.37 31.1514 194.865 31.1514 195.17 30.8462L200.143 25.8729ZM163.643 26.1018H199.591V24.5388H163.643V26.1018Z" fill="black"/>
<path d="M154.17 77.9986C154.001 78.3957 154.186 78.8546 154.583 79.0237L161.055 81.7788C161.452 81.9479 161.911 81.763 162.08 81.3659C162.249 80.9688 162.064 80.5098 161.667 80.3407L155.915 77.8918L158.364 72.1396C158.533 71.7425 158.348 71.2835 157.951 71.1144C157.554 70.9454 157.095 71.1302 156.926 71.5273L154.17 77.9986ZM345.727 78.3047C345.966 77.5609 345.966 77.5608 345.965 77.5606C345.965 77.5605 345.964 77.5603 345.964 77.5601C345.963 77.5597 345.961 77.5592 345.959 77.5585C345.955 77.5572 345.949 77.5554 345.941 77.553C345.926 77.5482 345.904 77.5412 345.875 77.5322C345.817 77.5142 345.731 77.4879 345.616 77.4538C345.388 77.3858 345.046 77.2868 344.587 77.1614C343.67 76.9105 342.286 76.5537 340.409 76.1263C336.655 75.2715 330.927 74.1346 323.009 72.9986C307.173 70.7265 282.578 68.4581 247.495 68.4581V70.021C282.51 70.021 307.031 72.2851 322.787 74.5457C330.664 75.6759 336.351 76.8053 340.062 77.6502C341.918 78.0727 343.279 78.4241 344.175 78.669C344.622 78.7914 344.953 78.8872 345.171 78.9519C345.279 78.9843 345.36 79.0089 345.412 79.0252C345.439 79.0333 345.458 79.0394 345.47 79.0433C345.477 79.0452 345.481 79.0467 345.484 79.0475C345.485 79.048 345.486 79.0483 345.487 79.0484C345.487 79.0485 345.487 79.0485 345.487 79.0486C345.487 79.0486 345.487 79.0485 345.727 78.3047ZM247.495 68.4581C212.413 68.4581 189.22 70.7264 174.784 73.0001C167.565 74.1371 162.535 75.2755 159.301 76.1329C157.684 76.5616 156.517 76.92 155.749 77.1729C155.365 77.2994 155.081 77.3995 154.891 77.4688C154.797 77.5034 154.725 77.5303 154.676 77.549C154.652 77.5584 154.633 77.5657 154.62 77.5708C154.614 77.5734 154.608 77.5754 154.605 77.5769C154.603 77.5777 154.601 77.5783 154.6 77.5788C154.599 77.579 154.599 77.5793 154.599 77.5794C154.598 77.5796 154.598 77.5798 154.889 78.3047C155.181 79.0296 155.181 79.0297 155.181 79.0298C155.181 79.0298 155.181 79.0298 155.181 79.0298C155.181 79.0297 155.182 79.0295 155.183 79.0291C155.184 79.0285 155.187 79.0272 155.192 79.0254C155.201 79.0219 155.216 79.0161 155.236 79.0083C155.277 78.9927 155.34 78.9688 155.427 78.937C155.601 78.8735 155.87 78.7788 156.238 78.6574C156.975 78.4146 158.113 78.0648 159.702 77.6436C162.879 76.8013 167.856 75.6734 175.027 74.5441C189.368 72.2852 212.478 70.021 247.495 70.021V68.4581Z" fill="black"/>
<defs>
<filter id="filter0_d" x="185.523" y="12.1909" width="97.9974" height="30.4777" filterUnits="userSpaceOnUse" color-interpolation-filters="sRGB">
<feFlood flood-opacity="0" result="BackgroundImageFix"/>
<feColorMatrix in="SourceAlpha" type="matrix" values="0 0 0 0 0 0 0 0 0 0 0 0 0 0 0 0 0 0 127 0"/>
<feOffset/>
<feGaussianBlur stdDeviation="0.781479"/>
<feColorMatrix type="matrix" values="0 0 0 0 0 0 0 0 0 0 0 0 0 0 0 0 0 0 0.1 0"/>
<feBlend mode="normal" in2="BackgroundImageFix" result="effect1_dropShadow"/>
<feBlend mode="normal" in="SourceGraphic" in2="effect1_dropShadow" result="shape"/>
</filter>
<filter id="filter1_d" x="326.033" y="62.3628" width="98.7958" height="31.9337" filterUnits="userSpaceOnUse" color-interpolation-filters="sRGB">
<feFlood flood-opacity="0" result="BackgroundImageFix"/>
<feColorMatrix in="SourceAlpha" type="matrix" values="0 0 0 0 0 0 0 0 0 0 0 0 0 0 0 0 0 0 127 0"/>
<feOffset/>
<feGaussianBlur stdDeviation="0.781479"/>
<feColorMatrix type="matrix" values="0 0 0 0 0 0 0 0 0 0 0 0 0 0 0 0 0 0 0.1 0"/>
<feBlend mode="normal" in2="BackgroundImageFix" result="effect1_dropShadow"/>
<feBlend mode="normal" in="SourceGraphic" in2="effect1_dropShadow" result="shape"/>
</filter>
<filter id="filter2_d" x="132.539" y="63.1441" width="97.9974" height="30.4777" filterUnits="userSpaceOnUse" color-interpolation-filters="sRGB">
<feFlood flood-opacity="0" result="BackgroundImageFix"/>
<feColorMatrix in="SourceAlpha" type="matrix" values="0 0 0 0 0 0 0 0 0 0 0 0 0 0 0 0 0 0 127 0"/>
<feOffset/>
<feGaussianBlur stdDeviation="0.781479"/>
<feColorMatrix type="matrix" values="0 0 0 0 0 0 0 0 0 0 0 0 0 0 0 0 0 0 0.1 0"/>
<feBlend mode="normal" in2="BackgroundImageFix" result="effect1_dropShadow"/>
<feBlend mode="normal" in="SourceGraphic" in2="effect1_dropShadow" result="shape"/>
</filter>
</defs>
</svg>
