<svg width="577" height="205" viewBox="0 0 577 205" fill="none" xmlns="http://www.w3.org/2000/svg">
<rect width="577" height="205" fill="white"/>
<line x1="104.719" y1="107.688" x2="455.29" y2="107.688" stroke="black" stroke-width="1.56296"/>
<path d="M106.042 122.916H103.151L102.602 124.564H100.849L103.827 116.564H105.355L108.349 124.564H106.597L106.042 122.916ZM103.596 121.581H105.596L104.591 118.586L103.596 121.581Z" fill="black"/>
<path d="M332.186 36.3853H329.021V38.5283H332.735V39.8525H327.373V31.8522H332.724V33.1874H329.021V35.0941H332.186V36.3853Z" fill="black"/>
<path d="M452.095 124.564V116.564H454.898C455.868 116.564 456.605 116.751 457.106 117.125C457.608 117.495 457.859 118.038 457.859 118.756C457.859 119.148 457.758 119.495 457.557 119.795C457.356 120.092 457.075 120.31 456.716 120.449C457.127 120.551 457.449 120.758 457.683 121.07C457.921 121.381 458.041 121.762 458.041 122.213C458.041 122.982 457.795 123.564 457.304 123.96C456.813 124.356 456.114 124.557 455.205 124.564H452.095ZM453.744 121.081V123.24H455.156C455.544 123.24 455.846 123.149 456.062 122.965C456.282 122.779 456.392 122.522 456.392 122.196C456.392 121.464 456.013 121.092 455.255 121.081H453.744ZM453.744 119.916H454.963C455.795 119.901 456.211 119.57 456.211 118.921C456.211 118.559 456.105 118.299 455.892 118.141C455.683 117.98 455.352 117.899 454.898 117.899H453.744V119.916Z" fill="black"/>
<circle cx="329.941" cy="50.6397" r="6.87701" fill="#FF0000"/>
<line x1="330.314" y1="50.6396" x2="330.314" y2="108.469" stroke="#0000FF" stroke-width="2" stroke-dasharray="5 5"/>
<circle cx="204.436" cy="172.863" r="6.87701" fill="#FF0000"/>
<line x1="204.809" y1="108.157" x2="204.809" y2="165.987" stroke="#0000FF" stroke-width="2" stroke-dasharray="5 5"/>
<line x1="287.332" y1="108.157" x2="287.332" y2="126.131" stroke="#0000FF" stroke-width="2" stroke-dasharray="5 5"/>
<line x1="454.103" y1="107.312" x2="510.682" y2="143.104" stroke="#0000FF" stroke-width="2" stroke-dasharray="5 5"/>
<line x1="104.653" y1="108.533" x2="48.0738" y2="72.7409" stroke="#0000FF" stroke-width="2" stroke-dasharray="5 5"/>
<circle cx="510.15" cy="143.948" r="6.87701" fill="#FF0000"/>
<circle cx="48.6074" cy="71.8964" r="6.87701" transform="rotate(180 48.6074 71.8964)" fill="#FF0000"/>
<line x1="454.103" y1="107.312" x2="510.682" y2="143.104" stroke="#0000FF" stroke-width="2" stroke-dasharray="5 5"/>
<line x1="104.653" y1="108.533" x2="48.0738" y2="72.7409" stroke="#0000FF" stroke-width="2" stroke-dasharray="5 5"/>
<circle cx="510.15" cy="143.948" r="6.87701" fill="#FF0000"/>
<circle cx="48.6074" cy="71.8964" r="6.87701" transform="rotate(180 48.6074 71.8964)" fill="#FF0000"/>
<circle cx="286.959" cy="125.036" r="6.87701" fill="#FF0000"/>
<circle cx="330.565" cy="50.6397" r="6.87701" fill="#FF0000"/>
</svg>
