<svg width="577" height="205" viewBox="0 0 577 205" fill="none" xmlns="http://www.w3.org/2000/svg">
<g clip-path="url(#clip0)">
<rect width="577" height="205" fill="white"/>
<line x1="104.719" y1="130.475" x2="455.29" y2="130.475" stroke="black" stroke-width="1.56296"/>
<path d="M106.042 145.704H103.151L102.602 147.353H100.849L103.827 139.352H105.355L108.349 147.353H106.597L106.042 145.704ZM103.596 144.369H105.596L104.591 141.374L103.596 144.369Z" fill="black"/>
<path d="M332.186 59.1724H329.021V61.3154H332.735V62.6396H327.373V54.6393H332.724V55.9745H329.021V57.8812H332.186V59.1724Z" fill="black"/>
<path d="M452.095 124.565V116.565H454.898C455.868 116.565 456.605 116.752 457.106 117.126C457.608 117.495 457.859 118.039 457.859 118.757C457.859 119.149 457.758 119.496 457.557 119.796C457.356 120.093 457.075 120.311 456.716 120.45C457.127 120.552 457.449 120.759 457.683 121.071C457.921 121.382 458.041 121.763 458.041 122.214C458.041 122.983 457.795 123.565 457.304 123.961C456.813 124.357 456.114 124.558 455.205 124.565H452.095ZM453.744 121.082V123.241H455.156C455.544 123.241 455.846 123.15 456.062 122.966C456.282 122.78 456.392 122.523 456.392 122.197C456.392 121.465 456.013 121.093 455.255 121.082H453.744ZM453.744 119.917H454.963C455.795 119.902 456.211 119.571 456.211 118.922C456.211 118.56 456.105 118.3 455.892 118.142C455.683 117.981 455.352 117.9 454.898 117.9H453.744V119.917Z" fill="black"/>
<circle cx="329.941" cy="73.4268" r="6.87701" fill="#FF0000"/>
<line x1="330.314" y1="73.4268" x2="330.314" y2="131.256" stroke="#0000FF" stroke-width="2" stroke-dasharray="5 5"/>
<circle cx="330.565" cy="73.4268" r="6.87701" fill="#FF0000"/>
<path d="M323.735 75.8603C323.956 75.4898 323.835 75.01 323.465 74.7886L317.427 71.1812C317.057 70.9598 316.577 71.0807 316.355 71.4512C316.134 71.8217 316.255 72.3015 316.625 72.5229L321.992 75.7295L318.786 81.0964C318.564 81.4669 318.685 81.9467 319.056 82.168C319.426 82.3894 319.906 82.2685 320.127 81.898L323.735 75.8603ZM104.91 131.233L323.255 76.2173L322.873 74.7017L104.528 129.718L104.91 131.233Z" fill="#008000"/>
<path d="M218.309 95.1866L215.495 95.8453L215.336 97.5756L213.629 97.9751L214.705 89.5065L216.193 89.1583L220.932 96.2656L219.225 96.6651L218.309 95.1866ZM215.624 94.4438L217.572 93.9879L215.91 91.3013L215.624 94.4438ZM225.556 91.6222L222.475 92.3436L222.963 94.4302L226.58 93.5836L226.881 94.8729L221.66 96.0953L219.836 88.3055L225.047 87.0856L225.352 88.3857L221.746 89.2298L222.18 91.0863L225.262 90.365L225.556 91.6222Z" fill="#008000"/>
</g>
<defs>
<clipPath id="clip0">
<rect width="577" height="205" fill="white"/>
</clipPath>
</defs>
</svg>
