<svg width="577" height="204" viewBox="0 0 577 204" fill="none" xmlns="http://www.w3.org/2000/svg">
<g clip-path="url(#clip0)">
<rect width="577" height="204" fill="white"/>
<path d="M93.6814 131.747C93.6814 130.908 93.7931 130.11 94.0165 129.351C94.24 128.593 94.5697 127.923 95.0056 127.34C95.4415 126.754 95.9141 126.348 96.4232 126.12L96.7309 126.978C96.1961 127.373 95.7785 127.985 95.4781 128.813C95.1778 129.641 95.0276 130.608 95.0276 131.714V131.884C95.0276 132.994 95.1759 133.965 95.4726 134.797C95.7694 135.628 96.1888 136.249 96.7309 136.659L96.4232 137.5C95.9251 137.277 95.4598 136.881 95.0276 136.313C94.599 135.749 94.2711 135.097 94.044 134.357C93.8169 133.617 93.696 132.844 93.6814 132.038V131.747ZM101.358 135H99.7696V128.879L97.8739 129.467V128.175L101.187 126.989H101.358V135ZM104.44 137.006L103.61 136.572L103.808 136.214C104.054 135.767 104.18 135.322 104.187 134.879V133.648H105.528L105.523 134.747C105.519 135.154 105.416 135.564 105.215 135.978C105.013 136.392 104.755 136.735 104.44 137.006ZM111.127 130.296H111.973C112.376 130.296 112.675 130.196 112.869 129.994C113.063 129.793 113.16 129.525 113.16 129.192C113.16 128.87 113.063 128.619 112.869 128.439C112.679 128.26 112.415 128.17 112.078 128.17C111.774 128.17 111.519 128.254 111.314 128.423C111.109 128.588 111.006 128.804 111.006 129.071H109.418C109.418 128.654 109.53 128.28 109.754 127.95C109.981 127.617 110.296 127.357 110.699 127.17C111.105 126.983 111.552 126.89 112.039 126.89C112.886 126.89 113.549 127.093 114.028 127.5C114.508 127.903 114.748 128.459 114.748 129.17C114.748 129.536 114.637 129.873 114.413 130.181C114.19 130.489 113.897 130.725 113.534 130.89C113.985 131.051 114.32 131.293 114.54 131.615C114.763 131.938 114.875 132.319 114.875 132.758C114.875 133.469 114.615 134.038 114.094 134.467C113.578 134.896 112.893 135.11 112.039 135.11C111.241 135.11 110.587 134.899 110.078 134.478C109.572 134.057 109.319 133.5 109.319 132.808H110.907C110.907 133.108 111.019 133.353 111.243 133.544C111.47 133.734 111.748 133.83 112.078 133.83C112.455 133.83 112.75 133.731 112.963 133.533C113.179 133.331 113.287 133.066 113.287 132.736C113.287 131.938 112.847 131.538 111.968 131.538H111.127V130.296ZM118.776 131.873C118.776 132.701 118.657 133.498 118.419 134.264C118.181 135.029 117.838 135.705 117.391 136.291C116.944 136.877 116.466 137.28 115.957 137.5L115.649 136.659C116.17 136.267 116.58 135.663 116.88 134.846C117.181 134.029 117.336 133.09 117.347 132.027V131.736C117.347 130.641 117.197 129.676 116.897 128.84C116.6 128.005 116.184 127.379 115.649 126.961L115.957 126.12C116.455 126.337 116.924 126.729 117.364 127.296C117.807 127.864 118.15 128.525 118.391 129.28C118.637 130.035 118.765 130.817 118.776 131.626V131.873Z" fill="black"/>
<path d="M467.681 48.7471C467.681 47.9082 467.793 47.1097 468.017 46.3514C468.24 45.5931 468.57 44.9227 469.006 44.3403C469.442 43.7542 469.914 43.3476 470.423 43.1204L470.731 43.9776C470.196 44.3733 469.779 44.985 469.478 45.8129C469.178 46.6408 469.028 47.6078 469.028 48.7141V48.8845C469.028 49.9944 469.176 50.9652 469.473 51.7967C469.769 52.6282 470.189 53.2491 470.731 53.6594L470.423 54.5001C469.925 54.2767 469.46 53.881 469.028 53.3133C468.599 52.7491 468.271 52.0971 468.044 51.3571C467.817 50.6171 467.696 49.8442 467.681 49.0383V48.7471ZM475.358 52H473.77V45.8788L471.874 46.4668V45.1755L475.187 43.9886H475.358V52ZM483.446 52H477.962V50.912L480.55 48.1537C480.905 47.7654 481.167 47.4265 481.336 47.1371C481.508 46.8477 481.594 46.573 481.594 46.3129C481.594 45.9576 481.504 45.6792 481.325 45.4777C481.145 45.2726 480.889 45.17 480.556 45.17C480.197 45.17 479.913 45.2945 479.704 45.5436C479.499 45.7891 479.396 46.1133 479.396 46.5162H477.803C477.803 46.029 477.918 45.5839 478.149 45.181C478.383 44.778 478.713 44.463 479.138 44.2359C479.563 44.0051 480.045 43.8897 480.583 43.8897C481.407 43.8897 482.047 44.0875 482.501 44.4832C482.959 44.8788 483.188 45.4374 483.188 46.1591C483.188 46.5547 483.085 46.9576 482.88 47.3679C482.675 47.7782 482.323 48.2562 481.825 48.802L480.006 50.7197H483.446V52ZM484.902 54.0056L484.072 53.5715L484.27 53.2143C484.516 52.7674 484.642 52.3224 484.649 51.8791V50.6483H485.99L485.984 51.7472C485.981 52.1539 485.878 52.5641 485.677 52.9781C485.475 53.392 485.217 53.7345 484.902 54.0056ZM490.21 48.0657L490.671 43.9996H495.155V45.3239H491.974L491.776 47.0437C492.153 46.8422 492.554 46.7415 492.979 46.7415C493.741 46.7415 494.338 46.9778 494.771 47.4503C495.203 47.9229 495.419 48.5841 495.419 49.4339C495.419 49.9505 495.309 50.4138 495.089 50.8241C494.873 51.2307 494.562 51.5476 494.155 51.7747C493.749 51.9982 493.269 52.1099 492.716 52.1099C492.232 52.1099 491.783 52.0128 491.369 51.8187C490.955 51.6209 490.628 51.3443 490.386 50.989C490.148 50.6336 490.021 50.2289 490.007 49.7746H491.578C491.611 50.108 491.726 50.3681 491.924 50.5549C492.126 50.738 492.388 50.8296 492.71 50.8296C493.069 50.8296 493.346 50.7014 493.54 50.445C493.734 50.1849 493.831 49.8186 493.831 49.346C493.831 48.8918 493.719 48.5438 493.496 48.302C493.272 48.0602 492.955 47.9394 492.545 47.9394C492.168 47.9394 491.862 48.0383 491.628 48.2361L491.474 48.3789L490.21 48.0657ZM499.238 48.8735C499.238 49.7014 499.119 50.4981 498.881 51.2637C498.643 52.0293 498.3 52.7052 497.853 53.2913C497.406 53.8774 496.928 54.2803 496.419 54.5001L496.111 53.6594C496.631 53.2675 497.042 52.663 497.342 51.8461C497.643 51.0293 497.798 50.0897 497.809 49.0273V48.7361C497.809 47.6408 497.659 46.6756 497.359 45.8404C497.062 45.0052 496.646 44.3788 496.111 43.9611L496.419 43.1204C496.917 43.3366 497.386 43.7285 497.826 44.2963C498.269 44.8641 498.611 45.5253 498.853 46.2799C499.099 47.0346 499.227 47.8166 499.238 48.6262V48.8735Z" fill="black"/>
<path d="M249.997 82.0694L247.183 82.7281L247.023 84.4584L245.317 84.8579L246.393 76.3893L247.88 76.0411L252.62 83.1484L250.913 83.5479L249.997 82.0694ZM247.312 81.3266L249.259 80.8707L247.598 78.1841L247.312 81.3266ZM257.244 78.5051L254.162 79.2264L254.65 81.313L258.267 80.4664L258.569 81.7558L253.347 82.9781L251.524 75.1883L256.735 73.9685L257.039 75.2685L253.433 76.1126L253.868 77.9691L256.949 77.2478L257.244 78.5051Z" fill="#008000"/>
<line x1="69" y1="120.75" x2="504" y2="120.75" stroke="#999999" stroke-width="0.5"/>
<line x1="69" y1="88.75" x2="504" y2="88.75" stroke="#999999" stroke-width="0.5"/>
<line x1="69" y1="183.75" x2="504" y2="183.75" stroke="#999999" stroke-width="0.5"/>
<line x1="69" y1="57.75" x2="504" y2="57.75" stroke="#999999" stroke-width="0.5"/>
<line x1="69" y1="152.75" x2="504" y2="152.75" stroke="#999999" stroke-width="0.5"/>
<path d="M462.641 58.4466C462.888 58.0924 462.801 57.6053 462.447 57.3587L456.675 53.3394C456.321 53.0927 455.834 53.1799 455.587 53.5341C455.34 53.8883 455.428 54.3753 455.782 54.622L460.912 58.1947L457.339 63.3251C457.093 63.6793 457.18 64.1663 457.534 64.413C457.888 64.6596 458.375 64.5725 458.622 64.2183L462.641 58.4466ZM110.138 121.769L462.138 58.7693L461.862 57.2307L109.862 120.231L110.138 121.769Z" fill="#008000"/>
<line x1="69" y1="25.75" x2="504" y2="25.75" stroke="#999999" stroke-width="0.5"/>
<line x1="109.25" y1="-13" x2="109.25" y2="191" stroke="#999999" stroke-width="0.5"/>
<line x1="77.25" y1="-13" x2="77.25" y2="191" stroke="#999999" stroke-width="0.5"/>
<line x1="365.25" y1="-13" x2="365.25" y2="191" stroke="#999999" stroke-width="0.5"/>
<line x1="237.25" y1="-13" x2="237.25" y2="191" stroke="#999999" stroke-width="0.5"/>
<line x1="173.25" y1="-13" x2="173.25" y2="191" stroke="#999999" stroke-width="0.5"/>
<line x1="429.25" y1="-13" x2="429.25" y2="191" stroke="#999999" stroke-width="0.5"/>
<line x1="493.25" y1="-13" x2="493.25" y2="191" stroke="#999999" stroke-width="0.5"/>
<line x1="301.25" y1="-13" x2="301.25" y2="191" stroke="#999999" stroke-width="0.5"/>
<line x1="141.25" y1="-13" x2="141.25" y2="191" stroke="#999999" stroke-width="0.5"/>
<line x1="397.25" y1="-13" x2="397.25" y2="191" stroke="#999999" stroke-width="0.5"/>
<line x1="269.25" y1="-13" x2="269.25" y2="191" stroke="#999999" stroke-width="0.5"/>
<line x1="205.25" y1="-13" x2="205.25" y2="191" stroke="#999999" stroke-width="0.5"/>
<line x1="461.25" y1="-13" x2="461.25" y2="191" stroke="#999999" stroke-width="0.5"/>
<line x1="333.25" y1="-13" x2="333.25" y2="191" stroke="#999999" stroke-width="0.5"/>
</g>
<defs>
<clipPath id="clip0">
<rect width="577" height="204" fill="white"/>
</clipPath>
</defs>
</svg>
