<svg width="577" height="204" viewBox="0 0 577 204" fill="none" xmlns="http://www.w3.org/2000/svg">
<rect width="577" height="204" fill="white"/>
<line x1="104.719" y1="107.688" x2="455.29" y2="107.688" stroke="black" stroke-width="1.56296"/>
<circle cx="48.6074" cy="71.8974" r="6.87701" transform="rotate(180 48.6074 71.8974)" fill="#FF0000"/>
<circle cx="463.76" cy="168.933" r="6.87701" fill="#FF0000"/>
<circle cx="48.6074" cy="71.8974" r="6.87701" transform="rotate(180 48.6074 71.8974)" fill="#FF0000"/>
<circle cx="329.941" cy="50.6407" r="6.87701" fill="#FF0000"/>
<circle cx="330.565" cy="50.6407" r="6.87701" fill="#FF0000"/>
<line x1="104.719" y1="107.688" x2="455.29" y2="107.688" stroke="black" stroke-width="1.56296"/>
<path d="M455.53 108.241C455.835 107.936 455.835 107.441 455.53 107.136L450.557 102.163C450.252 101.857 449.757 101.857 449.452 102.163C449.146 102.468 449.146 102.963 449.452 103.268L453.872 107.688L449.452 112.109C449.146 112.414 449.146 112.909 449.452 113.214C449.757 113.52 450.252 113.52 450.557 113.214L455.53 108.241ZM104.719 108.47H454.978V106.907H104.719V108.47Z" fill="#008000"/>
<path d="M298.648 119.795L295.758 119.78L295.2 121.425L293.447 121.416L296.467 113.431L297.995 113.44L300.947 121.456L299.194 121.446L298.648 119.795ZM296.21 118.447L298.21 118.457L297.22 115.458L296.21 118.447ZM301.694 121.459L301.736 113.459L304.539 113.474C305.509 113.479 306.245 113.67 306.745 114.046C307.245 114.419 307.493 114.964 307.489 115.682C307.487 116.074 307.384 116.42 307.181 116.719C306.978 117.015 306.697 117.231 306.337 117.368C306.747 117.473 307.068 117.682 307.301 117.994C307.537 118.307 307.654 118.688 307.652 119.139C307.648 119.908 307.399 120.489 306.906 120.883C306.414 121.276 305.713 121.473 304.804 121.476L301.694 121.459ZM303.361 117.985L303.35 120.144L304.762 120.151C305.15 120.153 305.453 120.063 305.67 119.881C305.891 119.696 306.002 119.44 306.004 119.114C306.007 118.381 305.63 118.007 304.872 117.992L303.361 117.985ZM303.367 116.82L304.587 116.826C305.419 116.816 305.836 116.486 305.84 115.838C305.841 115.475 305.737 115.215 305.525 115.056C305.317 114.894 304.986 114.812 304.532 114.809L303.378 114.803L303.367 116.82Z" fill="#008000"/>
<path d="M316.551 55.4614C316.775 55.0925 316.657 54.6118 316.289 54.3878L310.277 50.7362C309.909 50.5121 309.428 50.6294 309.204 50.9983C308.98 51.3672 309.097 51.8479 309.466 52.0719L314.809 55.3178L311.563 60.661C311.339 61.0299 311.457 61.5106 311.825 61.7346C312.194 61.9587 312.675 61.8414 312.899 61.4725L316.551 55.4614ZM107.56 106.729L110.043 106.123L109.672 104.604L107.19 105.211L107.56 106.729ZM115.007 104.911L119.972 103.698L119.601 102.18L114.636 103.392L115.007 104.911ZM124.936 102.486L129.901 101.274L129.53 99.7555L124.565 100.968L124.936 102.486ZM134.865 100.062L139.829 98.8493L139.459 97.331L134.494 98.5432L134.865 100.062ZM144.794 97.6371L149.758 96.4249L149.388 94.9065L144.423 96.1188L144.794 97.6371ZM154.723 95.2126L159.687 94.0004L159.317 92.482L154.352 93.6943L154.723 95.2126ZM164.652 92.7881L169.616 91.5759L169.246 90.0576L164.281 91.2698L164.652 92.7881ZM174.581 90.3637L179.545 89.1514L179.174 87.6331L174.21 88.8453L174.581 90.3637ZM184.51 87.9392L189.474 86.7269L189.103 85.2086L184.139 86.4208L184.51 87.9392ZM194.439 85.5147L199.403 84.3025L199.032 82.7841L194.068 83.9964L194.439 85.5147ZM204.368 83.0902L209.332 81.878L208.961 80.3596L203.997 81.5719L204.368 83.0902ZM214.297 80.6657L219.261 79.4535L218.89 77.9352L213.926 79.1474L214.297 80.6657ZM224.225 78.2413L229.19 77.029L228.819 75.5107L223.855 76.7229L224.225 78.2413ZM234.154 75.8168L239.119 74.6045L238.748 73.0862L233.784 74.2984L234.154 75.8168ZM244.083 73.3923L249.048 72.1801L248.677 70.6617L243.713 71.874L244.083 73.3923ZM254.012 70.9678L258.977 69.7556L258.606 68.2372L253.642 69.4495L254.012 70.9678ZM263.941 68.5433L268.906 67.3311L268.535 65.8128L263.571 67.025L263.941 68.5433ZM273.87 66.1189L278.835 64.9066L278.464 63.3883L273.499 64.6005L273.87 66.1189ZM283.799 63.6944L288.764 62.4821L288.393 60.9638L283.428 62.176L283.799 63.6944ZM293.728 61.2699L298.693 60.0577L298.322 58.5393L293.357 59.7516L293.728 61.2699ZM303.657 58.8454L308.622 57.6332L308.251 56.1148L303.286 57.3271L303.657 58.8454ZM313.586 56.4209L316.068 55.8148L315.697 54.2965L313.215 54.9026L313.586 56.4209ZM317.219 55.8671C317.667 55.1294 317.432 54.168 316.694 53.7199L304.672 46.4166C303.934 45.9685 302.973 46.2032 302.525 46.941C302.077 47.6787 302.311 48.6401 303.049 49.0882L313.736 55.58L307.244 66.2664C306.796 67.0041 307.03 67.9655 307.768 68.4136C308.506 68.8618 309.467 68.627 309.915 67.8893L317.219 55.8671ZM107.746 107.488L110.228 106.882L109.486 103.845L107.004 104.451L107.746 107.488ZM115.192 105.67L120.157 104.457L119.415 101.421L114.451 102.633L115.192 105.67ZM125.121 103.245L130.086 102.033L129.344 98.9963L124.38 100.209L125.121 103.245ZM135.05 100.821L140.015 99.6085L139.273 96.5718L134.309 97.7841L135.05 100.821ZM144.979 98.3963L149.944 97.184L149.202 94.1473L144.238 95.3596L144.979 98.3963ZM154.908 95.9718L159.873 94.7596L159.131 91.7229L154.167 92.9351L154.908 95.9718ZM164.837 93.5473L169.802 92.3351L169.06 89.2984L164.096 90.5106L164.837 93.5473ZM174.766 91.1228L179.731 89.9106L178.989 86.8739L174.025 88.0861L174.766 91.1228ZM184.695 88.6984L189.66 87.4861L188.918 84.4494L183.954 85.6617L184.695 88.6984ZM194.624 86.2739L199.589 85.0616L198.847 82.0249L193.883 83.2372L194.624 86.2739ZM204.553 83.8494L209.517 82.6372L208.776 79.6005L203.811 80.8127L204.553 83.8494ZM214.482 81.4249L219.446 80.2127L218.705 77.176L213.74 78.3882L214.482 81.4249ZM224.411 79.0004L229.375 77.7882L228.634 74.7515L223.669 75.9637L224.411 79.0004ZM234.34 76.576L239.304 75.3637L238.563 72.327L233.598 73.5393L234.34 76.576ZM244.269 74.1515L249.233 72.9392L248.492 69.9025L243.527 71.1148L244.269 74.1515ZM254.198 71.727L259.162 70.5148L258.421 67.4781L253.456 68.6903L254.198 71.727ZM264.127 69.3025L269.091 68.0903L268.35 65.0536L263.385 66.2658L264.127 69.3025ZM274.056 66.878L279.02 65.6658L278.279 62.6291L273.314 63.8413L274.056 66.878ZM283.985 64.4536L288.949 63.2413L288.208 60.2046L283.243 61.4169L283.985 64.4536ZM293.914 62.0291L298.878 60.8168L298.136 57.7801L293.172 58.9924L293.914 62.0291ZM303.842 59.6046L308.807 58.3924L308.065 55.3557L303.101 56.5679L303.842 59.6046ZM313.771 57.1801L316.254 56.574L315.512 53.5373L313.03 54.1434L313.771 57.1801Z" fill="#FFA500"/>
<path d="M55.2952 78.0161C54.8765 78.1208 54.622 78.5451 54.7266 78.9638L56.4325 85.7871C56.5371 86.2058 56.9614 86.4604 57.3801 86.3557C57.7989 86.251 58.0534 85.8268 57.9488 85.408L56.4325 79.3429L62.4976 77.8266C62.9163 77.7219 63.1709 77.2976 63.0662 76.8789C62.9616 76.4602 62.5373 76.2056 62.1186 76.3103L55.2952 78.0161ZM101.213 105.3L98.9463 103.94L98.1422 105.28L100.408 106.64L101.213 105.3ZM94.4137 101.22L89.8812 98.5007L89.077 99.841L93.6096 102.561L94.4137 101.22ZM85.3486 95.7812L80.816 93.0617L80.0119 94.4019L84.5445 97.1214L85.3486 95.7812ZM76.2834 90.3421L71.7509 87.6226L70.9467 88.9628L75.4793 91.6823L76.2834 90.3421ZM67.2183 84.903L62.6857 82.1835L61.8816 83.5237L66.4142 86.2432L67.2183 84.903ZM58.1531 79.4639L55.8869 78.1042L55.0827 79.4444L57.349 80.8042L58.1531 79.4639ZM55.1057 77.258C54.2683 77.4673 53.7591 78.3159 53.9685 79.1533L57.3801 92.8C57.5895 93.6374 58.4381 94.1465 59.2755 93.9372C60.1129 93.7278 60.6221 92.8792 60.4127 92.0418L57.3801 79.9115L69.5105 76.8789C70.3479 76.6695 70.8571 75.821 70.6477 74.9835C70.4383 74.1461 69.5898 73.637 68.7523 73.8463L55.1057 77.258ZM101.615 104.63L99.3484 103.27L97.7401 105.95L100.006 107.31L101.615 104.63ZM94.8158 100.55L90.2832 97.8306L88.675 100.511L93.2075 103.231L94.8158 100.55ZM85.7507 95.1111L81.2181 92.3915L79.6098 95.072L84.1424 97.7915L85.7507 95.1111ZM76.6855 89.672L72.1529 86.9525L70.5447 89.6329L75.0772 92.3524L76.6855 89.672ZM67.6204 84.2329L63.0878 81.5134L61.4795 84.1938L66.0121 86.9134L67.6204 84.2329ZM58.5552 78.7938L56.2889 77.434L54.6807 80.1145L56.9469 81.4743L58.5552 78.7938Z" fill="#FFA500"/>
<path d="M449.337 167.691C449.688 167.44 449.77 166.952 449.518 166.601L445.427 160.88C445.176 160.529 444.688 160.448 444.337 160.699C443.986 160.95 443.905 161.438 444.156 161.789L447.793 166.875L442.707 170.511C442.356 170.763 442.275 171.251 442.526 171.602C442.777 171.953 443.266 172.034 443.617 171.783L449.337 167.691ZM107.247 111.117L109.686 111.522L109.942 109.98L107.503 109.575L107.247 111.117ZM114.565 112.332L119.444 113.142L119.7 111.6L114.821 110.79L114.565 112.332ZM124.322 113.952L129.201 114.762L129.457 113.22L124.578 112.41L124.322 113.952ZM134.08 115.572L138.958 116.383L139.214 114.841L134.336 114.031L134.08 115.572ZM143.837 117.193L148.716 118.003L148.972 116.461L144.093 115.651L143.837 117.193ZM153.594 118.813L158.473 119.623L158.729 118.081L153.851 117.271L153.594 118.813ZM163.352 120.433L168.231 121.243L168.487 119.702L163.608 118.891L163.352 120.433ZM173.109 122.054L177.988 122.864L178.244 121.322L173.365 120.512L173.109 122.054ZM182.867 123.674L187.745 124.484L188.001 122.942L183.123 122.132L182.867 123.674ZM192.624 125.294L197.503 126.104L197.759 124.562L192.88 123.752L192.624 125.294ZM202.381 126.914L207.26 127.725L207.516 126.183L202.637 125.373L202.381 126.914ZM212.139 128.535L217.017 129.345L217.273 127.803L212.395 126.993L212.139 128.535ZM221.896 130.155L226.775 130.965L227.031 129.423L222.152 128.613L221.896 130.155ZM231.653 131.775L236.532 132.585L236.788 131.044L231.909 130.233L231.653 131.775ZM241.411 133.396L246.289 134.206L246.545 132.664L241.667 131.854L241.411 133.396ZM251.168 135.016L256.047 135.826L256.303 134.284L251.424 133.474L251.168 135.016ZM260.925 136.636L265.804 137.446L266.06 135.904L261.182 135.094L260.925 136.636ZM270.683 138.256L275.562 139.067L275.818 137.525L270.939 136.715L270.683 138.256ZM280.44 139.877L285.319 140.687L285.575 139.145L280.696 138.335L280.44 139.877ZM290.198 141.497L295.076 142.307L295.332 140.765L290.454 139.955L290.198 141.497ZM299.955 143.117L304.834 143.927L305.09 142.386L300.211 141.575L299.955 143.117ZM309.712 144.738L314.591 145.548L314.847 144.006L309.968 143.196L309.712 144.738ZM319.47 146.358L324.348 147.168L324.604 145.626L319.726 144.816L319.47 146.358ZM329.227 147.978L334.106 148.788L334.362 147.246L329.483 146.436L329.227 147.978ZM338.984 149.598L343.863 150.409L344.119 148.867L339.241 148.057L338.984 149.598ZM348.742 151.219L353.621 152.029L353.877 150.487L348.998 149.677L348.742 151.219ZM358.499 152.839L363.378 153.649L363.634 152.107L358.755 151.297L358.499 152.839ZM368.257 154.459L373.135 155.269L373.391 153.728L368.513 152.917L368.257 154.459ZM378.014 156.08L382.893 156.89L383.149 155.348L378.27 154.538L378.014 156.08ZM387.771 157.7L392.65 158.51L392.906 156.968L388.027 156.158L387.771 157.7ZM397.529 159.32L402.407 160.13L402.663 158.588L397.785 157.778L397.529 159.32ZM407.286 160.94L412.165 161.751L412.421 160.209L407.542 159.399L407.286 160.94ZM417.043 162.561L421.922 163.371L422.178 161.829L417.3 161.019L417.043 162.561ZM426.801 164.181L431.68 164.991L431.936 163.449L427.057 162.639L426.801 164.181ZM436.558 165.801L441.437 166.611L441.693 165.07L436.814 164.259L436.558 165.801ZM446.316 167.422L448.755 167.827L449.011 166.285L446.572 165.88L446.316 167.422ZM449.792 168.327C450.494 167.825 450.656 166.849 450.154 166.146L441.971 154.705C441.469 154.003 440.493 153.841 439.791 154.343C439.089 154.845 438.927 155.821 439.429 156.523L446.702 166.694L436.532 173.967C435.83 174.469 435.668 175.446 436.17 176.148C436.672 176.85 437.648 177.012 438.35 176.51L449.792 168.327ZM107.119 111.888L109.558 112.293L110.07 109.209L107.631 108.804L107.119 111.888ZM114.437 113.103L119.316 113.913L119.828 110.829L114.949 110.019L114.437 113.103ZM124.194 114.723L129.073 115.533L129.585 112.45L124.706 111.639L124.194 114.723ZM133.952 116.343L138.83 117.153L139.342 114.07L134.464 113.26L133.952 116.343ZM143.709 117.964L148.588 118.774L149.1 115.69L144.221 114.88L143.709 117.964ZM153.466 119.584L158.345 120.394L158.857 117.31L153.979 116.5L153.466 119.584ZM163.224 121.204L168.103 122.014L168.615 118.931L163.736 118.12L163.224 121.204ZM172.981 122.824L177.86 123.635L178.372 120.551L173.493 119.741L172.981 122.824ZM182.739 124.445L187.617 125.255L188.129 122.171L183.251 121.361L182.739 124.445ZM192.496 126.065L197.375 126.875L197.887 123.791L193.008 122.981L192.496 126.065ZM202.253 127.685L207.132 128.495L207.644 125.412L202.765 124.602L202.253 127.685ZM212.011 129.306L216.889 130.116L217.401 127.032L212.523 126.222L212.011 129.306ZM221.768 130.926L226.647 131.736L227.159 128.652L222.28 127.842L221.768 130.926ZM231.525 132.546L236.404 133.356L236.916 130.273L232.037 129.462L231.525 132.546ZM241.283 134.166L246.161 134.977L246.673 131.893L241.795 131.083L241.283 134.166ZM251.04 135.787L255.919 136.597L256.431 133.513L251.552 132.703L251.04 135.787ZM260.797 137.407L265.676 138.217L266.188 135.133L261.31 134.323L260.797 137.407ZM270.555 139.027L275.434 139.837L275.946 136.754L271.067 135.944L270.555 139.027ZM280.312 140.648L285.191 141.458L285.703 138.374L280.824 137.564L280.312 140.648ZM290.07 142.268L294.948 143.078L295.46 139.994L290.582 139.184L290.07 142.268ZM299.827 143.888L304.706 144.698L305.218 141.615L300.339 140.804L299.827 143.888ZM309.584 145.508L314.463 146.319L314.975 143.235L310.096 142.425L309.584 145.508ZM319.342 147.129L324.22 147.939L324.732 144.855L319.854 144.045L319.342 147.129ZM329.099 148.749L333.978 149.559L334.49 146.475L329.611 145.665L329.099 148.749ZM338.856 150.369L343.735 151.179L344.247 148.096L339.369 147.286L338.856 150.369ZM348.614 151.99L353.493 152.8L354.005 149.716L349.126 148.906L348.614 151.99ZM358.371 153.61L363.25 154.42L363.762 151.336L358.883 150.526L358.371 153.61ZM368.129 155.23L373.007 156.04L373.519 152.957L368.641 152.146L368.129 155.23ZM377.886 156.85L382.765 157.661L383.277 154.577L378.398 153.767L377.886 156.85ZM387.643 158.471L392.522 159.281L393.034 156.197L388.155 155.387L387.643 158.471ZM397.401 160.091L402.279 160.901L402.791 157.817L397.913 157.007L397.401 160.091ZM407.158 161.711L412.037 162.521L412.549 159.438L407.67 158.628L407.158 161.711ZM416.915 163.332L421.794 164.142L422.306 161.058L417.428 160.248L416.915 163.332ZM426.673 164.952L431.552 165.762L432.064 162.678L427.185 161.868L426.673 164.952ZM436.43 166.572L441.309 167.382L441.821 164.299L436.942 163.488L436.43 166.572ZM446.188 168.192L448.627 168.598L449.139 165.514L446.7 165.109L446.188 168.192Z" fill="#FFA500"/>
<path d="M461.373 153.648C461.7 153.929 462.193 153.893 462.475 153.566L467.066 148.238C467.348 147.911 467.311 147.418 466.984 147.136C466.657 146.854 466.164 146.891 465.882 147.218L461.801 151.954L457.065 147.872C456.738 147.591 456.245 147.627 455.963 147.954C455.681 148.281 455.718 148.775 456.045 149.056L461.373 153.648ZM457.793 108.528L458 111.314L459.559 111.198L459.352 108.412L457.793 108.528ZM458.414 116.887L458.827 122.461L460.386 122.345L459.972 116.772L458.414 116.887ZM459.241 128.034L459.655 133.607L461.214 133.491L460.8 127.918L459.241 128.034ZM460.069 139.18L460.483 144.754L462.041 144.638L461.628 139.065L460.069 139.18ZM460.897 150.327L461.103 153.114L462.662 152.998L462.455 150.211L460.897 150.327ZM460.863 154.24C461.516 154.803 462.503 154.73 463.067 154.076L472.25 143.42C472.813 142.766 472.74 141.779 472.086 141.216C471.432 140.652 470.445 140.726 469.882 141.38L461.719 150.851L452.247 142.689C451.593 142.125 450.607 142.199 450.043 142.853C449.48 143.506 449.553 144.493 450.207 145.057L460.863 154.24ZM457.014 108.585L457.221 111.372L460.338 111.141L460.131 108.354L457.014 108.585ZM457.634 116.945L458.048 122.519L461.165 122.287L460.752 116.714L457.634 116.945ZM458.462 128.092L458.876 133.665L461.993 133.434L461.579 127.86L458.462 128.092ZM459.29 139.238L459.703 144.812L462.821 144.58L462.407 139.007L459.29 139.238ZM460.117 150.385L460.324 153.171L463.441 152.94L463.235 150.153L460.117 150.385Z" fill="#FFA500"/>
<path d="M341.531 56.7911C341.13 56.9493 340.932 57.4031 341.09 57.8047L343.669 64.3482C343.827 64.7498 344.281 64.947 344.683 64.7888C345.084 64.6306 345.281 64.1768 345.123 63.7752L342.831 57.9587L348.648 55.6666C349.049 55.5084 349.246 55.0546 349.088 54.6531C348.93 54.2515 348.476 54.0543 348.075 54.2125L341.531 56.7911ZM444.972 101.502L442.634 100.486L442.011 101.92L444.349 102.935L444.972 101.502ZM437.96 98.4543L433.285 96.4224L432.662 97.8558L437.337 99.8877L437.96 98.4543ZM428.61 94.3906L423.936 92.3587L423.313 93.7922L427.987 95.824L428.61 94.3906ZM419.261 90.3269L414.586 88.2951L413.963 89.7285L418.638 91.7603L419.261 90.3269ZM409.912 86.2632L405.237 84.2314L404.614 85.6648L409.289 87.6966L409.912 86.2632ZM400.562 82.1995L395.888 80.1677L395.265 81.6011L399.939 83.6329L400.562 82.1995ZM391.213 78.1358L386.538 76.104L385.915 77.5374L390.59 79.5692L391.213 78.1358ZM381.864 74.0721L377.189 72.0403L376.566 73.4737L381.241 75.5056L381.864 74.0721ZM372.514 70.0084L367.84 67.9766L367.217 69.41L371.891 71.4419L372.514 70.0084ZM363.165 65.9448L358.49 63.9129L357.867 65.3463L362.542 67.3782L363.165 65.9448ZM353.816 61.8811L349.141 59.8492L348.518 61.2826L353.193 63.3145L353.816 61.8811ZM344.466 57.8174L342.129 56.8015L341.506 58.2349L343.843 59.2508L344.466 57.8174ZM341.245 56.064C340.441 56.3805 340.047 57.2881 340.363 58.0912L345.521 71.1783C345.837 71.9814 346.745 72.3759 347.548 72.0594C348.351 71.7429 348.745 70.8354 348.429 70.0323L343.845 58.3993L355.478 53.8151C356.281 53.4986 356.675 52.591 356.359 51.7879C356.042 50.9848 355.135 50.5904 354.332 50.9068L341.245 56.064ZM445.283 100.785L442.946 99.7694L441.7 102.636L444.037 103.652L445.283 100.785ZM438.271 97.7376L433.597 95.7057L432.35 98.5725L437.025 100.604L438.271 97.7376ZM428.922 93.6739L424.247 91.642L423.001 94.5089L427.676 96.5407L428.922 93.6739ZM419.573 89.6102L414.898 87.5783L413.652 90.4452L418.326 92.477L419.573 89.6102ZM410.223 85.5465L405.549 83.5147L404.302 86.3815L408.977 88.4133L410.223 85.5465ZM400.874 81.4828L396.199 79.451L394.953 82.3178L399.628 84.3496L400.874 81.4828ZM391.525 77.4191L386.85 75.3873L385.604 78.2541L390.278 80.2859L391.525 77.4191ZM382.175 73.3554L377.501 71.3236L376.254 74.1904L380.929 76.2223L382.175 73.3554ZM372.826 69.2917L368.151 67.2599L366.905 70.1267L371.58 72.1586L372.826 69.2917ZM363.477 65.2281L358.802 63.1962L357.556 66.063L362.23 68.0949L363.477 65.2281ZM354.127 61.1644L349.453 59.1325L348.207 61.9993L352.881 64.0312L354.127 61.1644ZM344.778 57.1007L342.441 56.0848L341.195 58.9516L343.532 59.9675L344.778 57.1007Z" fill="#FFA500"/>
<path d="M106.042 122.916H103.151L102.602 124.564H100.849L103.827 116.564H105.355L108.349 124.564H106.597L106.042 122.916ZM103.596 121.581H105.596L104.591 118.586L103.596 121.581Z" fill="black"/>
<path d="M452.095 124.564V116.564H454.898C455.868 116.564 456.605 116.751 457.106 117.125C457.608 117.495 457.859 118.038 457.859 118.756C457.859 119.148 457.758 119.495 457.557 119.795C457.356 120.092 457.075 120.31 456.716 120.449C457.127 120.551 457.449 120.758 457.683 121.07C457.921 121.381 458.041 121.762 458.041 122.213C458.041 122.982 457.795 123.564 457.304 123.96C456.813 124.356 456.114 124.557 455.205 124.564H452.095ZM453.744 121.081V123.24H455.156C455.544 123.24 455.846 123.149 456.062 122.965C456.282 122.779 456.392 122.522 456.392 122.196C456.392 121.464 456.013 121.092 455.255 121.081H453.744ZM453.744 119.916H454.963C455.795 119.901 456.211 119.57 456.211 118.921C456.211 118.559 456.105 118.299 455.892 118.141C455.683 117.98 455.352 117.899 454.898 117.899H453.744V119.916Z" fill="black"/>
</svg>
