<svg width="577" height="204" viewBox="0 0 577 204" fill="none" xmlns="http://www.w3.org/2000/svg">
<g clip-path="url(#clip0)">
<rect width="577" height="204" fill="white"/>
<line x1="87" y1="116.75" x2="522" y2="116.75" stroke="#999999" stroke-width="0.5"/>
<line x1="87" y1="84.75" x2="522" y2="84.75" stroke="#999999" stroke-width="0.5"/>
<line x1="87" y1="179.75" x2="522" y2="179.75" stroke="#999999" stroke-width="0.5"/>
<line x1="87" y1="53.75" x2="522" y2="53.75" stroke="#999999" stroke-width="0.5"/>
<line x1="87" y1="148.75" x2="522" y2="148.75" stroke="#999999" stroke-width="0.5"/>
<path d="M480.641 54.4466C480.888 54.0924 480.801 53.6053 480.447 53.3587L474.675 49.3394C474.321 49.0927 473.834 49.1799 473.587 49.5341C473.34 49.8883 473.428 50.3753 473.782 50.622L478.912 54.1947L475.339 59.3251C475.093 59.6793 475.18 60.1663 475.534 60.413C475.888 60.6596 476.375 60.5725 476.622 60.2183L480.641 54.4466ZM128.138 117.769L480.138 54.7693L479.862 53.2307L127.862 116.231L128.138 117.769Z" fill="#008000" fill-opacity="0.3"/>
<path d="M512.641 -8.55341C512.888 -8.90759 512.801 -9.39465 512.447 -9.6413L506.675 -13.6606C506.321 -13.9073 505.834 -13.8201 505.587 -13.4659C505.34 -13.1117 505.428 -12.6247 505.782 -12.378L510.912 -8.80529L507.339 -3.6749C507.093 -3.32072 507.18 -2.83365 507.534 -2.58701C507.888 -2.34036 508.375 -2.42754 508.622 -2.78171L512.641 -8.55341ZM160.138 54.7693L512.138 -8.23074L511.862 -9.76925L159.862 53.2307L160.138 54.7693Z" fill="#008000" fill-opacity="0.3"/>
<path d="M551.641 96.4466C551.888 96.0924 551.801 95.6053 551.447 95.3587L545.675 91.3394C545.321 91.0927 544.834 91.1799 544.587 91.5341C544.34 91.8883 544.428 92.3753 544.782 92.622L549.912 96.1947L546.339 101.325C546.093 101.679 546.18 102.166 546.534 102.413C546.888 102.66 547.375 102.572 547.622 102.218L551.641 96.4466ZM199.138 159.769L551.138 96.7693L550.862 95.2307L198.862 158.231L199.138 159.769Z" fill="#008000" fill-opacity="0.3"/>
<path d="M468.641 170.447C468.888 170.092 468.801 169.605 468.447 169.359L462.675 165.339C462.321 165.093 461.834 165.18 461.587 165.534C461.34 165.888 461.428 166.375 461.782 166.622L466.912 170.195L463.339 175.325C463.093 175.679 463.18 176.166 463.534 176.413C463.888 176.66 464.375 176.572 464.622 176.218L468.641 170.447ZM116.138 233.769L468.138 170.769L467.862 169.231L115.862 232.231L116.138 233.769Z" fill="#008000" fill-opacity="0.3"/>
<path d="M379.641 -29.5534C379.888 -29.9076 379.801 -30.3947 379.447 -30.6413L373.675 -34.6606C373.321 -34.9073 372.834 -34.8201 372.587 -34.4659C372.34 -34.1117 372.428 -33.6247 372.782 -33.378L377.912 -29.8053L374.339 -24.6749C374.093 -24.3207 374.18 -23.8337 374.534 -23.587C374.888 -23.3404 375.375 -23.4275 375.622 -23.7817L379.641 -29.5534ZM27.1377 33.7693L379.138 -29.2307L378.862 -30.7693L26.8623 32.2307L27.1377 33.7693Z" fill="#008000" fill-opacity="0.3"/>
<line x1="87" y1="21.75" x2="522" y2="21.75" stroke="#999999" stroke-width="0.5"/>
<line x1="127.25" y1="-17" x2="127.25" y2="187" stroke="#999999" stroke-width="0.5"/>
<line x1="95.25" y1="-17" x2="95.25" y2="187" stroke="#999999" stroke-width="0.5"/>
<line x1="383.25" y1="-17" x2="383.25" y2="187" stroke="#999999" stroke-width="0.5"/>
<line x1="255.25" y1="-17" x2="255.25" y2="187" stroke="#999999" stroke-width="0.5"/>
<line x1="191.25" y1="-17" x2="191.25" y2="187" stroke="#999999" stroke-width="0.5"/>
<line x1="447.25" y1="-17" x2="447.25" y2="187" stroke="#999999" stroke-width="0.5"/>
<line x1="511.25" y1="-17" x2="511.25" y2="187" stroke="#999999" stroke-width="0.5"/>
<line x1="319.25" y1="-17" x2="319.25" y2="187" stroke="#999999" stroke-width="0.5"/>
<line x1="159.25" y1="-17" x2="159.25" y2="187" stroke="#999999" stroke-width="0.5"/>
<line x1="415.25" y1="-17" x2="415.25" y2="187" stroke="#999999" stroke-width="0.5"/>
<line x1="287.25" y1="-17" x2="287.25" y2="187" stroke="#999999" stroke-width="0.5"/>
<line x1="223.25" y1="-17" x2="223.25" y2="187" stroke="#999999" stroke-width="0.5"/>
<line x1="479.25" y1="-17" x2="479.25" y2="187" stroke="#999999" stroke-width="0.5"/>
<line x1="351.25" y1="-17" x2="351.25" y2="187" stroke="#999999" stroke-width="0.5"/>
</g>
<defs>
<clipPath id="clip0">
<rect width="577" height="204" fill="white"/>
</clipPath>
</defs>
</svg>
