<svg width="577" height="204" viewBox="0 0 577 204" fill="none" xmlns="http://www.w3.org/2000/svg">
<rect width="577" height="204" fill="white"/>
<line x1="114.719" y1="107.688" x2="465.29" y2="107.688" stroke="black" stroke-width="1.56296"/>
<circle cx="520.15" cy="143.949" r="6.87701" fill="#FF0000"/>
<circle cx="520.15" cy="143.949" r="6.87701" fill="#FFA500"/>
<line x1="114.719" y1="107.688" x2="465.29" y2="107.688" stroke="black" stroke-width="1.56296"/>
<path d="M465.53 108.241C465.835 107.936 465.835 107.441 465.53 107.136L460.557 102.163C460.252 101.857 459.757 101.857 459.452 102.163C459.146 102.468 459.146 102.963 459.452 103.268L463.872 107.688L459.452 112.109C459.146 112.414 459.146 112.909 459.452 113.214C459.757 113.52 460.252 113.52 460.557 113.214L465.53 108.241ZM114.719 108.47H464.978V106.907H114.719V108.47Z" fill="#008000"/>
<path d="M308.648 119.795L305.758 119.78L305.2 121.425L303.447 121.416L306.467 113.431L307.995 113.44L310.947 121.456L309.194 121.446L308.648 119.795ZM306.21 118.447L308.21 118.457L307.22 115.458L306.21 118.447ZM311.694 121.459L311.736 113.459L314.539 113.474C315.509 113.479 316.245 113.67 316.745 114.046C317.245 114.419 317.493 114.964 317.489 115.682C317.487 116.074 317.384 116.42 317.181 116.719C316.978 117.015 316.697 117.231 316.337 117.368C316.747 117.473 317.068 117.682 317.301 117.994C317.537 118.307 317.654 118.688 317.652 119.139C317.648 119.908 317.399 120.489 316.906 120.883C316.414 121.276 315.713 121.473 314.804 121.476L311.694 121.459ZM313.361 117.985L313.35 120.144L314.762 120.151C315.15 120.153 315.453 120.063 315.67 119.881C315.891 119.696 316.002 119.44 316.004 119.114C316.007 118.381 315.63 118.007 314.872 117.992L313.361 117.985ZM313.367 116.82L314.587 116.826C315.419 116.816 315.836 116.486 315.84 115.838C315.841 115.475 315.737 115.215 315.525 115.056C315.317 114.894 314.986 114.812 314.532 114.809L313.378 114.803L313.367 116.82Z" fill="#008000"/>
<path d="M513.436 140.493C513.858 140.403 514.126 139.987 514.036 139.565L512.563 132.688C512.473 132.266 512.058 131.997 511.636 132.087C511.214 132.178 510.945 132.593 511.035 133.015L512.344 139.128L506.231 140.437C505.809 140.528 505.54 140.943 505.63 141.365C505.721 141.787 506.136 142.056 506.558 141.966L513.436 140.493ZM464.552 109.126L466.564 110.428L467.413 109.116L465.401 107.814L464.552 109.126ZM470.589 113.033L474.613 115.638L475.463 114.326L471.438 111.721L470.589 113.033ZM478.638 118.243L482.663 120.848L483.512 119.536L479.487 116.931L478.638 118.243ZM486.687 123.453L490.712 126.058L491.561 124.746L487.537 122.141L486.687 123.453ZM494.737 128.663L498.761 131.268L499.61 129.956L495.586 127.351L494.737 128.663ZM502.786 133.873L506.81 136.478L507.66 135.165L503.635 132.561L502.786 133.873ZM510.835 139.082L512.847 140.385L513.697 139.073L511.684 137.77L510.835 139.082ZM513.599 141.257C514.443 141.076 514.981 140.246 514.8 139.402L511.855 125.647C511.674 124.803 510.843 124.265 509.999 124.446C509.155 124.627 508.617 125.457 508.798 126.301L511.416 138.528L499.19 141.146C498.346 141.327 497.808 142.158 497.989 143.002C498.17 143.846 499 144.383 499.844 144.203L513.599 141.257ZM464.127 109.782L466.14 111.084L467.838 108.46L465.826 107.158L464.127 109.782ZM470.164 113.689L474.189 116.294L475.887 113.67L471.863 111.065L470.164 113.689ZM478.213 118.899L482.238 121.504L483.937 118.88L479.912 116.275L478.213 118.899ZM486.263 124.109L490.287 126.714L491.986 124.09L487.961 121.485L486.263 124.109ZM494.312 129.319L498.337 131.924L500.035 129.3L496.01 126.695L494.312 129.319ZM502.361 134.529L506.386 137.134L508.084 134.509L504.06 131.904L502.361 134.529ZM510.41 139.739L512.423 141.041L514.121 138.417L512.109 137.114L510.41 139.739Z" fill="#FFA500"/>
<path d="M116.042 122.917H113.151L112.602 124.565H110.849L113.827 116.565H115.355L118.349 124.565H116.597L116.042 122.917ZM113.596 121.582H115.596L114.591 118.587L113.596 121.582Z" fill="black"/>
<path d="M463.66 93.3066V85.3063H466.462C467.433 85.3063 468.169 85.4931 468.671 85.8667C469.173 86.2367 469.424 86.7807 469.424 87.4987C469.424 87.8906 469.323 88.2368 469.121 88.5372C468.92 88.8339 468.64 89.0519 468.281 89.1911C468.691 89.2936 469.013 89.5006 469.248 89.812C469.486 90.1233 469.605 90.5043 469.605 90.9549C469.605 91.7241 469.36 92.3066 468.869 92.7022C468.378 93.0978 467.678 93.2993 466.77 93.3066H463.66ZM465.308 89.823V91.9824H466.72C467.109 91.9824 467.411 91.8908 467.627 91.7077C467.847 91.5208 467.957 91.2644 467.957 90.9384C467.957 90.2058 467.577 89.8339 466.819 89.823H465.308ZM465.308 88.6581H466.528C467.359 88.6434 467.775 88.3119 467.775 87.6635C467.775 87.3009 467.669 87.0408 467.457 86.8833C467.248 86.7221 466.916 86.6415 466.462 86.6415H465.308V88.6581Z" fill="black"/>
<path d="M522.395 160.641H519.23V162.784H522.944V164.108H517.582V156.108H522.933V157.443H519.23V159.35H522.395V160.641Z" fill="black"/>
<path d="M326.231 76.3516H323.341L322.791 78H321.038L324.017 69.9996H325.544L328.539 78H326.786L326.231 76.3516ZM323.786 75.0163H325.786L324.78 72.0217L323.786 75.0163ZM329.286 78V69.9996H332.088C333.059 69.9996 333.795 70.1864 334.297 70.5601C334.799 70.9301 335.05 71.474 335.05 72.192C335.05 72.584 334.949 72.9302 334.748 73.2305C334.546 73.5273 334.266 73.7452 333.907 73.8844C334.317 73.987 334.64 74.194 334.874 74.5053C335.112 74.8167 335.231 75.1977 335.231 75.6482C335.231 76.4175 334.986 77 334.495 77.3956C334.004 77.7912 333.305 77.9927 332.396 78H329.286ZM330.935 74.5163V76.6758H332.347C332.735 76.6758 333.037 76.5842 333.253 76.401C333.473 76.2142 333.583 75.9578 333.583 75.6318C333.583 74.8991 333.204 74.5273 332.446 74.5163H330.935ZM330.935 73.3514H332.154C332.986 73.3368 333.402 73.0053 333.402 72.3569C333.402 71.9942 333.295 71.7341 333.083 71.5766C332.874 71.4154 332.543 71.3348 332.088 71.3348H330.935V73.3514ZM341.287 74.5328H338.122V76.6758H341.836V78H336.473V69.9996H341.825V71.3348H338.122V73.2415H341.287V74.5328Z" fill="#0000FF"/>
<circle cx="59.5449" cy="71.4286" r="6.87701" transform="rotate(180 59.5449 71.4286)" fill="#FF0000"/>
<circle cx="59.5449" cy="71.4286" r="6.87701" transform="rotate(180 59.5449 71.4286)" fill="#FFA500"/>
<path d="M66.2265 77.5487C65.8087 77.6573 65.5582 78.084 65.6668 78.5017L67.4366 85.3087C67.5452 85.7264 67.9719 85.9769 68.3896 85.8683C68.8073 85.7597 69.0579 85.3331 68.9493 84.9154L67.3761 78.8647L73.4267 77.2915C73.8445 77.1829 74.095 76.7563 73.9864 76.3386C73.8778 75.9208 73.4512 75.6703 73.0334 75.7789L66.2265 77.5487ZM116.052 106.546L114.001 105.341L113.209 106.689L115.26 107.894L116.052 106.546ZM109.898 102.932L105.795 100.522L105.004 101.87L109.106 104.279L109.898 102.932ZM101.692 98.1124L97.5896 95.7029L96.7981 97.0506L100.901 99.4601L101.692 98.1124ZM93.4868 93.2933L89.3841 90.8837L88.5925 92.2315L92.6953 94.641L93.4868 93.2933ZM85.2813 88.4742L81.1785 86.0646L80.387 87.4123L84.4898 89.8219L85.2813 88.4742ZM77.0758 83.6551L72.973 81.2455L72.1815 82.5932L76.2843 85.0028L77.0758 83.6551ZM68.8702 78.8359L66.8189 77.6312L66.0273 78.9789L68.0787 80.1837L68.8702 78.8359ZM66.0298 76.7924C65.1944 77.0096 64.6932 77.8629 64.9104 78.6983L68.4501 92.3123C68.6673 93.1477 69.5206 93.6489 70.356 93.4317C71.1915 93.2145 71.6926 92.3611 71.4754 91.5257L68.3291 79.4244L80.4304 76.278C81.2658 76.0608 81.767 75.2075 81.5497 74.3721C81.3325 73.5367 80.4792 73.0355 79.6438 73.2527L66.0298 76.7924ZM116.448 105.872L114.396 104.667L112.813 107.363L114.865 108.567L116.448 105.872ZM110.294 102.258L106.191 99.8481L104.608 102.544L108.711 104.953L110.294 102.258ZM102.088 97.4386L97.9853 95.029L96.4023 97.7244L100.505 100.134L102.088 97.4386ZM93.8826 92.6194L89.7798 90.2099L88.1968 92.9053L92.2995 95.3149L93.8826 92.6194ZM85.6771 87.8003L81.5743 85.3908L79.9913 88.0862L84.094 90.4958L85.6771 87.8003ZM77.4715 82.9812L73.3688 80.5716L71.7857 83.2671L75.8885 85.6766L77.4715 82.9812ZM69.266 78.1621L67.2146 76.9573L65.6316 79.6527L67.683 80.8575L69.266 78.1621Z" fill="#FFA500"/>
<path d="M44.2856 71.0846H41.1206V73.2275H44.835V74.5518H39.4721V66.5514H44.824V67.8866H41.1206V69.7933H44.2856V71.0846Z" fill="black"/>
<path d="M96.3482 83.375H93.458L92.9085 85.0234H91.1557L94.1338 77.0231H95.6614L98.656 85.0234H96.9032L96.3482 83.375ZM93.903 82.0398H95.9031L94.8976 79.0451L93.903 82.0398ZM104.217 81.5562H101.052V83.6992H104.766V85.0234H99.4033V77.0231H104.755V78.3583H101.052V80.265H104.217V81.5562Z" fill="#FFA500"/>
<line x1="313.781" y1="49" x2="313.781" y2="106.829" stroke="#0000FF" stroke-width="1.56296" stroke-dasharray="5 5"/>
<circle cx="313.877" cy="45.8769" r="6.87701" transform="rotate(180 313.877 45.8769)" fill="#0000FF"/>
</svg>
