<svg width="577" height="204" viewBox="0 0 577 204" fill="none" xmlns="http://www.w3.org/2000/svg">
<rect width="577" height="204" fill="white"/>
<path d="M477.448 65.6627C477.772 65.1524 477.62 64.4764 477.11 64.1528L468.794 58.8797C468.284 58.5561 467.608 58.7074 467.284 59.2177C466.961 59.728 467.112 60.404 467.622 60.7276L475.014 65.4148L470.327 72.8065C470.003 73.3168 470.155 73.9928 470.665 74.3164C471.175 74.64 471.851 74.4886 472.175 73.9783L477.448 65.6627ZM244.499 118.148L476.763 66.1444L476.285 64.0091L244.021 116.012L244.499 118.148Z" fill="black"/>
<path d="M290.561 137.967C290.819 137.869 290.948 137.58 290.85 137.322L289.25 133.116C289.152 132.858 288.863 132.729 288.605 132.827C288.347 132.925 288.217 133.214 288.316 133.472L289.738 137.21L285.999 138.633C285.741 138.731 285.611 139.02 285.709 139.278C285.808 139.536 286.096 139.665 286.355 139.567L290.561 137.967ZM243.998 117.228L246.307 118.264L246.717 117.352L244.408 116.315L243.998 117.228ZM250.925 120.337L255.543 122.41L255.953 121.497L251.335 119.425L250.925 120.337ZM260.161 124.483L264.779 126.555L265.189 125.643L260.571 123.57L260.161 124.483ZM269.397 128.628L274.015 130.701L274.425 129.789L269.807 127.716L269.397 128.628ZM278.633 132.774L283.251 134.847L283.661 133.935L279.043 131.862L278.633 132.774ZM287.869 136.92L290.178 137.956L290.588 137.044L288.279 136.007L287.869 136.92ZM290.738 138.435C291.255 138.238 291.514 137.661 291.317 137.144L288.118 128.733C287.921 128.216 287.344 127.957 286.827 128.153C286.311 128.35 286.052 128.927 286.248 129.444L289.093 136.921L281.615 139.765C281.099 139.962 280.84 140.539 281.036 141.055C281.233 141.572 281.81 141.831 282.326 141.634L290.738 138.435ZM243.794 117.684L246.103 118.72L246.922 116.896L244.613 115.859L243.794 117.684ZM250.721 120.793L255.339 122.866L256.158 121.041L251.54 118.968L250.721 120.793ZM259.957 124.939L264.574 127.012L265.393 125.187L260.776 123.114L259.957 124.939ZM269.192 129.084L273.81 131.157L274.629 129.333L270.011 127.26L269.192 129.084ZM278.428 133.23L283.046 135.303L283.865 133.478L279.247 131.406L278.428 133.23ZM287.664 137.376L289.973 138.412L290.792 136.588L288.483 135.551L287.664 137.376Z" fill="#008000"/>
<path d="M250.313 152.24C250.541 152.397 250.852 152.34 251.009 152.113L253.568 148.412C253.726 148.185 253.669 147.873 253.442 147.716C253.214 147.559 252.903 147.616 252.746 147.843L250.471 151.133L247.181 148.858C246.954 148.701 246.642 148.758 246.485 148.985C246.328 149.212 246.385 149.523 246.612 149.68L250.313 152.24ZM243.909 117.937L244.425 120.769L245.409 120.59L244.892 117.758L243.909 117.937ZM245.458 126.433L246.491 132.096L247.475 131.917L246.442 126.253L245.458 126.433ZM247.524 137.76L248.557 143.423L249.54 143.244L248.507 137.58L247.524 137.76ZM249.589 149.086L250.106 151.918L251.09 151.739L250.573 148.907L249.589 149.086ZM250.029 152.651C250.483 152.965 251.106 152.852 251.42 152.397L256.539 144.995C256.853 144.541 256.74 143.918 256.285 143.603C255.831 143.289 255.208 143.403 254.894 143.857L250.344 150.437L243.764 145.887C243.31 145.573 242.687 145.687 242.373 146.141C242.059 146.595 242.172 147.218 242.626 147.532L250.029 152.651ZM243.417 118.027L243.933 120.859L245.901 120.5L245.384 117.668L243.417 118.027ZM244.966 126.522L245.999 132.186L247.966 131.827L246.934 126.163L244.966 126.522ZM247.032 137.849L248.065 143.513L250.032 143.154L248.999 137.49L247.032 137.849ZM249.098 149.176L249.614 152.008L251.582 151.649L251.065 148.817L249.098 149.176Z" fill="#0000FF"/>
<path d="M237.842 79.9191C237.615 79.762 237.304 79.8188 237.147 80.046L234.587 83.7472C234.43 83.9743 234.487 84.2858 234.714 84.4428C234.941 84.5999 235.253 84.5431 235.41 84.316L237.685 81.026L240.975 83.301C241.202 83.4581 241.513 83.4013 241.671 83.1742C241.828 82.947 241.771 82.6356 241.544 82.4785L237.842 79.9191ZM244.892 117.758L244.465 115.413L243.481 115.593L243.909 117.937L244.892 117.758ZM243.609 110.723L242.754 106.034L241.77 106.213L242.626 110.903L243.609 110.723ZM241.899 101.344L241.043 96.6545L240.06 96.8339L240.915 101.524L241.899 101.344ZM240.188 91.9648L239.333 87.2751L238.349 87.4545L239.204 92.1442L240.188 91.9648ZM238.478 82.5855L238.05 80.2406L237.066 80.42L237.494 82.7649L238.478 82.5855ZM238.127 79.5078C237.673 79.1937 237.05 79.3073 236.736 79.7616L231.617 87.1641C231.303 87.6183 231.416 88.2412 231.87 88.5553C232.325 88.8695 232.948 88.7559 233.262 88.3016L237.812 81.7216L244.392 86.2717C244.846 86.5858 245.469 86.4722 245.783 86.018C246.097 85.5637 245.984 84.9408 245.529 84.6267L238.127 79.5078ZM245.384 117.668L244.957 115.323L242.989 115.682L243.417 118.027L245.384 117.668ZM244.101 110.634L243.246 105.944L241.278 106.303L242.134 110.993L244.101 110.634ZM242.391 101.254L241.535 96.5647L239.568 96.9236L240.423 101.613L242.391 101.254ZM240.68 91.8751L239.825 87.1854L237.857 87.5443L238.713 92.2339L240.68 91.8751ZM238.969 82.4958L238.542 80.1509L236.574 80.5098L237.002 82.8546L238.969 82.4958Z" fill="#0000FF"/>
<path d="M290.374 86.0947C290.426 85.8236 290.249 85.5614 289.978 85.5091L285.559 84.6565C285.288 84.6042 285.026 84.7816 284.973 85.0528C284.921 85.3239 285.098 85.5861 285.37 85.6384L289.297 86.3962L288.539 90.3238C288.487 90.5949 288.664 90.8571 288.936 90.9095C289.207 90.9618 289.469 90.7844 289.521 90.5132L290.374 86.0947ZM245.071 116.92L247.326 115.395L246.765 114.566L244.511 116.092L245.071 116.92ZM251.835 112.344L256.344 109.294L255.784 108.465L251.275 111.516L251.835 112.344ZM260.853 106.243L265.362 103.192L264.802 102.364L260.293 105.415L260.853 106.243ZM269.872 100.142L274.381 97.0912L273.821 96.2629L269.311 99.3135L269.872 100.142ZM278.89 94.0406L283.399 90.99L282.839 90.1617L278.33 93.2123L278.89 94.0406ZM287.908 87.9394L290.163 86.4141L289.603 85.5859L287.348 87.1112L287.908 87.9394ZM290.865 86.1894C290.969 85.6472 290.615 85.1227 290.072 85.0181L281.235 83.3131C280.693 83.2085 280.169 83.5632 280.064 84.1055C279.959 84.6478 280.314 85.1722 280.856 85.2769L288.711 86.7924L287.196 94.6476C287.091 95.1899 287.446 95.7143 287.988 95.8189C288.531 95.9235 289.055 95.5687 289.16 95.0265L290.865 86.1894ZM245.351 117.334L247.606 115.809L246.485 114.152L244.231 115.678L245.351 117.334ZM252.115 112.758L256.624 109.708L255.504 108.051L250.994 111.102L252.115 112.758ZM261.133 106.657L265.643 103.606L264.522 101.95L260.013 105.001L261.133 106.657ZM270.152 100.556L274.661 97.5053L273.54 95.8488L269.031 98.8994L270.152 100.556ZM279.17 94.4547L283.679 91.4041L282.559 89.7476L278.05 92.7982L279.17 94.4547ZM288.189 88.3536L290.443 86.8283L289.322 85.1717L287.068 86.697L288.189 88.3536Z" fill="#008000"/>
<path d="M207.627 108.036C207.394 108.184 207.324 108.493 207.472 108.726L209.878 112.529C210.026 112.762 210.335 112.832 210.568 112.684C210.802 112.536 210.871 112.227 210.723 111.994L208.584 108.614L211.964 106.475C212.198 106.327 212.267 106.018 212.12 105.785C211.972 105.552 211.663 105.482 211.43 105.63L207.627 108.036ZM244.285 116.129L242.018 115.619L241.799 116.595L244.066 117.105L244.285 116.129ZM237.483 114.6L232.948 113.58L232.728 114.556L237.263 115.575L237.483 114.6ZM228.412 112.56L223.877 111.54L223.658 112.516L228.193 113.536L228.412 112.56ZM219.342 110.521L214.807 109.501L214.588 110.476L219.123 111.496L219.342 110.521ZM210.272 108.481L208.004 107.971L207.785 108.947L210.052 109.457L210.272 108.481ZM207.36 107.614C206.893 107.909 206.754 108.527 207.049 108.994L211.862 116.599C212.158 117.065 212.775 117.204 213.242 116.909C213.709 116.614 213.848 115.996 213.552 115.529L209.274 108.769L216.034 104.491C216.501 104.196 216.64 103.578 216.345 103.111C216.049 102.645 215.432 102.506 214.965 102.801L207.36 107.614ZM244.395 115.642L242.128 115.132L241.689 117.083L243.956 117.593L244.395 115.642ZM237.592 114.112L233.057 113.092L232.618 115.043L237.154 116.063L237.592 114.112ZM228.522 112.072L223.987 111.052L223.548 113.004L228.083 114.024L228.522 112.072ZM219.452 110.033L214.917 109.013L214.478 110.964L219.013 111.984L219.452 110.033ZM210.381 107.993L208.114 107.483L207.675 109.434L209.943 109.944L210.381 107.993Z" fill="#FF0000"/>
<path d="M216.676 143.617C216.676 143.893 216.9 144.117 217.176 144.117H221.676C221.952 144.117 222.176 143.893 222.176 143.617C222.176 143.341 221.952 143.117 221.676 143.117H217.676V139.117C217.676 138.841 217.452 138.617 217.176 138.617C216.9 138.617 216.676 138.841 216.676 139.117V143.617ZM243.822 116.264L242.135 117.951L242.842 118.658L244.529 116.971L243.822 116.264ZM238.76 121.326L235.385 124.701L236.092 125.408L239.467 122.033L238.76 121.326ZM232.01 128.076L228.635 131.451L229.342 132.158L232.717 128.783L232.01 128.076ZM225.26 134.826L221.885 138.201L222.592 138.908L225.967 135.533L225.26 134.826ZM218.51 141.576L216.822 143.264L217.529 143.971L219.217 142.283L218.51 141.576ZM216.176 143.617C216.176 144.169 216.623 144.617 217.176 144.617H226.176C226.728 144.617 227.176 144.169 227.176 143.617C227.176 143.065 226.728 142.617 226.176 142.617H218.176V134.617C218.176 134.065 217.728 133.617 217.176 133.617C216.623 133.617 216.176 134.065 216.176 134.617V143.617ZM243.469 115.91L241.781 117.598L243.195 119.012L244.883 117.324L243.469 115.91ZM238.406 120.973L235.031 124.348L236.445 125.762L239.82 122.387L238.406 120.973ZM231.656 127.723L228.281 131.098L229.695 132.512L233.07 129.137L231.656 127.723ZM224.906 134.473L221.531 137.848L222.945 139.262L226.32 135.887L224.906 134.473ZM218.156 141.223L216.469 142.91L217.883 144.324L219.57 142.637L218.156 141.223Z" fill="#FF0000"/>
<path d="M128.984 118.933L129.033 119.619C129.458 119.088 130.028 118.823 130.742 118.823C131.372 118.823 131.841 119.008 132.149 119.378C132.456 119.748 132.614 120.301 132.621 121.037V124.878H131.033V121.076C131.033 120.739 130.96 120.495 130.813 120.345C130.667 120.191 130.423 120.114 130.083 120.114C129.636 120.114 129.301 120.304 129.077 120.685V124.878H127.489V118.933H128.984ZM136.566 124.988C135.695 124.988 134.984 124.72 134.434 124.186C133.889 123.651 133.616 122.938 133.616 122.048V121.894C133.616 121.297 133.731 120.764 133.962 120.295C134.193 119.823 134.519 119.46 134.94 119.207C135.365 118.951 135.848 118.823 136.391 118.823C137.204 118.823 137.843 119.079 138.308 119.592C138.777 120.105 139.012 120.832 139.012 121.773V122.422H135.226C135.277 122.81 135.431 123.121 135.687 123.356C135.947 123.59 136.275 123.708 136.671 123.708C137.283 123.708 137.761 123.486 138.105 123.043L138.885 123.916C138.647 124.253 138.325 124.517 137.918 124.708C137.512 124.894 137.061 124.988 136.566 124.988ZM136.385 120.108C136.07 120.108 135.814 120.215 135.616 120.427C135.422 120.64 135.297 120.944 135.242 121.339H137.451V121.213C137.444 120.861 137.349 120.59 137.165 120.4C136.982 120.206 136.722 120.108 136.385 120.108ZM139.687 121.861C139.687 120.949 139.904 120.215 140.336 119.658C140.772 119.101 141.358 118.823 142.094 118.823C142.746 118.823 143.254 119.046 143.616 119.493L143.682 118.933H145.122V124.68C145.122 125.2 145.003 125.653 144.765 126.037C144.53 126.422 144.199 126.715 143.77 126.916C143.341 127.118 142.84 127.219 142.265 127.219C141.829 127.219 141.404 127.131 140.99 126.955C140.576 126.783 140.263 126.559 140.05 126.285L140.753 125.318C141.149 125.761 141.629 125.982 142.193 125.982C142.614 125.982 142.942 125.869 143.177 125.642C143.411 125.418 143.528 125.1 143.528 124.686V124.367C143.162 124.781 142.68 124.988 142.083 124.988C141.369 124.988 140.79 124.709 140.347 124.153C139.907 123.592 139.687 122.85 139.687 121.927V121.861ZM141.275 121.977C141.275 122.515 141.384 122.938 141.6 123.246C141.816 123.55 142.112 123.702 142.49 123.702C142.973 123.702 143.319 123.521 143.528 123.158V120.658C143.316 120.295 142.973 120.114 142.501 120.114C142.12 120.114 141.819 120.27 141.6 120.581C141.384 120.892 141.275 121.358 141.275 121.977ZM149.792 124.878C149.719 124.735 149.666 124.557 149.633 124.345C149.248 124.774 148.748 124.988 148.133 124.988C147.55 124.988 147.067 124.819 146.682 124.482C146.301 124.145 146.111 123.72 146.111 123.208C146.111 122.577 146.343 122.094 146.809 121.757C147.278 121.42 147.953 121.25 148.836 121.246H149.567V120.905C149.567 120.63 149.496 120.411 149.353 120.246C149.214 120.081 148.992 119.999 148.688 119.999C148.42 119.999 148.21 120.063 148.056 120.191C147.906 120.319 147.831 120.495 147.831 120.718H146.243C146.243 120.374 146.349 120.055 146.561 119.762C146.774 119.469 147.074 119.24 147.463 119.075C147.851 118.907 148.287 118.823 148.77 118.823C149.503 118.823 150.084 119.008 150.512 119.378C150.944 119.744 151.161 120.26 151.161 120.927V123.504C151.164 124.068 151.243 124.495 151.397 124.785V124.878H149.792ZM148.479 123.773C148.714 123.773 148.93 123.722 149.127 123.62C149.325 123.513 149.472 123.372 149.567 123.197V122.175H148.974C148.179 122.175 147.756 122.449 147.704 122.999L147.699 123.092C147.699 123.29 147.768 123.453 147.908 123.581C148.047 123.709 148.237 123.773 148.479 123.773ZM154.282 117.471V118.933H155.298V120.097H154.282V123.065C154.282 123.284 154.324 123.442 154.408 123.537C154.492 123.632 154.653 123.68 154.891 123.68C155.067 123.68 155.223 123.667 155.359 123.642V124.845C155.047 124.94 154.727 124.988 154.397 124.988C153.283 124.988 152.716 124.426 152.694 123.301V120.097H151.825V118.933H152.694V117.471H154.282ZM157.859 124.878H156.265V118.933H157.859V124.878ZM156.172 117.394C156.172 117.156 156.251 116.96 156.408 116.806C156.569 116.652 156.787 116.575 157.062 116.575C157.333 116.575 157.549 116.652 157.71 116.806C157.871 116.96 157.952 117.156 157.952 117.394C157.952 117.636 157.87 117.834 157.705 117.987C157.544 118.141 157.329 118.218 157.062 118.218C156.795 118.218 156.578 118.141 156.414 117.987C156.252 117.834 156.172 117.636 156.172 117.394ZM161.397 122.938L162.502 118.933H164.161L162.156 124.878H160.639L158.633 118.933H160.293L161.397 122.938ZM167.524 124.988C166.652 124.988 165.941 124.72 165.392 124.186C164.846 123.651 164.573 122.938 164.573 122.048V121.894C164.573 121.297 164.689 120.764 164.919 120.295C165.15 119.823 165.476 119.46 165.898 119.207C166.322 118.951 166.806 118.823 167.348 118.823C168.161 118.823 168.801 119.079 169.266 119.592C169.735 120.105 169.969 120.832 169.969 121.773V122.422H166.183C166.235 122.81 166.388 123.121 166.645 123.356C166.905 123.59 167.233 123.708 167.628 123.708C168.24 123.708 168.718 123.486 169.063 123.043L169.843 123.916C169.605 124.253 169.282 124.517 168.876 124.708C168.469 124.894 168.018 124.988 167.524 124.988ZM167.343 120.108C167.028 120.108 166.771 120.215 166.573 120.427C166.379 120.64 166.255 120.944 166.2 121.339H168.409V121.213C168.401 120.861 168.306 120.59 168.123 120.4C167.94 120.206 167.68 120.108 167.343 120.108ZM175.903 122.938L177.008 118.933H178.667L176.662 124.878H175.145L173.14 118.933H174.799L175.903 122.938ZM181.047 124.878H179.453V118.933H181.047V124.878ZM179.36 117.394C179.36 117.156 179.438 116.96 179.596 116.806C179.757 116.652 179.975 116.575 180.25 116.575C180.521 116.575 180.737 116.652 180.898 116.806C181.059 116.96 181.14 117.156 181.14 117.394C181.14 117.636 181.058 117.834 180.893 117.987C180.732 118.141 180.517 118.218 180.25 118.218C179.982 118.218 179.766 118.141 179.601 117.987C179.44 117.834 179.36 117.636 179.36 117.394ZM187.717 121.96C187.717 122.913 187.514 123.656 187.107 124.191C186.701 124.722 186.133 124.988 185.404 124.988C184.759 124.988 184.245 124.741 183.86 124.246L183.788 124.878H182.36V116.438H183.948V119.466C184.314 119.037 184.796 118.823 185.393 118.823C186.118 118.823 186.686 119.09 187.096 119.625C187.51 120.156 187.717 120.905 187.717 121.872V121.96ZM186.129 121.845C186.129 121.244 186.034 120.806 185.844 120.532C185.653 120.253 185.369 120.114 184.992 120.114C184.486 120.114 184.138 120.321 183.948 120.735V123.081C184.142 123.499 184.494 123.708 185.003 123.708C185.516 123.708 185.853 123.455 186.014 122.949C186.091 122.707 186.129 122.339 186.129 121.845ZM191.437 124.988C190.565 124.988 189.855 124.72 189.305 124.186C188.759 123.651 188.487 122.938 188.487 122.048V121.894C188.487 121.297 188.602 120.764 188.833 120.295C189.063 119.823 189.389 119.46 189.811 119.207C190.236 118.951 190.719 118.823 191.261 118.823C192.075 118.823 192.714 119.079 193.179 119.592C193.648 120.105 193.882 120.832 193.882 121.773V122.422H190.096C190.148 122.81 190.302 123.121 190.558 123.356C190.818 123.59 191.146 123.708 191.542 123.708C192.153 123.708 192.631 123.486 192.976 123.043L193.756 123.916C193.518 124.253 193.196 124.517 192.789 124.708C192.382 124.894 191.932 124.988 191.437 124.988ZM191.256 120.108C190.941 120.108 190.684 120.215 190.487 120.427C190.292 120.64 190.168 120.944 190.113 121.339H192.322V121.213C192.315 120.861 192.219 120.59 192.036 120.4C191.853 120.206 191.593 120.108 191.256 120.108ZM198.009 123.235C198.009 123.041 197.912 122.889 197.718 122.779C197.527 122.665 197.22 122.565 196.795 122.477C195.381 122.18 194.674 121.579 194.674 120.674C194.674 120.147 194.892 119.707 195.328 119.356C195.767 119 196.34 118.823 197.047 118.823C197.802 118.823 198.405 119 198.855 119.356C199.309 119.711 199.537 120.173 199.537 120.74H197.949C197.949 120.513 197.875 120.326 197.729 120.18C197.582 120.03 197.353 119.955 197.042 119.955C196.774 119.955 196.567 120.015 196.421 120.136C196.274 120.257 196.201 120.411 196.201 120.598C196.201 120.773 196.284 120.916 196.448 121.026C196.617 121.132 196.899 121.226 197.295 121.306C197.69 121.383 198.024 121.471 198.295 121.57C199.134 121.878 199.553 122.411 199.553 123.169C199.553 123.711 199.32 124.151 198.855 124.488C198.39 124.821 197.789 124.988 197.053 124.988C196.555 124.988 196.111 124.9 195.723 124.724C195.338 124.545 195.036 124.301 194.816 123.993C194.597 123.682 194.487 123.347 194.487 122.988H195.992C196.007 123.27 196.111 123.486 196.306 123.636C196.5 123.786 196.76 123.861 197.086 123.861C197.39 123.861 197.619 123.805 197.773 123.691C197.93 123.574 198.009 123.422 198.009 123.235ZM202.196 122.422H200.877L200.69 116.878H202.383L202.196 122.422ZM201.537 123.29C201.804 123.29 202.018 123.369 202.179 123.526C202.344 123.684 202.427 123.885 202.427 124.131C202.427 124.372 202.344 124.572 202.179 124.73C202.018 124.887 201.804 124.966 201.537 124.966C201.273 124.966 201.059 124.887 200.894 124.73C200.733 124.572 200.652 124.372 200.652 124.131C200.652 123.889 200.733 123.689 200.894 123.532C201.059 123.371 201.273 123.29 201.537 123.29Z" fill="#FF0000"/>
<path d="M301.518 124.929C301.518 125.845 301.31 126.579 300.892 127.132C300.478 127.682 299.918 127.957 299.211 127.957C298.61 127.957 298.125 127.748 297.755 127.33V130.133H296.167V121.901H297.639L297.694 122.484C298.079 122.022 298.581 121.791 299.2 121.791C299.932 121.791 300.502 122.063 300.909 122.605C301.315 123.147 301.518 123.894 301.518 124.847V124.929ZM299.93 124.814C299.93 124.26 299.832 123.834 299.634 123.533C299.44 123.233 299.156 123.083 298.782 123.083C298.284 123.083 297.941 123.273 297.755 123.654V126.088C297.949 126.48 298.295 126.676 298.793 126.676C299.551 126.676 299.93 126.055 299.93 124.814ZM302.26 124.819C302.26 124.229 302.374 123.704 302.601 123.242C302.828 122.781 303.154 122.423 303.579 122.171C304.008 121.918 304.504 121.791 305.068 121.791C305.87 121.791 306.524 122.037 307.03 122.528C307.539 123.019 307.823 123.685 307.881 124.528L307.892 124.934C307.892 125.847 307.638 126.579 307.129 127.132C306.619 127.682 305.936 127.957 305.079 127.957C304.222 127.957 303.537 127.682 303.024 127.132C302.515 126.583 302.26 125.836 302.26 124.89V124.819ZM303.848 124.934C303.848 125.499 303.954 125.931 304.167 126.231C304.379 126.528 304.683 126.676 305.079 126.676C305.464 126.676 305.764 126.53 305.98 126.237C306.196 125.94 306.304 125.467 306.304 124.819C306.304 124.266 306.196 123.837 305.98 123.533C305.764 123.229 305.46 123.077 305.068 123.077C304.68 123.077 304.379 123.229 304.167 123.533C303.954 123.834 303.848 124.301 303.848 124.934ZM312.09 126.204C312.09 126.01 311.993 125.858 311.799 125.748C311.609 125.634 311.301 125.533 310.876 125.445C309.462 125.149 308.755 124.548 308.755 123.643C308.755 123.116 308.973 122.676 309.409 122.324C309.849 121.969 310.422 121.791 311.129 121.791C311.883 121.791 312.486 121.969 312.937 122.324C313.391 122.68 313.618 123.141 313.618 123.709H312.03C312.03 123.482 311.957 123.295 311.81 123.149C311.664 122.998 311.435 122.923 311.123 122.923C310.856 122.923 310.649 122.984 310.502 123.105C310.356 123.226 310.283 123.379 310.283 123.566C310.283 123.742 310.365 123.885 310.53 123.995C310.698 124.101 310.98 124.194 311.376 124.275C311.772 124.352 312.105 124.44 312.376 124.539C313.215 124.847 313.634 125.38 313.634 126.138C313.634 126.68 313.402 127.12 312.937 127.457C312.471 127.79 311.871 127.957 311.134 127.957C310.636 127.957 310.193 127.869 309.805 127.693C309.42 127.513 309.118 127.27 308.898 126.962C308.678 126.651 308.568 126.315 308.568 125.956H310.074C310.088 126.239 310.193 126.455 310.387 126.605C310.581 126.755 310.841 126.83 311.167 126.83C311.471 126.83 311.7 126.773 311.854 126.66C312.012 126.543 312.09 126.391 312.09 126.204ZM316.338 127.847H314.744V121.901H316.338V127.847ZM314.651 120.363C314.651 120.125 314.73 119.929 314.887 119.775C315.048 119.621 315.266 119.544 315.541 119.544C315.812 119.544 316.028 119.621 316.19 119.775C316.351 119.929 316.431 120.125 316.431 120.363C316.431 120.605 316.349 120.802 316.184 120.956C316.023 121.11 315.809 121.187 315.541 121.187C315.274 121.187 315.058 121.11 314.893 120.956C314.732 120.802 314.651 120.605 314.651 120.363ZM319.552 120.44V121.901H320.569V123.066H319.552V126.033C319.552 126.253 319.594 126.411 319.679 126.506C319.763 126.601 319.924 126.649 320.162 126.649C320.338 126.649 320.494 126.636 320.629 126.61V127.814C320.318 127.909 319.997 127.957 319.668 127.957C318.554 127.957 317.986 127.394 317.964 126.27V123.066H317.096V121.901H317.964V120.44H319.552ZM323.129 127.847H321.536V121.901H323.129V127.847ZM321.443 120.363C321.443 120.125 321.521 119.929 321.679 119.775C321.84 119.621 322.058 119.544 322.333 119.544C322.604 119.544 322.82 119.621 322.981 119.775C323.142 119.929 323.223 120.125 323.223 120.363C323.223 120.605 323.14 120.802 322.976 120.956C322.814 121.11 322.6 121.187 322.333 121.187C322.065 121.187 321.849 121.11 321.684 120.956C321.523 120.802 321.443 120.605 321.443 120.363ZM326.668 125.907L327.772 121.901H329.432L327.426 127.847H325.91L323.904 121.901H325.564L326.668 125.907ZM332.795 127.957C331.923 127.957 331.212 127.689 330.663 127.154C330.117 126.62 329.844 125.907 329.844 125.017V124.863C329.844 124.266 329.959 123.733 330.19 123.264C330.421 122.791 330.747 122.429 331.168 122.176C331.593 121.92 332.077 121.791 332.619 121.791C333.432 121.791 334.071 122.048 334.537 122.561C335.005 123.074 335.24 123.801 335.24 124.742V125.391H331.454C331.505 125.779 331.659 126.09 331.916 126.325C332.176 126.559 332.503 126.676 332.899 126.676C333.511 126.676 333.989 126.455 334.333 126.011L335.114 126.885C334.875 127.222 334.553 127.486 334.146 127.676C333.74 127.863 333.289 127.957 332.795 127.957ZM332.613 123.077C332.298 123.077 332.042 123.183 331.844 123.396C331.65 123.608 331.525 123.912 331.47 124.308H333.679V124.182C333.672 123.83 333.577 123.559 333.394 123.368C333.21 123.174 332.95 123.077 332.613 123.077ZM341.174 125.907L342.279 121.901H343.938L341.933 127.847H340.416L338.41 121.901H340.07L341.174 125.907ZM346.317 127.847H344.724V121.901H346.317V127.847ZM344.63 120.363C344.63 120.125 344.709 119.929 344.867 119.775C345.028 119.621 345.246 119.544 345.521 119.544C345.792 119.544 346.008 119.621 346.169 119.775C346.33 119.929 346.411 120.125 346.411 120.363C346.411 120.605 346.328 120.802 346.163 120.956C346.002 121.11 345.788 121.187 345.521 121.187C345.253 121.187 345.037 121.11 344.872 120.956C344.711 120.802 344.63 120.605 344.63 120.363ZM352.988 124.929C352.988 125.881 352.785 126.625 352.378 127.16C351.971 127.691 351.404 127.957 350.675 127.957C350.03 127.957 349.515 127.709 349.131 127.215L349.059 127.847H347.631V119.407H349.219V122.434C349.585 122.006 350.067 121.791 350.664 121.791C351.389 121.791 351.957 122.059 352.367 122.594C352.781 123.125 352.988 123.874 352.988 124.841V124.929ZM351.4 124.814C351.4 124.213 351.305 123.775 351.114 123.5C350.924 123.222 350.64 123.083 350.263 123.083C349.757 123.083 349.409 123.29 349.219 123.704V126.05C349.413 126.467 349.764 126.676 350.274 126.676C350.786 126.676 351.123 126.424 351.285 125.918C351.362 125.676 351.4 125.308 351.4 124.814ZM356.708 127.957C355.836 127.957 355.125 127.689 354.576 127.154C354.03 126.62 353.757 125.907 353.757 125.017V124.863C353.757 124.266 353.873 123.733 354.103 123.264C354.334 122.791 354.66 122.429 355.082 122.176C355.506 121.92 355.99 121.791 356.532 121.791C357.345 121.791 357.985 122.048 358.45 122.561C358.919 123.074 359.153 123.801 359.153 124.742V125.391H355.367C355.419 125.779 355.572 126.09 355.829 126.325C356.089 126.559 356.417 126.676 356.812 126.676C357.424 126.676 357.902 126.455 358.246 126.011L359.027 126.885C358.789 127.222 358.466 127.486 358.06 127.676C357.653 127.863 357.202 127.957 356.708 127.957ZM356.527 123.077C356.212 123.077 355.955 123.183 355.757 123.396C355.563 123.608 355.439 123.912 355.384 124.308H357.593V124.182C357.585 123.83 357.49 123.559 357.307 123.368C357.124 123.174 356.864 123.077 356.527 123.077ZM363.28 126.204C363.28 126.01 363.183 125.858 362.988 125.748C362.798 125.634 362.49 125.533 362.065 125.445C360.651 125.149 359.944 124.548 359.944 123.643C359.944 123.116 360.162 122.676 360.598 122.324C361.038 121.969 361.611 121.791 362.318 121.791C363.073 121.791 363.675 121.969 364.126 122.324C364.58 122.68 364.807 123.141 364.807 123.709H363.219C363.219 123.482 363.146 123.295 362.999 123.149C362.853 122.998 362.624 122.923 362.313 122.923C362.045 122.923 361.838 122.984 361.692 123.105C361.545 123.226 361.472 123.379 361.472 123.566C361.472 123.742 361.554 123.885 361.719 123.995C361.888 124.101 362.17 124.194 362.565 124.275C362.961 124.352 363.294 124.44 363.565 124.539C364.404 124.847 364.824 125.38 364.824 126.138C364.824 126.68 364.591 127.12 364.126 127.457C363.661 127.79 363.06 127.957 362.324 127.957C361.825 127.957 361.382 127.869 360.994 127.693C360.609 127.513 360.307 127.27 360.087 126.962C359.867 126.651 359.758 126.315 359.758 125.956H361.263C361.278 126.239 361.382 126.455 361.576 126.605C361.77 126.755 362.031 126.83 362.357 126.83C362.661 126.83 362.89 126.773 363.043 126.66C363.201 126.543 363.28 126.391 363.28 126.204ZM367.467 125.391H366.148L365.961 119.846H367.654L367.467 125.391ZM366.807 126.259C367.075 126.259 367.289 126.337 367.45 126.495C367.615 126.652 367.697 126.854 367.697 127.099C367.697 127.341 367.615 127.541 367.45 127.698C367.289 127.856 367.075 127.935 366.807 127.935C366.544 127.935 366.329 127.856 366.164 127.698C366.003 127.541 365.923 127.341 365.923 127.099C365.923 126.858 366.003 126.658 366.164 126.5C366.329 126.339 366.544 126.259 366.807 126.259Z" fill="#008000"/>
<path d="M218.434 68.7373H221.341V70.0176H216.407V69.0505L219.203 65.358H216.489V64.0722H221.253V65.0118L218.434 68.7373ZM224.984 70.1275C224.112 70.1275 223.401 69.8601 222.852 69.3252C222.306 68.7904 222.033 68.0779 222.033 67.1878V67.0339C222.033 66.4368 222.149 65.9038 222.379 65.4349C222.61 64.9624 222.936 64.5997 223.357 64.347C223.782 64.0906 224.266 63.9623 224.808 63.9623C225.621 63.9623 226.261 64.2188 226.726 64.7316C227.195 65.2445 227.429 65.9716 227.429 66.913V67.5614H223.643C223.695 67.9497 223.848 68.2611 224.105 68.4955C224.365 68.73 224.693 68.8472 225.088 68.8472C225.7 68.8472 226.178 68.6256 226.522 68.1823L227.303 69.056C227.065 69.393 226.742 69.6568 226.336 69.8472C225.929 70.0341 225.478 70.1275 224.984 70.1275ZM224.803 65.2481C224.488 65.2481 224.231 65.3543 224.033 65.5668C223.839 65.7793 223.715 66.0833 223.66 66.4789H225.869V66.3526C225.861 66.0009 225.766 65.7298 225.583 65.5393C225.4 65.3452 225.14 65.2481 224.803 65.2481ZM231.677 65.5613C231.46 65.532 231.27 65.5174 231.105 65.5174C230.504 65.5174 230.111 65.7207 229.924 66.1273V70.0176H228.336V64.0722H229.836L229.88 64.7811C230.198 64.2352 230.64 63.9623 231.204 63.9623C231.38 63.9623 231.545 63.9862 231.699 64.0338L231.677 65.5613ZM232.001 66.99C232.001 66.4002 232.114 65.8745 232.341 65.413C232.569 64.9514 232.895 64.5942 233.32 64.3415C233.748 64.0887 234.244 63.9623 234.809 63.9623C235.611 63.9623 236.265 64.2078 236.77 64.6986C237.279 65.1895 237.563 65.8562 237.622 66.6987L237.633 67.1053C237.633 68.0175 237.378 68.7501 236.869 69.3033C236.36 69.8527 235.677 70.1275 234.82 70.1275C233.962 70.1275 233.277 69.8527 232.765 69.3033C232.255 68.7538 232.001 68.0065 232.001 67.0614V66.99ZM233.589 67.1053C233.589 67.6695 233.695 68.1017 233.907 68.4021C234.12 68.6988 234.424 68.8472 234.82 68.8472C235.204 68.8472 235.505 68.7007 235.721 68.4076C235.937 68.1109 236.045 67.6383 236.045 66.99C236.045 66.4368 235.937 66.0082 235.721 65.7042C235.505 65.4001 235.201 65.2481 234.809 65.2481C234.42 65.2481 234.12 65.4001 233.907 65.7042C233.695 66.0046 233.589 66.4716 233.589 67.1053ZM243.639 68.0779L244.743 64.0722H246.403L244.397 70.0176H242.88L240.875 64.0722H242.534L243.639 68.0779ZM248.782 70.0176H247.188V64.0722H248.782V70.0176ZM247.095 62.5337C247.095 62.2956 247.174 62.0996 247.331 61.9458C247.492 61.7919 247.71 61.715 247.985 61.715C248.256 61.715 248.472 61.7919 248.633 61.9458C248.795 62.0996 248.875 62.2956 248.875 62.5337C248.875 62.7755 248.793 62.9733 248.628 63.1271C248.467 63.281 248.252 63.3579 247.985 63.3579C247.718 63.3579 247.502 63.281 247.337 63.1271C247.176 62.9733 247.095 62.7755 247.095 62.5337ZM255.452 67.0999C255.452 68.0523 255.249 68.7959 254.843 69.3307C254.436 69.8619 253.868 70.1275 253.139 70.1275C252.494 70.1275 251.98 69.8802 251.595 69.3857L251.524 70.0176H250.095V61.5776H251.683V64.6052C252.049 64.1766 252.531 63.9623 253.128 63.9623C253.853 63.9623 254.421 64.2298 254.832 64.7646C255.245 65.2957 255.452 66.0449 255.452 67.0119V67.0999ZM253.864 66.9845C253.864 66.3837 253.769 65.946 253.579 65.6712C253.388 65.3928 253.104 65.2536 252.727 65.2536C252.222 65.2536 251.874 65.4606 251.683 65.8745V68.2208C251.877 68.6384 252.229 68.8472 252.738 68.8472C253.251 68.8472 253.588 68.5944 253.749 68.0889C253.826 67.8471 253.864 67.479 253.864 66.9845ZM259.172 70.1275C258.301 70.1275 257.59 69.8601 257.04 69.3252C256.495 68.7904 256.222 68.0779 256.222 67.1878V67.0339C256.222 66.4368 256.337 65.9038 256.568 65.4349C256.799 64.9624 257.125 64.5997 257.546 64.347C257.971 64.0906 258.454 63.9623 258.997 63.9623C259.81 63.9623 260.449 64.2188 260.914 64.7316C261.383 65.2445 261.618 65.9716 261.618 66.913V67.5614H257.832C257.883 67.9497 258.037 68.2611 258.293 68.4955C258.553 68.73 258.881 68.8472 259.277 68.8472C259.889 68.8472 260.367 68.6256 260.711 68.1823L261.491 69.056C261.253 69.393 260.931 69.6568 260.524 69.8472C260.118 70.0341 259.667 70.1275 259.172 70.1275ZM258.991 65.2481C258.676 65.2481 258.42 65.3543 258.222 65.5668C258.028 65.7793 257.903 66.0833 257.848 66.4789H260.057V66.3526C260.05 66.0009 259.955 65.7298 259.771 65.5393C259.588 65.3452 259.328 65.2481 258.991 65.2481ZM265.744 68.3746C265.744 68.1805 265.647 68.0285 265.453 67.9186C265.262 67.805 264.955 67.7043 264.53 67.6164C263.116 67.3196 262.409 66.7189 262.409 65.8141C262.409 65.2866 262.627 64.847 263.063 64.4953C263.502 64.14 264.076 63.9623 264.783 63.9623C265.537 63.9623 266.14 64.14 266.59 64.4953C267.045 64.8507 267.272 65.3122 267.272 65.88H265.684C265.684 65.6529 265.61 65.4661 265.464 65.3195C265.317 65.1694 265.088 65.0943 264.777 65.0943C264.51 65.0943 264.303 65.1547 264.156 65.2756C264.01 65.3965 263.936 65.5503 263.936 65.7372C263.936 65.913 264.019 66.0558 264.184 66.1657C264.352 66.272 264.634 66.3654 265.03 66.446C265.425 66.5229 265.759 66.6108 266.03 66.7097C266.869 67.0174 267.288 67.5504 267.288 68.3087C267.288 68.8509 267.056 69.2904 266.59 69.6274C266.125 69.9608 265.524 70.1275 264.788 70.1275C264.29 70.1275 263.847 70.0396 263.458 69.8637C263.074 69.6842 262.771 69.4406 262.552 69.1329C262.332 68.8215 262.222 68.4864 262.222 68.1274H263.728C263.742 68.4094 263.847 68.6256 264.041 68.7758C264.235 68.926 264.495 69.001 264.821 69.001C265.125 69.001 265.354 68.9443 265.508 68.8307C265.665 68.7135 265.744 68.5615 265.744 68.3746Z" fill="#0000FF"/>
<circle cx="244.511" cy="116.715" r="7.3459" transform="rotate(-10.3359 244.511 116.715)" fill="white"/>
<circle cx="244.511" cy="116.716" r="3.12591" transform="rotate(-10.3359 244.511 116.716)" fill="black"/>
</svg>
