<svg width="577" height="205" viewBox="0 0 577 205" fill="none" xmlns="http://www.w3.org/2000/svg">
<rect width="577" height="204" transform="translate(0 0.0556641)" fill="white"/>
<line x1="104.719" y1="107.744" x2="455.29" y2="107.744" stroke="black" stroke-width="1.56296"/>
<circle cx="48.6074" cy="71.9531" r="6.87701" transform="rotate(180 48.6074 71.9531)" fill="#FF0000"/>
<circle cx="463.76" cy="168.988" r="6.87701" fill="#FF0000"/>
<circle cx="48.6074" cy="71.9531" r="6.87701" transform="rotate(180 48.6074 71.9531)" fill="#FF0000"/>
<circle cx="329.941" cy="50.6964" r="6.87701" fill="#FF0000"/>
<circle cx="330.565" cy="50.6964" r="6.87701" fill="#FF0000"/>
<line x1="104.719" y1="107.744" x2="455.29" y2="107.744" stroke="black" stroke-width="1.56296"/>
<path d="M455.53 108.297C455.835 107.992 455.835 107.497 455.53 107.192L450.557 102.218C450.252 101.913 449.757 101.913 449.452 102.218C449.146 102.523 449.146 103.018 449.452 103.323L453.872 107.744L449.452 112.165C449.146 112.47 449.146 112.965 449.452 113.27C449.757 113.575 450.252 113.575 450.557 113.27L455.53 108.297ZM104.719 108.526H454.978V106.963H104.719V108.526Z" fill="#008000"/>
<path d="M298.648 119.851L295.758 119.835L295.2 121.481L293.447 121.472L296.467 113.487L297.995 113.495L300.947 121.511L299.194 121.502L298.648 119.851ZM296.21 118.503L298.21 118.513L297.22 115.513L296.21 118.503ZM301.694 121.515L301.736 113.515L304.539 113.53C305.509 113.535 306.245 113.725 306.745 114.102C307.245 114.474 307.493 115.02 307.489 115.738C307.487 116.13 307.384 116.475 307.181 116.775C306.978 117.07 306.697 117.287 306.337 117.424C306.747 117.529 307.068 117.737 307.301 118.05C307.537 118.363 307.654 118.744 307.652 119.195C307.648 119.964 307.399 120.545 306.906 120.938C306.414 121.331 305.713 121.529 304.804 121.532L301.694 121.515ZM303.361 118.04L303.35 120.2L304.762 120.207C305.15 120.209 305.453 120.119 305.67 119.937C305.891 119.751 306.002 119.496 306.004 119.17C306.007 118.437 305.63 118.063 304.872 118.048L303.361 118.04ZM303.367 116.875L304.587 116.882C305.419 116.871 305.836 116.542 305.84 115.894C305.841 115.531 305.737 115.27 305.525 115.112C305.317 114.95 304.986 114.867 304.532 114.865L303.378 114.859L303.367 116.875Z" fill="#008000"/>
<path d="M316.551 55.5171C316.775 55.1482 316.657 54.6675 316.289 54.4434L310.277 50.7918C309.909 50.5677 309.428 50.6851 309.204 51.054C308.98 51.4228 309.097 51.9035 309.466 52.1276L314.809 55.3735L311.563 60.7167C311.339 61.0855 311.457 61.5662 311.825 61.7903C312.194 62.0144 312.675 61.897 312.899 61.5281L316.551 55.5171ZM107.56 106.785L110.043 106.178L109.672 104.66L107.19 105.266L107.56 106.785ZM115.007 104.966L119.972 103.754L119.601 102.236L114.636 103.448L115.007 104.966ZM124.936 102.542L129.901 101.329L129.53 99.8111L124.565 101.023L124.936 102.542ZM134.865 100.117L139.829 98.905L139.459 97.3867L134.494 98.5989L134.865 100.117ZM144.794 97.6928L149.758 96.4805L149.388 94.9622L144.423 96.1744L144.794 97.6928ZM154.723 95.2683L159.687 94.056L159.317 92.5377L154.352 93.7499L154.723 95.2683ZM164.652 92.8438L169.616 91.6316L169.246 90.1132L164.281 91.3255L164.652 92.8438ZM174.581 90.4193L179.545 89.2071L179.174 87.6887L174.21 88.901L174.581 90.4193ZM184.51 87.9948L189.474 86.7826L189.103 85.2643L184.139 86.4765L184.51 87.9948ZM194.439 85.5704L199.403 84.3581L199.032 82.8398L194.068 84.052L194.439 85.5704ZM204.368 83.1459L209.332 81.9336L208.961 80.4153L203.997 81.6275L204.368 83.1459ZM214.297 80.7214L219.261 79.5092L218.89 77.9908L213.926 79.2031L214.297 80.7214ZM224.225 78.2969L229.19 77.0847L228.819 75.5663L223.855 76.7786L224.225 78.2969ZM234.154 75.8724L239.119 74.6602L238.748 73.1419L233.784 74.3541L234.154 75.8724ZM244.083 73.448L249.048 72.2357L248.677 70.7174L243.713 71.9296L244.083 73.448ZM254.012 71.0235L258.977 69.8112L258.606 68.2929L253.642 69.5051L254.012 71.0235ZM263.941 68.599L268.906 67.3868L268.535 65.8684L263.571 67.0807L263.941 68.599ZM273.87 66.1745L278.835 64.9623L278.464 63.4439L273.499 64.6562L273.87 66.1745ZM283.799 63.75L288.764 62.5378L288.393 61.0195L283.428 62.2317L283.799 63.75ZM293.728 61.3256L298.693 60.1133L298.322 58.595L293.357 59.8072L293.728 61.3256ZM303.657 58.9011L308.622 57.6888L308.251 56.1705L303.286 57.3827L303.657 58.9011ZM313.586 56.4766L316.068 55.8705L315.697 54.3522L313.215 54.9583L313.586 56.4766ZM317.219 55.9228C317.667 55.1851 317.432 54.2237 316.694 53.7755L304.672 46.4723C303.934 46.0241 302.973 46.2589 302.525 46.9966C302.077 47.7344 302.311 48.6957 303.049 49.1439L313.736 55.6357L307.244 66.322C306.796 67.0598 307.03 68.0211 307.768 68.4693C308.506 68.9175 309.467 68.6827 309.915 67.945L317.219 55.9228ZM107.746 107.544L110.228 106.938L109.486 103.901L107.004 104.507L107.746 107.544ZM115.192 105.725L120.157 104.513L119.415 101.476L114.451 102.689L115.192 105.725ZM125.121 103.301L130.086 102.089L129.344 99.052L124.38 100.264L125.121 103.301ZM135.05 100.876L140.015 99.6642L139.273 96.6275L134.309 97.8397L135.05 100.876ZM144.979 98.4519L149.944 97.2397L149.202 94.203L144.238 95.4152L144.979 98.4519ZM154.908 96.0275L159.873 94.8152L159.131 91.7785L154.167 92.9908L154.908 96.0275ZM164.837 93.603L169.802 92.3907L169.06 89.3541L164.096 90.5663L164.837 93.603ZM174.766 91.1785L179.731 89.9663L178.989 86.9296L174.025 88.1418L174.766 91.1785ZM184.695 88.754L189.66 87.5418L188.918 84.5051L183.954 85.7173L184.695 88.754ZM194.624 86.3295L199.588 85.1173L198.847 82.0806L193.883 83.2928L194.624 86.3295ZM204.553 83.9051L209.517 82.6928L208.776 79.6561L203.811 80.8684L204.553 83.9051ZM214.482 81.4806L219.446 80.2683L218.705 77.2316L213.74 78.4439L214.482 81.4806ZM224.411 79.0561L229.375 77.8439L228.634 74.8072L223.669 76.0194L224.411 79.0561ZM234.34 76.6316L239.304 75.4194L238.563 72.3827L233.598 73.5949L234.34 76.6316ZM244.269 74.2071L249.233 72.9949L248.492 69.9582L243.527 71.1704L244.269 74.2071ZM254.198 71.7827L259.162 70.5704L258.421 67.5337L253.456 68.746L254.198 71.7827ZM264.127 69.3582L269.091 68.1459L268.35 65.1092L263.385 66.3215L264.127 69.3582ZM274.056 66.9337L279.02 65.7215L278.279 62.6848L273.314 63.897L274.056 66.9337ZM283.985 64.5092L288.949 63.297L288.208 60.2603L283.243 61.4725L283.985 64.5092ZM293.914 62.0847L298.878 60.8725L298.136 57.8358L293.172 59.048L293.914 62.0847ZM303.842 59.6603L308.807 58.448L308.065 55.4113L303.101 56.6236L303.842 59.6603ZM313.771 57.2358L316.254 56.6297L315.512 53.593L313.03 54.1991L313.771 57.2358Z" fill="#FFA500"/>
<path d="M55.2952 78.0718C54.8765 78.1765 54.622 78.6008 54.7266 79.0195L56.4325 85.8428C56.5371 86.2615 56.9614 86.5161 57.3801 86.4114C57.7989 86.3067 58.0534 85.8824 57.9488 85.4637L56.4325 79.3985L62.4976 77.8823C62.9163 77.7776 63.1709 77.3533 63.0662 76.9346C62.9616 76.5159 62.5373 76.2613 62.1186 76.366L55.2952 78.0718ZM101.213 105.355L98.9463 103.996L98.1422 105.336L100.408 106.696L101.213 105.355ZM94.4137 101.276L89.8812 98.5564L89.077 99.8966L93.6096 102.616L94.4137 101.276ZM85.3486 95.8369L80.816 93.1173L80.0119 94.4575L84.5445 97.1771L85.3486 95.8369ZM76.2834 90.3978L71.7509 87.6782L70.9467 89.0185L75.4793 91.738L76.2834 90.3978ZM67.2183 84.9587L62.6857 82.2391L61.8816 83.5794L66.4142 86.2989L67.2183 84.9587ZM58.1531 79.5196L55.8869 78.1598L55.0827 79.5L57.349 80.8598L58.1531 79.5196ZM55.1057 77.3136C54.2683 77.523 53.7591 78.3716 53.9685 79.209L57.3801 92.8556C57.5895 93.693 58.4381 94.2022 59.2755 93.9928C60.1129 93.7835 60.6221 92.9349 60.4127 92.0975L57.3801 79.9672L69.5105 76.9346C70.3479 76.7252 70.8571 75.8766 70.6477 75.0392C70.4383 74.2018 69.5898 73.6926 68.7523 73.902L55.1057 77.3136ZM101.615 104.685L99.3484 103.325L97.7401 106.006L100.006 107.366L101.615 104.685ZM94.8158 100.606L90.2832 97.8863L88.675 100.567L93.2075 103.286L94.8158 100.606ZM85.7507 95.1668L81.2181 92.4472L79.6098 95.1277L84.1424 97.8472L85.7507 95.1668ZM76.6855 89.7277L72.1529 87.0081L70.5447 89.6886L75.0772 92.4081L76.6855 89.7277ZM67.6204 84.2886L63.0878 81.569L61.4795 84.2495L66.0121 86.969L67.6204 84.2886ZM58.5552 78.8495L56.2889 77.4897L54.6807 80.1702L56.9469 81.5299L58.5552 78.8495Z" fill="#FFA500"/>
<path d="M449.337 167.747C449.688 167.496 449.77 167.008 449.518 166.657L445.427 160.936C445.176 160.585 444.688 160.504 444.337 160.755C443.986 161.006 443.905 161.494 444.156 161.845L447.793 166.93L442.707 170.567C442.356 170.818 442.275 171.306 442.526 171.657C442.777 172.008 443.266 172.089 443.617 171.838L449.337 167.747ZM107.247 111.172L109.686 111.577L109.942 110.036L107.503 109.63L107.247 111.172ZM114.565 112.388L119.444 113.198L119.7 111.656L114.821 110.846L114.565 112.388ZM124.322 114.008L129.201 114.818L129.457 113.276L124.578 112.466L124.322 114.008ZM134.08 115.628L138.958 116.438L139.214 114.896L134.336 114.086L134.08 115.628ZM143.837 117.248L148.716 118.058L148.972 116.517L144.093 115.707L143.837 117.248ZM153.594 118.869L158.473 119.679L158.729 118.137L153.851 117.327L153.594 118.869ZM163.352 120.489L168.231 121.299L168.487 119.757L163.608 118.947L163.352 120.489ZM173.109 122.109L177.988 122.919L178.244 121.378L173.365 120.567L173.109 122.109ZM182.867 123.729L187.745 124.54L188.001 122.998L183.123 122.188L182.867 123.729ZM192.624 125.35L197.503 126.16L197.759 124.618L192.88 123.808L192.624 125.35ZM202.381 126.97L207.26 127.78L207.516 126.238L202.637 125.428L202.381 126.97ZM212.139 128.59L217.017 129.4L217.273 127.859L212.395 127.049L212.139 128.59ZM221.896 130.211L226.775 131.021L227.031 129.479L222.152 128.669L221.896 130.211ZM231.653 131.831L236.532 132.641L236.788 131.099L231.909 130.289L231.653 131.831ZM241.411 133.451L246.289 134.261L246.545 132.719L241.667 131.909L241.411 133.451ZM251.168 135.071L256.047 135.882L256.303 134.34L251.424 133.53L251.168 135.071ZM260.925 136.692L265.804 137.502L266.06 135.96L261.182 135.15L260.925 136.692ZM270.683 138.312L275.562 139.122L275.818 137.58L270.939 136.77L270.683 138.312ZM280.44 139.932L285.319 140.742L285.575 139.201L280.696 138.39L280.44 139.932ZM290.198 141.553L295.076 142.363L295.332 140.821L290.454 140.011L290.198 141.553ZM299.955 143.173L304.834 143.983L305.09 142.441L300.211 141.631L299.955 143.173ZM309.712 144.793L314.591 145.603L314.847 144.061L309.968 143.251L309.712 144.793ZM319.47 146.413L324.348 147.224L324.604 145.682L319.726 144.872L319.47 146.413ZM329.227 148.034L334.106 148.844L334.362 147.302L329.483 146.492L329.227 148.034ZM338.984 149.654L343.863 150.464L344.119 148.922L339.241 148.112L338.984 149.654ZM348.742 151.274L353.621 152.084L353.877 150.543L348.998 149.733L348.742 151.274ZM358.499 152.895L363.378 153.705L363.634 152.163L358.755 151.353L358.499 152.895ZM368.257 154.515L373.135 155.325L373.391 153.783L368.513 152.973L368.257 154.515ZM378.014 156.135L382.893 156.945L383.149 155.404L378.27 154.593L378.014 156.135ZM387.771 157.755L392.65 158.566L392.906 157.024L388.027 156.214L387.771 157.755ZM397.529 159.376L402.407 160.186L402.663 158.644L397.785 157.834L397.529 159.376ZM407.286 160.996L412.165 161.806L412.421 160.264L407.542 159.454L407.286 160.996ZM417.043 162.616L421.922 163.426L422.178 161.885L417.3 161.075L417.043 162.616ZM426.801 164.237L431.68 165.047L431.936 163.505L427.057 162.695L426.801 164.237ZM436.558 165.857L441.437 166.667L441.693 165.125L436.814 164.315L436.558 165.857ZM446.316 167.477L448.755 167.882L449.011 166.34L446.572 165.935L446.316 167.477ZM449.792 168.383C450.494 167.88 450.656 166.904 450.154 166.202L441.971 154.76C441.469 154.058 440.493 153.896 439.791 154.398C439.089 154.901 438.927 155.877 439.429 156.579L446.702 166.749L436.532 174.023C435.83 174.525 435.668 175.501 436.17 176.203C436.672 176.905 437.648 177.068 438.35 176.565L449.792 168.383ZM107.119 111.943L109.558 112.348L110.07 109.265L107.631 108.86L107.119 111.943ZM114.437 113.158L119.316 113.969L119.828 110.885L114.949 110.075L114.437 113.158ZM124.194 114.779L129.073 115.589L129.585 112.505L124.706 111.695L124.194 114.779ZM133.952 116.399L138.83 117.209L139.342 114.125L134.464 113.315L133.952 116.399ZM143.709 118.019L148.588 118.829L149.1 115.746L144.221 114.936L143.709 118.019ZM153.466 119.64L158.345 120.45L158.857 117.366L153.979 116.556L153.466 119.64ZM163.224 121.26L168.103 122.07L168.615 118.986L163.736 118.176L163.224 121.26ZM172.981 122.88L177.86 123.69L178.372 120.607L173.493 119.796L172.981 122.88ZM182.739 124.5L187.617 125.311L188.129 122.227L183.251 121.417L182.739 124.5ZM192.496 126.121L197.375 126.931L197.887 123.847L193.008 123.037L192.496 126.121ZM202.253 127.741L207.132 128.551L207.644 125.467L202.765 124.657L202.253 127.741ZM212.011 129.361L216.889 130.171L217.401 127.088L212.523 126.278L212.011 129.361ZM221.768 130.982L226.647 131.792L227.159 128.708L222.28 127.898L221.768 130.982ZM231.525 132.602L236.404 133.412L236.916 130.328L232.037 129.518L231.525 132.602ZM241.283 134.222L246.161 135.032L246.673 131.949L241.795 131.138L241.283 134.222ZM251.04 135.842L255.919 136.653L256.431 133.569L251.552 132.759L251.04 135.842ZM260.797 137.463L265.676 138.273L266.188 135.189L261.31 134.379L260.797 137.463ZM270.555 139.083L275.434 139.893L275.946 136.809L271.067 135.999L270.555 139.083ZM280.312 140.703L285.191 141.513L285.703 138.43L280.824 137.62L280.312 140.703ZM290.07 142.324L294.948 143.134L295.46 140.05L290.582 139.24L290.07 142.324ZM299.827 143.944L304.706 144.754L305.218 141.67L300.339 140.86L299.827 143.944ZM309.584 145.564L314.463 146.374L314.975 143.291L310.096 142.48L309.584 145.564ZM319.342 147.184L324.22 147.995L324.732 144.911L319.854 144.101L319.342 147.184ZM329.099 148.805L333.978 149.615L334.49 146.531L329.611 145.721L329.099 148.805ZM338.856 150.425L343.735 151.235L344.247 148.151L339.369 147.341L338.856 150.425ZM348.614 152.045L353.493 152.855L354.005 149.772L349.126 148.962L348.614 152.045ZM358.371 153.666L363.25 154.476L363.762 151.392L358.883 150.582L358.371 153.666ZM368.129 155.286L373.007 156.096L373.519 153.012L368.641 152.202L368.129 155.286ZM377.886 156.906L382.765 157.716L383.277 154.633L378.398 153.822L377.886 156.906ZM387.643 158.526L392.522 159.337L393.034 156.253L388.155 155.443L387.643 158.526ZM397.401 160.147L402.279 160.957L402.791 157.873L397.913 157.063L397.401 160.147ZM407.158 161.767L412.037 162.577L412.549 159.493L407.67 158.683L407.158 161.767ZM416.915 163.387L421.794 164.197L422.306 161.114L417.428 160.304L416.915 163.387ZM426.673 165.008L431.552 165.818L432.064 162.734L427.185 161.924L426.673 165.008ZM436.43 166.628L441.309 167.438L441.821 164.354L436.942 163.544L436.43 166.628ZM446.188 168.248L448.627 168.653L449.139 165.569L446.7 165.164L446.188 168.248Z" fill="#FFA500"/>
<path d="M461.373 153.703C461.7 153.985 462.193 153.948 462.475 153.621L467.066 148.294C467.348 147.967 467.311 147.473 466.984 147.191C466.657 146.91 466.164 146.946 465.882 147.273L461.801 152.009L457.065 147.928C456.738 147.646 456.245 147.683 455.963 148.01C455.681 148.337 455.718 148.83 456.045 149.112L461.373 153.703ZM457.793 108.583L458 111.37L459.559 111.254L459.352 108.468L457.793 108.583ZM458.414 116.943L458.827 122.516L460.386 122.401L459.972 116.827L458.414 116.943ZM459.241 128.09L459.655 133.663L461.214 133.547L460.8 127.974L459.241 128.09ZM460.069 139.236L460.483 144.809L462.041 144.694L461.628 139.12L460.069 139.236ZM460.897 150.383L461.103 153.169L462.662 153.053L462.455 150.267L460.897 150.383ZM460.863 154.295C461.516 154.859 462.503 154.786 463.067 154.132L472.25 143.476C472.813 142.822 472.74 141.835 472.086 141.272C471.432 140.708 470.445 140.781 469.882 141.435L461.719 150.907L452.247 142.745C451.593 142.181 450.607 142.254 450.043 142.908C449.48 143.562 449.553 144.549 450.207 145.113L460.863 154.295ZM457.014 108.641L457.221 111.428L460.338 111.196L460.131 108.41L457.014 108.641ZM457.634 117.001L458.048 122.574L461.165 122.343L460.752 116.77L457.634 117.001ZM458.462 128.147L458.876 133.721L461.993 133.489L461.579 127.916L458.462 128.147ZM459.29 139.294L459.703 144.867L462.821 144.636L462.407 139.062L459.29 139.294ZM460.117 150.44L460.324 153.227L463.441 152.996L463.235 150.209L460.117 150.44Z" fill="#FFA500"/>
<path d="M341.531 56.8468C341.13 57.005 340.932 57.4588 341.09 57.8603L343.669 64.4039C343.827 64.8055 344.281 65.0027 344.683 64.8445C345.084 64.6862 345.281 64.2324 345.123 63.8309L342.831 58.0144L348.648 55.7223C349.049 55.5641 349.246 55.1103 349.088 54.7087C348.93 54.3072 348.476 54.1099 348.075 54.2682L341.531 56.8468ZM444.972 101.558L442.634 100.542L442.011 101.975L444.349 102.991L444.972 101.558ZM437.96 98.5099L433.285 96.4781L432.662 97.9115L437.337 99.9434L437.96 98.5099ZM428.61 94.4463L423.936 92.4144L423.313 93.8478L427.987 95.8797L428.61 94.4463ZM419.261 90.3826L414.586 88.3507L413.963 89.7841L418.638 91.816L419.261 90.3826ZM409.912 86.3189L405.237 84.287L404.614 85.7204L409.289 87.7523L409.912 86.3189ZM400.562 82.2552L395.888 80.2233L395.265 81.6567L399.939 83.6886L400.562 82.2552ZM391.213 78.1915L386.538 76.1596L385.915 77.5931L390.59 79.6249L391.213 78.1915ZM381.864 74.1278L377.189 72.096L376.566 73.5294L381.241 75.5612L381.864 74.1278ZM372.514 70.0641L367.84 68.0323L367.217 69.4657L371.891 71.4975L372.514 70.0641ZM363.165 66.0004L358.49 63.9686L357.867 65.402L362.542 67.4338L363.165 66.0004ZM353.816 61.9367L349.141 59.9049L348.518 61.3383L353.193 63.3701L353.816 61.9367ZM344.466 57.873L342.129 56.8571L341.506 58.2905L343.843 59.3065L344.466 57.873ZM341.245 56.1197C340.441 56.4362 340.047 57.3438 340.363 58.1469L345.521 71.234C345.837 72.0371 346.745 72.4316 347.548 72.1151C348.351 71.7986 348.745 70.891 348.429 70.0879L343.845 58.4549L355.478 53.8707C356.281 53.5543 356.675 52.6467 356.359 51.8436C356.042 51.0405 355.135 50.646 354.332 50.9625L341.245 56.1197ZM445.283 100.841L442.946 99.8251L441.7 102.692L444.037 103.708L445.283 100.841ZM438.271 97.7932L433.597 95.7614L432.35 98.6282L437.025 100.66L438.271 97.7932ZM428.922 93.7295L424.247 91.6977L423.001 94.5645L427.676 96.5964L428.922 93.7295ZM419.573 89.6659L414.898 87.634L413.652 90.5008L418.326 92.5327L419.573 89.6659ZM410.223 85.6022L405.549 83.5703L404.302 86.4371L408.977 88.469L410.223 85.6022ZM400.874 81.5385L396.199 79.5066L394.953 82.3735L399.628 84.4053L400.874 81.5385ZM391.525 77.4748L386.85 75.4429L385.604 78.3098L390.278 80.3416L391.525 77.4748ZM382.175 73.4111L377.501 71.3793L376.254 74.2461L380.929 76.2779L382.175 73.4111ZM372.826 69.3474L368.151 67.3156L366.905 70.1824L371.58 72.2142L372.826 69.3474ZM363.477 65.2837L358.802 63.2519L357.556 66.1187L362.23 68.1505L363.477 65.2837ZM354.127 61.22L349.453 59.1882L348.207 62.055L352.881 64.0868L354.127 61.22ZM344.778 57.1563L342.441 56.1404L341.195 59.0072L343.532 60.0232L344.778 57.1563Z" fill="#FFA500"/>
<path d="M106.042 122.972H103.151L102.602 124.62H100.849L103.827 116.62H105.355L108.349 124.62H106.597L106.042 122.972ZM103.596 121.636H105.596L104.591 118.642L103.596 121.636Z" fill="black"/>
<path d="M452.095 124.62V116.62H454.898C455.868 116.62 456.605 116.807 457.106 117.18C457.608 117.55 457.859 118.094 457.859 118.812C457.859 119.204 457.758 119.55 457.557 119.851C457.356 120.147 457.075 120.365 456.716 120.505C457.127 120.607 457.449 120.814 457.683 121.125C457.921 121.437 458.041 121.818 458.041 122.268C458.041 123.038 457.795 123.62 457.304 124.016C456.813 124.411 456.114 124.613 455.205 124.62H452.095ZM453.744 121.136V123.296H455.156C455.544 123.296 455.846 123.204 456.062 123.021C456.282 122.834 456.392 122.578 456.392 122.252C456.392 121.519 456.013 121.147 455.255 121.136H453.744ZM453.744 119.972H454.963C455.795 119.957 456.211 119.625 456.211 118.977C456.211 118.614 456.105 118.354 455.892 118.197C455.683 118.036 455.352 117.955 454.898 117.955H453.744V119.972Z" fill="black"/>
</svg>
