<svg width="577" height="205" viewBox="0 0 577 205" fill="none" xmlns="http://www.w3.org/2000/svg">
<rect width="577" height="205" fill="white"/>
<line x1="199.277" y1="107.687" x2="481.86" y2="107.687" stroke="black" stroke-width="1.56296"/>
<line x1="199.277" y1="107.687" x2="481.86" y2="107.687" stroke="black" stroke-width="1.56296"/>
<path d="M482.1 108.24C482.405 107.935 482.405 107.44 482.1 107.135L477.127 102.162C476.822 101.856 476.327 101.856 476.022 102.162C475.716 102.467 475.716 102.962 476.022 103.267L480.442 107.688L476.022 112.108C475.716 112.413 475.716 112.908 476.022 113.213C476.327 113.519 476.822 113.519 477.127 113.213L482.1 108.24ZM199.277 108.469H481.547V106.906H199.277V108.469Z" fill="#008000"/>
<path d="M344.58 122.92L341.689 122.905L341.131 124.55L339.378 124.541L342.399 116.556L343.926 116.565L346.879 124.581L345.126 124.571L344.58 122.92ZM342.141 121.572L344.142 121.582L343.152 118.583L342.141 121.572ZM347.626 124.584L347.668 116.584L350.47 116.599C351.441 116.604 352.176 116.795 352.676 117.171C353.176 117.544 353.424 118.089 353.42 118.807C353.418 119.199 353.316 119.545 353.113 119.844C352.91 120.14 352.628 120.356 352.269 120.493C352.678 120.598 353 120.807 353.232 121.119C353.469 121.432 353.586 121.813 353.584 122.264C353.58 123.033 353.331 123.614 352.838 124.008C352.345 124.401 351.644 124.598 350.736 124.601L347.626 124.584ZM349.293 121.11L349.281 123.269L350.693 123.276C351.082 123.278 351.384 123.188 351.602 123.006C351.822 122.821 351.934 122.565 351.935 122.239C351.939 121.506 351.562 121.132 350.804 121.117L349.293 121.11ZM349.299 119.945L350.519 119.951C351.35 119.941 351.768 119.611 351.771 118.963C351.773 118.6 351.668 118.34 351.457 118.181C351.249 118.019 350.918 117.937 350.463 117.934L349.309 117.928L349.299 119.945Z" fill="#008000"/>
<path d="M200.6 122.916H197.71L197.16 124.564H195.408L198.386 116.564H199.913L202.908 124.564H201.155L200.6 122.916ZM198.155 121.581H200.155L199.15 118.586L198.155 121.581Z" fill="black"/>
<path d="M480.699 93.3047V85.3043H483.501C484.472 85.3043 485.208 85.4911 485.71 85.8648C486.212 86.2347 486.463 86.7787 486.463 87.4967C486.463 87.8887 486.362 88.2348 486.16 88.5352C485.959 88.8319 485.679 89.0499 485.32 89.1891C485.73 89.2917 486.052 89.4986 486.287 89.81C486.525 90.1214 486.644 90.5024 486.644 90.9529C486.644 91.7222 486.399 92.3046 485.908 92.7003C485.417 93.0959 484.717 93.2974 483.809 93.3047H480.699ZM482.347 89.821V91.9804H483.759C484.148 91.9804 484.45 91.8889 484.666 91.7057C484.886 91.5189 484.996 91.2625 484.996 90.9364C484.996 90.2038 484.616 89.832 483.858 89.821H482.347ZM482.347 88.6561H483.567C484.399 88.6415 484.814 88.3099 484.814 87.6616C484.814 87.2989 484.708 87.0388 484.496 86.8813C484.287 86.7201 483.955 86.6395 483.501 86.6395H482.347V88.6561Z" fill="black"/>
<circle cx="144.105" cy="71.4277" r="6.87701" transform="rotate(180 144.105 71.4277)" fill="#FF0000"/>
<circle cx="144.105" cy="71.4277" r="6.87701" transform="rotate(180 144.105 71.4277)" fill="#FF0000"/>
<path d="M150.785 77.5477C150.367 77.6563 150.117 78.083 150.225 78.5007L151.995 85.3077C152.104 85.7254 152.53 85.976 152.948 85.8674C153.366 85.7588 153.616 85.3321 153.508 84.9144L151.935 78.8637L157.985 77.2906C158.403 77.182 158.654 76.7553 158.545 76.3376C158.436 75.9199 158.01 75.6693 157.592 75.7779L150.785 77.5477ZM200.611 106.545L198.559 105.34L197.768 106.688L199.819 107.893L200.611 106.545ZM194.456 102.931L190.354 100.521L189.562 101.869L193.665 104.278L194.456 102.931ZM186.251 98.1114L182.148 95.7019L181.357 97.0496L185.459 99.4592L186.251 98.1114ZM178.045 93.2923L173.943 90.8828L173.151 92.2305L177.254 94.64L178.045 93.2923ZM169.84 88.4732L165.737 86.0636L164.946 87.4114L169.048 89.8209L169.84 88.4732ZM161.634 83.6541L157.532 81.2445L156.74 82.5922L160.843 85.0018L161.634 83.6541ZM153.429 78.835L151.377 77.6302L150.586 78.9779L152.637 80.1827L153.429 78.835ZM150.588 76.7914C149.753 77.0086 149.252 77.8619 149.469 78.6973L153.009 92.3113C153.226 93.1467 154.079 93.6479 154.915 93.4307C155.75 93.2135 156.251 92.3602 156.034 91.5247L152.888 79.4234L164.989 76.2771C165.824 76.0599 166.326 75.2065 166.108 74.3711C165.891 73.5357 165.038 73.0345 164.202 73.2517L150.588 76.7914ZM201.006 105.871L198.955 104.666L197.372 107.362L199.423 108.566L201.006 105.871ZM194.852 102.257L190.749 99.8471L189.166 102.543L193.269 104.952L194.852 102.257ZM186.647 97.4376L182.544 95.028L180.961 97.7235L185.064 100.133L186.647 97.4376ZM178.441 92.6185L174.338 90.2089L172.755 92.9043L176.858 95.3139L178.441 92.6185ZM170.236 87.7993L166.133 85.3898L164.55 88.0852L168.653 90.4948L170.236 87.7993ZM162.03 82.9802L157.927 80.5707L156.344 83.2661L160.447 85.6757L162.03 82.9802ZM153.825 78.1611L151.773 76.9563L150.19 79.6518L152.242 80.8565L153.825 78.1611Z" fill="#FFA500"/>
<path d="M128.846 71.0836H125.681V73.2265H129.396V74.5508H124.033V66.5504H129.385V67.8856H125.681V69.7923H128.846V71.0836Z" fill="black"/>
<path d="M180.907 83.375H178.017L177.467 85.0234H175.714L178.692 77.0231H180.22L183.215 85.0234H181.462L180.907 83.375ZM178.462 82.0398H180.462L179.456 79.0451L178.462 82.0398ZM188.775 81.5562H185.61V83.6992H189.325V85.0234H183.962V77.0231H189.314V78.3583H185.61V80.265H188.775V81.5562Z" fill="#FFA500"/>
</svg>
