<svg width="577" height="205" viewBox="0 0 577 205" fill="none" xmlns="http://www.w3.org/2000/svg">
<rect width="577" height="204" transform="translate(0 0.0546875)" fill="white"/>
<line x1="114.719" y1="107.742" x2="465.29" y2="107.742" stroke="black" stroke-width="1.56296"/>
<circle cx="520.15" cy="144.004" r="6.87701" fill="#FF0000"/>
<circle cx="520.15" cy="144.004" r="6.87701" fill="#FFA500"/>
<line x1="114.719" y1="107.742" x2="465.29" y2="107.742" stroke="black" stroke-width="1.56296"/>
<path d="M465.53 108.295C465.835 107.99 465.835 107.495 465.53 107.19L460.557 102.216C460.252 101.911 459.757 101.911 459.452 102.216C459.146 102.521 459.146 103.016 459.452 103.321L463.872 107.742L459.452 112.163C459.146 112.468 459.146 112.963 459.452 113.268C459.757 113.573 460.252 113.573 460.557 113.268L465.53 108.295ZM114.719 108.524H464.978V106.961H114.719V108.524Z" fill="#008000"/>
<path d="M308.648 119.85L305.758 119.834L305.2 121.48L303.447 121.471L306.467 113.486L307.995 113.494L310.947 121.51L309.194 121.501L308.648 119.85ZM306.21 118.502L308.21 118.512L307.22 115.512L306.21 118.502ZM311.694 121.514L311.736 113.514L314.539 113.529C315.509 113.534 316.245 113.724 316.745 114.101C317.245 114.473 317.493 115.019 317.489 115.737C317.487 116.129 317.384 116.474 317.181 116.774C316.978 117.069 316.697 117.286 316.337 117.423C316.747 117.528 317.068 117.736 317.301 118.049C317.537 118.362 317.654 118.743 317.652 119.194C317.648 119.963 317.399 120.544 316.906 120.937C316.414 121.33 315.713 121.528 314.804 121.531L311.694 121.514ZM313.361 118.039L313.35 120.199L314.762 120.206C315.15 120.208 315.453 120.118 315.67 119.936C315.891 119.75 316.002 119.495 316.004 119.169C316.007 118.436 315.63 118.062 314.872 118.047L313.361 118.039ZM313.367 116.874L314.587 116.881C315.419 116.87 315.836 116.541 315.84 115.893C315.841 115.53 315.737 115.27 315.525 115.111C315.317 114.949 314.986 114.866 314.532 114.864L313.378 114.858L313.367 116.874Z" fill="#008000"/>
<path d="M513.436 140.547C513.858 140.456 514.126 140.041 514.036 139.619L512.563 132.742C512.473 132.32 512.058 132.051 511.636 132.141C511.214 132.231 510.945 132.647 511.035 133.069L512.344 139.182L506.231 140.491C505.809 140.582 505.54 140.997 505.63 141.419C505.721 141.841 506.136 142.11 506.558 142.019L513.436 140.547ZM464.552 109.179L466.564 110.482L467.413 109.17L465.401 107.867L464.552 109.179ZM470.589 113.087L474.613 115.692L475.463 114.38L471.438 111.775L470.589 113.087ZM478.638 118.297L482.663 120.902L483.512 119.59L479.487 116.985L478.638 118.297ZM486.687 123.507L490.712 126.112L491.561 124.799L487.537 122.194L486.687 123.507ZM494.737 128.716L498.761 131.321L499.61 130.009L495.586 127.404L494.737 128.716ZM502.786 133.926L506.81 136.531L507.66 135.219L503.635 132.614L502.786 133.926ZM510.835 139.136L512.847 140.439L513.697 139.127L511.684 137.824L510.835 139.136ZM513.599 141.311C514.443 141.13 514.981 140.299 514.8 139.455L511.855 125.701C511.674 124.856 510.843 124.319 509.999 124.5C509.155 124.68 508.617 125.511 508.798 126.355L511.416 138.582L499.19 141.2C498.346 141.381 497.808 142.211 497.989 143.055C498.17 143.899 499 144.437 499.844 144.256L513.599 141.311ZM464.127 109.836L466.14 111.138L467.838 108.514L465.826 107.211L464.127 109.836ZM470.164 113.743L474.189 116.348L475.887 113.724L471.863 111.119L470.164 113.743ZM478.213 118.953L482.238 121.558L483.937 118.934L479.912 116.329L478.213 118.953ZM486.263 124.163L490.287 126.768L491.986 124.143L487.961 121.538L486.263 124.163ZM494.312 129.373L498.337 131.977L500.035 129.353L496.01 126.748L494.312 129.373ZM502.361 134.582L506.386 137.187L508.084 134.563L504.06 131.958L502.361 134.582ZM510.41 139.792L512.423 141.095L514.121 138.47L512.109 137.168L510.41 139.792Z" fill="#FFA500"/>
<path d="M116.042 122.973H113.151L112.602 124.621H110.849L113.827 116.621H115.355L118.349 124.621H116.597L116.042 122.973ZM113.596 121.637H115.596L114.591 118.643L113.596 121.637Z" fill="black"/>
<path d="M463.66 93.3613V85.3609H466.462C467.433 85.3609 468.169 85.5478 468.671 85.9214C469.173 86.2914 469.424 86.8354 469.424 87.5534C469.424 87.9453 469.323 88.2915 469.121 88.5919C468.92 88.8886 468.64 89.1065 468.281 89.2457C468.691 89.3483 469.013 89.5553 469.248 89.8667C469.486 90.178 469.605 90.559 469.605 91.0096C469.605 91.7788 469.36 92.3613 468.869 92.7569C468.378 93.1525 467.678 93.354 466.77 93.3613H463.66ZM465.308 89.8776V92.0371H466.72C467.109 92.0371 467.411 91.9455 467.627 91.7623C467.847 91.5755 467.957 91.3191 467.957 90.9931C467.957 90.2604 467.577 89.8886 466.819 89.8776H465.308ZM465.308 88.7128H466.528C467.359 88.6981 467.775 88.3666 467.775 87.7182C467.775 87.3555 467.669 87.0955 467.457 86.9379C467.248 86.7768 466.916 86.6962 466.462 86.6962H465.308V88.7128Z" fill="black"/>
<path d="M522.395 160.697H519.23V162.84H522.944V164.164H517.582V156.164H522.933V157.499H519.23V159.406H522.395V160.697Z" fill="black"/>
<path d="M326.231 76.4063H323.341L322.791 78.0547H321.038L324.017 70.0543H325.544L328.539 78.0547H326.786L326.231 76.4063ZM323.786 75.071H325.786L324.78 72.0764L323.786 75.071ZM329.286 78.0547V70.0543H332.088C333.059 70.0543 333.795 70.2411 334.297 70.6148C334.799 70.9847 335.05 71.5287 335.05 72.2467C335.05 72.6387 334.949 72.9848 334.748 73.2852C334.546 73.5819 334.266 73.7999 333.907 73.9391C334.317 74.0417 334.64 74.2486 334.874 74.56C335.112 74.8714 335.231 75.2524 335.231 75.7029C335.231 76.4722 334.986 77.0546 334.495 77.4503C334.004 77.8459 333.305 78.0474 332.396 78.0547H329.286ZM330.935 74.571V76.7304H332.347C332.735 76.7304 333.037 76.6389 333.253 76.4557C333.473 76.2689 333.583 76.0125 333.583 75.6864C333.583 74.9538 333.204 74.582 332.446 74.571H330.935ZM330.935 73.4061H332.154C332.986 73.3915 333.402 73.0599 333.402 72.4116C333.402 72.0489 333.295 71.7888 333.083 71.6313C332.874 71.4701 332.543 71.3895 332.088 71.3895H330.935V73.4061ZM341.287 74.5875H338.122V76.7304H341.836V78.0547H336.473V70.0543H341.825V71.3895H338.122V73.2962H341.287V74.5875Z" fill="#0000FF"/>
<circle cx="59.5449" cy="71.4824" r="6.87701" transform="rotate(180 59.5449 71.4824)" fill="#FF0000"/>
<circle cx="59.5449" cy="71.4824" r="6.87701" transform="rotate(180 59.5449 71.4824)" fill="#FFA500"/>
<path d="M66.2265 77.6024C65.8087 77.711 65.5582 78.1377 65.6668 78.5554L67.4366 85.3624C67.5452 85.7801 67.9719 86.0307 68.3896 85.9221C68.8073 85.8135 69.0579 85.3868 68.9493 84.9691L67.3761 78.9184L73.4267 77.3452C73.8444 77.2366 74.095 76.81 73.9864 76.3923C73.8778 75.9746 73.4512 75.724 73.0334 75.8326L66.2265 77.6024ZM116.052 106.6L114.001 105.395L113.209 106.743L115.26 107.947L116.052 106.6ZM109.898 102.985L105.795 100.576L105.004 101.923L109.106 104.333L109.898 102.985ZM101.692 98.1661L97.5896 95.7566L96.7981 97.1043L100.901 99.5138L101.692 98.1661ZM93.4868 93.347L89.3841 90.9374L88.5925 92.2852L92.6953 94.6947L93.4868 93.347ZM85.2813 88.5279L81.1785 86.1183L80.387 87.466L84.4898 89.8756L85.2813 88.5279ZM77.0758 83.7088L72.973 81.2992L72.1815 82.6469L76.2843 85.0565L77.0758 83.7088ZM68.8702 78.8897L66.8189 77.6849L66.0273 79.0326L68.0787 80.2374L68.8702 78.8897ZM66.0298 76.8461C65.1944 77.0633 64.6932 77.9166 64.9104 78.752L68.4501 92.366C68.6673 93.2014 69.5206 93.7026 70.356 93.4854C71.1915 93.2682 71.6926 92.4148 71.4754 91.5794L68.3291 79.4781L80.4304 76.3318C81.2658 76.1146 81.767 75.2612 81.5498 74.4258C81.3325 73.5904 80.4792 73.0892 79.6438 73.3064L66.0298 76.8461ZM116.448 105.926L114.396 104.721L112.813 107.416L114.865 108.621L116.448 105.926ZM110.294 102.311L106.191 99.9018L104.608 102.597L108.711 105.007L110.294 102.311ZM102.088 97.4923L97.9853 95.0827L96.4023 97.7781L100.505 100.188L102.088 97.4923ZM93.8826 92.6731L89.7798 90.2636L88.1968 92.959L92.2995 95.3686L93.8826 92.6731ZM85.677 87.854L81.5743 85.4445L79.9913 88.1399L84.094 90.5495L85.677 87.854ZM77.4715 83.0349L73.3688 80.6254L71.7857 83.3208L75.8885 85.7303L77.4715 83.0349ZM69.266 78.2158L67.2146 77.011L65.6316 79.7064L67.683 80.9112L69.266 78.2158Z" fill="#FFA500"/>
<path d="M44.2856 71.1383H41.1206V73.2812H44.835V74.6055H39.4721V66.6051H44.824V67.9403H41.1206V69.847H44.2856V71.1383Z" fill="black"/>
<path d="M96.3482 83.4297H93.458L92.9085 85.0781H91.1557L94.1338 77.0777H95.6614L98.656 85.0781H96.9032L96.3482 83.4297ZM93.903 82.0945H95.9031L94.8976 79.0998L93.903 82.0945ZM104.217 81.6109H101.052V83.7539H104.766V85.0781H99.4033V77.0777H104.755V78.413H101.052V80.3197H104.217V81.6109Z" fill="#FFA500"/>
<line x1="313.781" y1="49.0547" x2="313.781" y2="106.884" stroke="#0000FF" stroke-width="1.56296" stroke-dasharray="5 5"/>
<circle cx="313.877" cy="45.9316" r="6.87701" transform="rotate(180 313.877 45.9316)" fill="#0000FF"/>
</svg>
