<svg width="577" height="204" viewBox="0 0 577 204" fill="none" xmlns="http://www.w3.org/2000/svg">
<rect width="577" height="204" fill="white"/>
<line x1="104.719" y1="107.689" x2="455.29" y2="107.689" stroke="black" stroke-width="1.56296"/>
<circle cx="510.15" cy="143.949" r="6.87701" fill="#FF0000"/>
<circle cx="510.15" cy="143.949" r="6.87701" fill="#FF0000"/>
<line x1="104.719" y1="107.689" x2="455.29" y2="107.689" stroke="black" stroke-width="1.56296"/>
<path d="M455.53 108.24C455.835 107.935 455.835 107.44 455.53 107.135L450.557 102.162C450.252 101.856 449.757 101.856 449.452 102.162C449.146 102.467 449.146 102.962 449.452 103.267L453.872 107.688L449.452 112.108C449.146 112.413 449.146 112.908 449.452 113.213C449.757 113.519 450.252 113.519 450.557 113.213L455.53 108.24ZM104.719 108.469H454.978V106.906H104.719V108.469Z" fill="#008000"/>
<path d="M298.648 119.795L295.758 119.78L295.2 121.425L293.447 121.416L296.467 113.431L297.995 113.44L300.947 121.456L299.194 121.446L298.648 119.795ZM296.21 118.447L298.21 118.457L297.22 115.458L296.21 118.447ZM301.694 121.459L301.736 113.459L304.539 113.474C305.509 113.479 306.245 113.67 306.745 114.046C307.245 114.419 307.493 114.964 307.489 115.682C307.487 116.074 307.384 116.42 307.181 116.719C306.978 117.015 306.697 117.231 306.337 117.368C306.747 117.473 307.068 117.682 307.301 117.994C307.537 118.307 307.654 118.688 307.652 119.139C307.648 119.908 307.399 120.489 306.906 120.883C306.414 121.276 305.713 121.473 304.804 121.476L301.694 121.459ZM303.361 117.985L303.35 120.144L304.762 120.151C305.15 120.153 305.453 120.063 305.67 119.881C305.891 119.696 306.002 119.44 306.004 119.114C306.007 118.381 305.63 118.007 304.872 117.992L303.361 117.985ZM303.367 116.82L304.587 116.826C305.419 116.816 305.836 116.486 305.84 115.838C305.841 115.475 305.737 115.215 305.525 115.056C305.317 114.894 304.986 114.812 304.532 114.809L303.378 114.803L303.367 116.82Z" fill="#008000"/>
<path d="M503.436 140.494C503.858 140.404 504.126 139.988 504.036 139.566L502.563 132.689C502.473 132.267 502.058 131.998 501.636 132.088C501.214 132.179 500.945 132.594 501.035 133.016L502.344 139.129L496.231 140.438C495.809 140.529 495.54 140.944 495.63 141.366C495.721 141.788 496.136 142.057 496.558 141.967L503.436 140.494ZM454.552 109.127L456.564 110.429L457.413 109.117L455.401 107.815L454.552 109.127ZM460.589 113.034L464.613 115.639L465.463 114.327L461.438 111.722L460.589 113.034ZM468.638 118.244L472.663 120.849L473.512 119.537L469.487 116.932L468.638 118.244ZM476.687 123.454L480.712 126.059L481.561 124.747L477.537 122.142L476.687 123.454ZM484.737 128.664L488.761 131.269L489.61 129.957L485.586 127.352L484.737 128.664ZM492.786 133.874L496.81 136.479L497.66 135.166L493.635 132.561L492.786 133.874ZM500.835 139.083L502.847 140.386L503.697 139.074L501.684 137.771L500.835 139.083ZM503.599 141.258C504.443 141.077 504.981 140.247 504.8 139.403L501.855 125.648C501.674 124.804 500.843 124.266 499.999 124.447C499.155 124.628 498.617 125.458 498.798 126.302L501.416 138.529L489.19 141.147C488.346 141.328 487.808 142.159 487.989 143.003C488.17 143.847 489 144.384 489.844 144.204L503.599 141.258ZM454.127 109.783L456.14 111.085L457.838 108.461L455.826 107.159L454.127 109.783ZM460.164 113.69L464.189 116.295L465.887 113.671L461.863 111.066L460.164 113.69ZM468.213 118.9L472.238 121.505L473.937 118.881L469.912 116.276L468.213 118.9ZM476.263 124.11L480.287 126.715L481.986 124.091L477.961 121.486L476.263 124.11ZM484.312 129.32L488.337 131.925L490.035 129.301L486.01 126.696L484.312 129.32ZM492.361 134.53L496.386 137.135L498.084 134.51L494.06 131.905L492.361 134.53ZM500.41 139.739L502.423 141.042L504.121 138.418L502.109 137.115L500.41 139.739Z" fill="#FFA500"/>
<path d="M106.042 122.918H103.151L102.602 124.566H100.849L103.827 116.566H105.355L108.349 124.566H106.597L106.042 122.918ZM103.596 121.583H105.596L104.591 118.588L103.596 121.583Z" fill="black"/>
<path d="M453.66 93.3066V85.3063H456.462C457.433 85.3063 458.169 85.4931 458.671 85.8667C459.173 86.2367 459.424 86.7807 459.424 87.4987C459.424 87.8906 459.323 88.2368 459.121 88.5372C458.92 88.8339 458.64 89.0519 458.281 89.1911C458.691 89.2936 459.013 89.5006 459.248 89.812C459.486 90.1233 459.605 90.5043 459.605 90.9549C459.605 91.7241 459.36 92.3066 458.869 92.7022C458.378 93.0978 457.678 93.2993 456.77 93.3066H453.66ZM455.308 89.823V91.9824H456.72C457.109 91.9824 457.411 91.8908 457.627 91.7077C457.847 91.5208 457.957 91.2644 457.957 90.9384C457.957 90.2058 457.577 89.8339 456.819 89.823H455.308ZM455.308 88.6581H456.528C457.359 88.6434 457.775 88.3119 457.775 87.6635C457.775 87.3009 457.669 87.0408 457.457 86.8833C457.248 86.7221 456.916 86.6415 456.462 86.6415H455.308V88.6581Z" fill="black"/>
<path d="M512.395 160.64H509.23V162.783H512.944V164.107H507.582V156.107H512.933V157.442H509.23V159.349H512.395V160.64Z" fill="black"/>
<path d="M462.88 133.943V125.943H465.683C466.653 125.943 467.39 126.13 467.892 126.503C468.393 126.873 468.644 127.417 468.644 128.135C468.644 128.527 468.544 128.874 468.342 129.174C468.141 129.471 467.86 129.689 467.501 129.828C467.912 129.93 468.234 130.137 468.469 130.449C468.707 130.76 468.826 131.141 468.826 131.592C468.826 132.361 468.58 132.943 468.089 133.339C467.599 133.735 466.899 133.936 465.99 133.943H462.88ZM464.529 130.46V132.619H465.941C466.329 132.619 466.631 132.528 466.848 132.344C467.067 132.158 467.177 131.901 467.177 131.575C467.177 130.842 466.798 130.471 466.04 130.46H464.529ZM464.529 129.295H465.749C466.58 129.28 466.996 128.949 466.996 128.3C466.996 127.938 466.89 127.677 466.677 127.52C466.468 127.359 466.137 127.278 465.683 127.278H464.529V129.295ZM474.881 130.476H471.716V132.619H475.43V133.943H470.067V125.943H475.419V127.278H471.716V129.185H474.881V130.476Z" fill="#FFA500"/>
<circle cx="49.5449" cy="71.4277" r="6.87701" transform="rotate(180 49.5449 71.4277)" fill="#FF0000"/>
<circle cx="49.5449" cy="71.4277" r="6.87701" transform="rotate(180 49.5449 71.4277)" fill="#FF0000"/>
<path d="M56.2265 77.5497C55.8087 77.6583 55.5582 78.0849 55.6668 78.5026L57.4366 85.3096C57.5452 85.7273 57.9719 85.9779 58.3896 85.8693C58.8073 85.7607 59.0579 85.3341 58.9493 84.9163L57.3761 78.8657L63.4267 77.2925C63.8445 77.1839 64.095 76.7572 63.9864 76.3395C63.8778 75.9218 63.4512 75.6712 63.0334 75.7798L56.2265 77.5497ZM106.052 106.547L104.001 105.342L103.209 106.69L105.26 107.895L106.052 106.547ZM99.8979 102.933L95.7951 100.523L95.0036 101.871L99.1063 104.28L99.8979 102.933ZM91.6923 98.1134L87.5896 95.7038L86.7981 97.0515L90.9008 99.4611L91.6923 98.1134ZM83.4868 93.2943L79.3841 90.8847L78.5925 92.2324L82.6953 94.642L83.4868 93.2943ZM75.2813 88.4752L71.1785 86.0656L70.387 87.4133L74.4898 89.8229L75.2813 88.4752ZM67.0758 83.656L62.973 81.2465L62.1815 82.5942L66.2843 85.0038L67.0758 83.656ZM58.8702 78.8369L56.8189 77.6321L56.0273 78.9799L58.0787 80.1846L58.8702 78.8369ZM56.0298 76.7933C55.1944 77.0105 54.6932 77.8639 54.9104 78.6993L58.4501 92.3133C58.6673 93.1487 59.5206 93.6499 60.356 93.4326C61.1915 93.2154 61.6926 92.3621 61.4754 91.5267L58.3291 79.4254L70.4304 76.279C71.2658 76.0618 71.767 75.2085 71.5497 74.3731C71.3325 73.5376 70.4792 73.0365 69.6438 73.2537L56.0298 76.7933ZM106.448 105.873L104.396 104.668L102.813 107.364L104.865 108.568L106.448 105.873ZM100.294 102.259L96.1909 99.8491L94.6078 102.545L98.7106 104.954L100.294 102.259ZM92.0881 97.4395L87.9853 95.03L86.4023 97.7254L90.5051 100.135L92.0881 97.4395ZM83.8826 92.6204L79.7798 90.2109L78.1968 92.9063L82.2995 95.3158L83.8826 92.6204ZM75.6771 87.8013L71.5743 85.3917L69.9913 88.0872L74.094 90.4967L75.6771 87.8013ZM67.4715 82.9822L63.3688 80.5726L61.7857 83.2681L65.8885 85.6776L67.4715 82.9822ZM59.266 78.1631L57.2146 76.9583L55.6316 79.6537L57.683 80.8585L59.266 78.1631Z" fill="#FFA500"/>
<path d="M34.2856 71.0855H31.1206V73.2285H34.835V74.5527H29.4721V66.5523H34.824V67.8876H31.1206V69.7943H34.2856V71.0855Z" fill="black"/>
<path d="M86.3482 83.375H83.458L82.9085 85.0234H81.1557L84.1338 77.0231H85.6614L88.656 85.0234H86.9032L86.3482 83.375ZM83.903 82.0398H85.9031L84.8976 79.0451L83.903 82.0398ZM94.2167 81.5562H91.0517V83.6992H94.7662V85.0234H89.4033V77.0231H94.7552V78.3583H91.0517V80.265H94.2167V81.5562Z" fill="#FFA500"/>
<path d="M28.2056 144.486H25.3154L24.7659 146.135H23.0131L25.9912 138.134H27.5188L30.5134 146.135H28.7606L28.2056 144.486ZM25.7605 143.151H27.7606L26.755 140.156L25.7605 143.151ZM31.2607 146.135V138.134H34.0631C35.0338 138.134 35.7701 138.321 36.272 138.695C36.7738 139.065 37.0247 139.609 37.0247 140.327C37.0247 140.719 36.924 141.065 36.7225 141.365C36.5211 141.662 36.2408 141.88 35.8818 142.019C36.2921 142.122 36.6145 142.329 36.8489 142.64C37.087 142.951 37.2061 143.332 37.2061 143.783C37.2061 144.552 36.9606 145.135 36.4698 145.53C35.9789 145.926 35.2792 146.127 34.3708 146.135H31.2607ZM32.9092 142.651V144.811H34.3213C34.7096 144.811 35.0118 144.719 35.2279 144.536C35.4477 144.349 35.5576 144.093 35.5576 143.767C35.5576 143.034 35.1785 142.662 34.4202 142.651H32.9092ZM32.9092 141.486H34.129C34.9605 141.472 35.3763 141.14 35.3763 140.492C35.3763 140.129 35.2701 139.869 35.0576 139.711C34.8488 139.55 34.5173 139.47 34.0631 139.47H32.9092V141.486ZM97.3189 144.486H94.4286L93.8791 146.135H92.1263L95.1045 138.134H96.632L99.6267 146.135H97.8738L97.3189 144.486ZM94.8737 143.151H96.8738L95.8682 140.156L94.8737 143.151ZM100.374 146.135V138.134H103.176C104.147 138.134 104.883 138.321 105.385 138.695C105.887 139.065 106.138 139.609 106.138 140.327C106.138 140.719 106.037 141.065 105.836 141.365C105.634 141.662 105.354 141.88 104.995 142.019C105.405 142.122 105.728 142.329 105.962 142.64C106.2 142.951 106.319 143.332 106.319 143.783C106.319 144.552 106.074 145.135 105.583 145.53C105.092 145.926 104.392 146.127 103.484 146.135H100.374ZM102.022 142.651V144.811H103.435C103.823 144.811 104.125 144.719 104.341 144.536C104.561 144.349 104.671 144.093 104.671 143.767C104.671 143.034 104.292 142.662 103.533 142.651H102.022ZM102.022 141.486H103.242C104.074 141.472 104.49 141.14 104.49 140.492C104.49 140.129 104.383 139.869 104.171 139.711C103.962 139.55 103.631 139.47 103.176 139.47H102.022V141.486Z" fill="#008000"/>
<path d="M38.4259 145.355C38.4259 145.102 38.5102 144.897 38.6787 144.739C38.8508 144.582 39.0651 144.503 39.3216 144.503C39.5816 144.503 39.7959 144.582 39.9644 144.739C40.1366 144.897 40.2227 145.102 40.2227 145.355C40.2227 145.604 40.1384 145.807 39.9699 145.964C39.8014 146.118 39.5853 146.195 39.3216 146.195C39.0615 146.195 38.8472 146.118 38.6787 145.964C38.5102 145.807 38.4259 145.604 38.4259 145.355ZM43.8822 141.964L44.8823 140.189H46.5801L44.8878 143.102L46.6516 146.135H44.9482L43.8877 144.267L42.8327 146.135H41.1238L42.8877 143.102L41.2008 140.189H42.9041L43.8822 141.964ZM51.4101 140.849L49.6847 140.36L50.0089 139.365L51.7178 140.052L51.6079 138.134H52.6848L52.5749 140.091L54.2399 139.415L54.5641 140.42L52.8057 140.909L53.9596 142.371L53.086 142.992L52.0859 141.387L51.0969 142.937L50.2232 142.343L51.4101 140.849ZM72.0319 145.355C72.0319 145.102 72.1162 144.897 72.2847 144.739C72.4569 144.582 72.6712 144.503 72.9276 144.503C73.1877 144.503 73.402 144.582 73.5705 144.739C73.7426 144.897 73.8287 145.102 73.8287 145.355C73.8287 145.604 73.7445 145.807 73.576 145.964C73.4075 146.118 73.1913 146.195 72.9276 146.195C72.6675 146.195 72.4532 146.118 72.2847 145.964C72.1162 145.807 72.0319 145.604 72.0319 145.355ZM77.4882 141.964L78.4883 140.189H80.1862L78.4938 143.102L80.2576 146.135H78.5542L77.4937 144.267L76.4387 146.135H74.7299L76.4937 143.102L74.8068 140.189H76.5102L77.4882 141.964ZM86.9557 141.657H88.9393V143.091H86.9557V145.333H85.4447V143.091H83.4556V141.657H85.4447V139.508H86.9557V141.657ZM107.539 145.355C107.539 145.102 107.623 144.897 107.792 144.739C107.964 144.582 108.178 144.503 108.435 144.503C108.695 144.503 108.909 144.582 109.078 144.739C109.25 144.897 109.336 145.102 109.336 145.355C109.336 145.604 109.252 145.807 109.083 145.964C108.915 146.118 108.699 146.195 108.435 146.195C108.175 146.195 107.96 146.118 107.792 145.964C107.623 145.807 107.539 145.604 107.539 145.355ZM112.951 143.887L114.05 140.189H115.754L113.364 147.058L113.232 147.371C112.876 148.148 112.29 148.536 111.473 148.536C111.243 148.536 111.008 148.501 110.77 148.432V147.228L111.012 147.234C111.312 147.234 111.536 147.188 111.682 147.096C111.832 147.005 111.95 146.853 112.034 146.64L112.221 146.151L110.138 140.189H111.847L112.951 143.887ZM120.446 140.849L118.721 140.36L119.045 139.365L120.754 140.052L120.644 138.134H121.721L121.611 140.091L123.276 139.415L123.6 140.42L121.842 140.909L122.996 142.371L122.122 142.992L121.122 141.387L120.133 142.937L119.259 142.343L120.446 140.849ZM141.068 145.355C141.068 145.102 141.152 144.897 141.321 144.739C141.493 144.582 141.707 144.503 141.964 144.503C142.224 144.503 142.438 144.582 142.607 144.739C142.779 144.897 142.865 145.102 142.865 145.355C142.865 145.604 142.781 145.807 142.612 145.964C142.444 146.118 142.228 146.195 141.964 146.195C141.704 146.195 141.49 146.118 141.321 145.964C141.152 145.807 141.068 145.604 141.068 145.355ZM146.481 143.887L147.58 140.189H149.283L146.893 147.058L146.761 147.371C146.405 148.148 145.819 148.536 145.002 148.536C144.772 148.536 144.537 148.501 144.299 148.432V147.228L144.541 147.234C144.841 147.234 145.065 147.188 145.211 147.096C145.361 147.005 145.479 146.853 145.563 146.64L145.75 146.151L143.667 140.189H145.376L146.481 143.887ZM153.997 142.739L157.129 143.843V145.382L152.398 143.376V142.08L157.129 140.074V141.613L153.997 142.739ZM166.558 142.827C166.558 143.933 166.33 144.779 165.872 145.365C165.414 145.952 164.743 146.245 163.861 146.245C162.989 146.245 162.322 145.957 161.86 145.382C161.399 144.807 161.163 143.983 161.152 142.909V141.437C161.152 140.319 161.382 139.471 161.844 138.893C162.309 138.314 162.978 138.024 163.85 138.024C164.721 138.024 165.388 138.312 165.85 138.887C166.311 139.459 166.547 140.281 166.558 141.354V142.827ZM164.97 141.211C164.97 140.548 164.879 140.067 164.696 139.766C164.516 139.462 164.234 139.31 163.85 139.31C163.476 139.31 163.199 139.455 163.02 139.744C162.844 140.03 162.751 140.479 162.74 141.091V143.036C162.74 143.688 162.828 144.173 163.003 144.492C163.183 144.807 163.469 144.964 163.861 144.964C164.249 144.964 164.529 144.812 164.701 144.508C164.873 144.204 164.963 143.739 164.97 143.113V141.211Z" fill="black"/>
<path d="M62.6688 144.486H59.7786L59.2291 146.135H57.4763L60.4544 138.134H61.982L64.9766 146.135H63.2238L62.6688 144.486ZM60.2237 143.151H62.2238L61.2182 140.156L60.2237 143.151ZM70.5374 142.668H67.3724V144.811H71.0868V146.135H65.7239V138.134H71.0758V139.47H67.3724V141.376H70.5374V142.668ZM131.705 144.486H128.815L128.265 146.135H126.513L129.491 138.134H131.018L134.013 146.135H132.26L131.705 144.486ZM129.26 143.151H131.26L130.255 140.156L129.26 143.151ZM139.574 142.668H136.409V144.811H140.123V146.135H134.76V138.134H140.112V139.47H136.409V141.376H139.574V142.668Z" fill="#FFA500"/>
<path d="M386.436 54.459H383.546L382.996 56.1074H381.244L384.222 48.107H385.749L388.744 56.1074H386.991L386.436 54.459ZM383.991 53.1238H385.991L384.985 50.1291L383.991 53.1238ZM389.491 56.1074V48.107H392.294C393.264 48.107 394.001 48.2939 394.502 48.6675C395.004 49.0375 395.255 49.5815 395.255 50.2994C395.255 50.6914 395.154 51.0376 394.953 51.338C394.752 51.6347 394.471 51.8526 394.112 51.9918C394.523 52.0944 394.845 52.3014 395.079 52.6127C395.317 52.9241 395.437 53.3051 395.437 53.7557C395.437 54.5249 395.191 55.1074 394.7 55.503C394.209 55.8986 393.51 56.1001 392.601 56.1074H389.491ZM391.14 52.6237V54.7832H392.552C392.94 54.7832 393.242 54.6916 393.458 54.5084C393.678 54.3216 393.788 54.0652 393.788 53.7392C393.788 53.0065 393.409 52.6347 392.651 52.6237H391.14ZM391.14 51.4588H392.359C393.191 51.4442 393.607 51.1127 393.607 50.4643C393.607 50.1016 393.501 49.8416 393.288 49.684C393.079 49.5229 392.748 49.4423 392.294 49.4423H391.14V51.4588ZM455.165 54.459H452.274L451.725 56.1074H449.972L452.95 48.107H454.478L457.473 56.1074H455.72L455.165 54.459ZM452.72 53.1238H454.72L453.714 50.1291L452.72 53.1238ZM458.22 56.1074V48.107H461.022C461.993 48.107 462.729 48.2939 463.231 48.6675C463.733 49.0375 463.984 49.5815 463.984 50.2994C463.984 50.6914 463.883 51.0376 463.682 51.338C463.48 51.6347 463.2 51.8526 462.841 51.9918C463.251 52.0944 463.574 52.3014 463.808 52.6127C464.046 52.9241 464.165 53.3051 464.165 53.7557C464.165 54.5249 463.92 55.1074 463.429 55.503C462.938 55.8986 462.238 56.1001 461.33 56.1074H458.22ZM459.868 52.6237V54.7832H461.28C461.669 54.7832 461.971 54.6916 462.187 54.5084C462.407 54.3216 462.517 54.0652 462.517 53.7392C462.517 53.0065 462.138 52.6347 461.379 52.6237H459.868ZM459.868 51.4588H461.088C461.92 51.4442 462.335 51.1127 462.335 50.4643C462.335 50.1016 462.229 49.8416 462.017 49.684C461.808 49.5229 461.476 49.4423 461.022 49.4423H459.868V51.4588Z" fill="#008000"/>
<path d="M396.656 55.3272C396.656 55.0744 396.741 54.8693 396.909 54.7117C397.081 54.5542 397.296 54.4755 397.552 54.4755C397.812 54.4755 398.026 54.5542 398.195 54.7117C398.367 54.8693 398.453 55.0744 398.453 55.3272C398.453 55.5763 398.369 55.7796 398.2 55.9371C398.032 56.0909 397.816 56.1679 397.552 56.1679C397.292 56.1679 397.078 56.0909 396.909 55.9371C396.741 55.7796 396.656 55.5763 396.656 55.3272ZM402.113 51.9369L403.113 50.1621H404.811L403.118 53.0743L404.882 56.1074H403.179L402.118 54.2392L401.063 56.1074H399.354L401.118 53.0743L399.431 50.1621H401.135L402.113 51.9369ZM409.641 50.8215L407.915 50.3324L408.239 49.3379L409.948 50.0247L409.838 48.107H410.915L410.805 50.0632L412.47 49.3873L412.795 50.3929L411.036 50.8819L412.19 52.3435L411.316 52.9644L410.316 51.3599L409.327 52.9095L408.454 52.316L409.641 50.8215ZM429.878 55.3272C429.878 55.0744 429.962 54.8693 430.131 54.7117C430.303 54.5542 430.517 54.4755 430.773 54.4755C431.033 54.4755 431.248 54.5542 431.416 54.7117C431.588 54.8693 431.675 55.0744 431.675 55.3272C431.675 55.5763 431.59 55.7796 431.422 55.9371C431.253 56.0909 431.037 56.1679 430.773 56.1679C430.513 56.1679 430.299 56.0909 430.131 55.9371C429.962 55.7796 429.878 55.5763 429.878 55.3272ZM435.334 51.9369L436.334 50.1621H438.032L436.34 53.0743L438.103 56.1074H436.4L435.34 54.2392L434.285 56.1074H432.576L434.34 53.0743L432.653 50.1621H434.356L435.334 51.9369ZM444.802 51.6292H446.785V53.0633H444.802V55.3052H443.291V53.0633H441.301V51.6292H443.291V49.4807H444.802V51.6292ZM465.385 55.3272C465.385 55.0744 465.469 54.8693 465.638 54.7117C465.81 54.5542 466.024 54.4755 466.281 54.4755C466.541 54.4755 466.755 54.5542 466.924 54.7117C467.096 54.8693 467.182 55.0744 467.182 55.3272C467.182 55.5763 467.098 55.7796 466.929 55.9371C466.761 56.0909 466.544 56.1679 466.281 56.1679C466.021 56.1679 465.806 56.0909 465.638 55.9371C465.469 55.7796 465.385 55.5763 465.385 55.3272ZM470.797 53.8601L471.896 50.1621H473.6L471.209 57.0305L471.078 57.3437C470.722 58.1203 470.136 58.5086 469.319 58.5086C469.088 58.5086 468.854 58.4738 468.616 58.4042V57.2009L468.858 57.2064C469.158 57.2064 469.382 57.1606 469.528 57.069C469.678 56.9774 469.795 56.8254 469.88 56.6129L470.067 56.1239L467.984 50.1621H469.693L470.797 53.8601ZM478.292 50.8215L476.567 50.3324L476.891 49.3379L478.6 50.0247L478.49 48.107H479.567L479.457 50.0632L481.122 49.3873L481.446 50.3929L479.688 50.8819L480.842 52.3435L479.968 52.9644L478.968 51.3599L477.979 52.9095L477.105 52.316L478.292 50.8215ZM498.529 55.3272C498.529 55.0744 498.614 54.8693 498.782 54.7117C498.954 54.5542 499.169 54.4755 499.425 54.4755C499.685 54.4755 499.899 54.5542 500.068 54.7117C500.24 54.8693 500.326 55.0744 500.326 55.3272C500.326 55.5763 500.242 55.7796 500.073 55.9371C499.905 56.0909 499.689 56.1679 499.425 56.1679C499.165 56.1679 498.951 56.0909 498.782 55.9371C498.614 55.7796 498.529 55.5763 498.529 55.3272ZM503.942 53.8601L505.041 50.1621H506.744L504.354 57.0305L504.222 57.3437C503.867 58.1203 503.281 58.5086 502.464 58.5086C502.233 58.5086 501.998 58.4738 501.76 58.4042V57.2009L502.002 57.2064C502.303 57.2064 502.526 57.1606 502.672 57.069C502.823 56.9774 502.94 56.8254 503.024 56.6129L503.211 56.1239L501.128 50.1621H502.837L503.942 53.8601ZM513.415 52.6952L510.222 51.5797V50.0522L515.008 52.0578V53.349L510.222 55.3601V53.8271L513.415 52.6952ZM524.108 52.7996C524.108 53.9059 523.879 54.752 523.421 55.3382C522.963 55.9243 522.292 56.2173 521.41 56.2173C520.538 56.2173 519.871 55.9298 519.41 55.3546C518.948 54.7795 518.712 53.9553 518.701 52.882V51.4094C518.701 50.2921 518.932 49.4441 519.393 48.8653C519.858 48.2865 520.527 47.9971 521.399 47.9971C522.271 47.9971 522.937 48.2847 523.399 48.8598C523.86 49.4313 524.097 50.2537 524.108 51.327V52.7996ZM522.52 51.1841C522.52 50.5211 522.428 50.0394 522.245 49.739C522.065 49.4349 521.783 49.2829 521.399 49.2829C521.025 49.2829 520.748 49.4276 520.569 49.717C520.393 50.0027 520.3 50.4515 520.289 51.0632V53.0084C520.289 53.6604 520.377 54.1458 520.552 54.4645C520.732 54.7795 521.018 54.937 521.41 54.937C521.798 54.937 522.078 54.785 522.25 54.481C522.423 54.1769 522.512 53.7117 522.52 53.0853V51.1841Z" fill="black"/>
<path d="M416.383 56.1074V48.107H419.185C420.156 48.107 420.892 48.2939 421.394 48.6675C421.896 49.0375 422.147 49.5815 422.147 50.2994C422.147 50.6914 422.046 51.0376 421.844 51.338C421.643 51.6347 421.363 51.8526 421.004 51.9918C421.414 52.0944 421.736 52.3014 421.971 52.6127C422.209 52.9241 422.328 53.3051 422.328 53.7557C422.328 54.5249 422.083 55.1074 421.592 55.503C421.101 55.8986 420.401 56.1001 419.493 56.1074H416.383ZM418.031 52.6237V54.7832H419.443C419.831 54.7832 420.134 54.6916 420.35 54.5084C420.57 54.3216 420.68 54.0652 420.68 53.7392C420.68 53.0065 420.3 52.6347 419.542 52.6237H418.031ZM418.031 51.4588H419.251C420.082 51.4442 420.498 51.1127 420.498 50.4643C420.498 50.1016 420.392 49.8416 420.179 49.684C419.971 49.5229 419.639 49.4423 419.185 49.4423H418.031V51.4588ZM428.383 52.6402H425.218V54.7832H428.933V56.1074H423.57V48.107H428.922V49.4423H425.218V51.3489H428.383V52.6402ZM485.034 56.1074V48.107H487.837C488.807 48.107 489.544 48.2939 490.046 48.6675C490.547 49.0375 490.798 49.5815 490.798 50.2994C490.798 50.6914 490.698 51.0376 490.496 51.338C490.295 51.6347 490.014 51.8526 489.655 51.9918C490.066 52.0944 490.388 52.3014 490.622 52.6127C490.861 52.9241 490.98 53.3051 490.98 53.7557C490.98 54.5249 490.734 55.1074 490.243 55.503C489.752 55.8986 489.053 56.1001 488.144 56.1074H485.034ZM486.683 52.6237V54.7832H488.095C488.483 54.7832 488.785 54.6916 489.002 54.5084C489.221 54.3216 489.331 54.0652 489.331 53.7392C489.331 53.0065 488.952 52.6347 488.194 52.6237H486.683ZM486.683 51.4588H487.903C488.734 51.4442 489.15 51.1127 489.15 50.4643C489.15 50.1016 489.044 49.8416 488.831 49.684C488.622 49.5229 488.291 49.4423 487.837 49.4423H486.683V51.4588ZM497.035 52.6402H493.87V54.7832H497.584V56.1074H492.221V48.107H497.573V49.4423H493.87V51.3489H497.035V52.6402Z" fill="#FFA500"/>
</svg>
