<svg width="577" height="205" viewBox="0 0 577 205" fill="none" xmlns="http://www.w3.org/2000/svg">
<rect width="577" height="204" transform="translate(0 0.0546875)" fill="white"/>
<path d="M477.448 65.7174C477.772 65.2071 477.62 64.5311 477.11 64.2075L468.794 58.9344C468.284 58.6108 467.608 58.7621 467.284 59.2724C466.961 59.7827 467.112 60.4587 467.622 60.7823L475.014 65.4695L470.327 72.8612C470.003 73.3715 470.155 74.0475 470.665 74.3711C471.175 74.6947 471.851 74.5433 472.175 74.033L477.448 65.7174ZM244.499 118.202L476.763 66.1991L476.285 64.0638L244.021 116.067L244.499 118.202Z" fill="black"/>
<path d="M290.561 138.022C290.819 137.924 290.948 137.635 290.85 137.377L289.25 133.171C289.152 132.913 288.863 132.783 288.605 132.881C288.347 132.98 288.217 133.268 288.316 133.526L289.738 137.265L285.999 138.687C285.741 138.785 285.611 139.074 285.709 139.332C285.808 139.59 286.096 139.72 286.355 139.622L290.561 138.022ZM243.998 117.282L246.307 118.319L246.717 117.406L244.408 116.37L243.998 117.282ZM250.925 120.392L255.543 122.464L255.953 121.552L251.335 119.479L250.925 120.392ZM260.161 124.537L264.779 126.61L265.189 125.698L260.571 123.625L260.161 124.537ZM269.397 128.683L274.015 130.756L274.425 129.844L269.807 127.771L269.397 128.683ZM278.633 132.829L283.251 134.902L283.661 133.989L279.043 131.916L278.633 132.829ZM287.869 136.974L290.178 138.011L290.588 137.099L288.279 136.062L287.869 136.974ZM290.738 138.489C291.255 138.293 291.514 137.715 291.317 137.199L288.118 128.787C287.921 128.271 287.344 128.012 286.827 128.208C286.311 128.404 286.052 128.982 286.248 129.498L289.093 136.976L281.615 139.82C281.099 140.016 280.84 140.594 281.036 141.11C281.233 141.626 281.81 141.886 282.326 141.689L290.738 138.489ZM243.794 117.738L246.103 118.775L246.922 116.95L244.613 115.914L243.794 117.738ZM250.721 120.848L255.339 122.921L256.158 121.096L251.54 119.023L250.721 120.848ZM259.957 124.993L264.574 127.066L265.393 125.242L260.776 123.169L259.957 124.993ZM269.192 129.139L273.81 131.212L274.629 129.387L270.011 127.315L269.192 129.139ZM278.428 133.285L283.046 135.358L283.865 133.533L279.247 131.46L278.428 133.285ZM287.664 137.431L289.973 138.467L290.792 136.642L288.483 135.606L287.664 137.431Z" fill="#008000"/>
<path d="M250.313 152.294C250.541 152.452 250.852 152.395 251.009 152.168L253.568 148.466C253.726 148.239 253.669 147.928 253.442 147.771C253.214 147.614 252.903 147.67 252.746 147.898L250.471 151.188L247.181 148.913C246.954 148.755 246.642 148.812 246.485 149.039C246.328 149.266 246.385 149.578 246.612 149.735L250.313 152.294ZM243.909 117.992L244.425 120.824L245.409 120.644L244.892 117.813L243.909 117.992ZM245.458 126.487L246.491 132.151L247.475 131.971L246.442 126.308L245.458 126.487ZM247.524 137.814L248.557 143.478L249.54 143.298L248.507 137.635L247.524 137.814ZM249.589 149.141L250.106 151.973L251.09 151.793L250.573 148.962L249.589 149.141ZM250.029 152.706C250.483 153.02 251.106 152.906 251.42 152.452L256.539 145.049C256.853 144.595 256.74 143.972 256.285 143.658C255.831 143.344 255.208 143.458 254.894 143.912L250.344 150.492L243.764 145.942C243.31 145.628 242.687 145.741 242.373 146.196C242.059 146.65 242.172 147.273 242.626 147.587L250.029 152.706ZM243.417 118.082L243.933 120.913L245.901 120.555L245.384 117.723L243.417 118.082ZM244.966 126.577L245.999 132.24L247.966 131.882L246.934 126.218L244.966 126.577ZM247.032 137.904L248.065 143.567L250.032 143.209L248.999 137.545L247.032 137.904ZM249.098 149.231L249.614 152.063L251.582 151.704L251.065 148.872L249.098 149.231Z" fill="#0000FF"/>
<path d="M237.842 79.9738C237.615 79.8167 237.304 79.8735 237.147 80.1006L234.587 83.8019C234.43 84.029 234.487 84.3405 234.714 84.4975C234.941 84.6546 235.253 84.5978 235.41 84.3707L237.685 81.0807L240.975 83.3557C241.202 83.5128 241.513 83.456 241.671 83.2288C241.828 83.0017 241.771 82.6903 241.544 82.5332L237.842 79.9738ZM244.892 117.813L244.465 115.468L243.481 115.647L243.909 117.992L244.892 117.813ZM243.609 110.778L242.754 106.088L241.77 106.268L242.626 110.958L243.609 110.778ZM241.899 101.399L241.043 96.7091L240.06 96.8886L240.915 101.578L241.899 101.399ZM240.188 92.0195L239.333 87.3298L238.349 87.5092L239.204 92.1989L240.188 92.0195ZM238.478 82.6402L238.05 80.2953L237.066 80.4747L237.494 82.8196L238.478 82.6402ZM238.127 79.5625C237.673 79.2484 237.05 79.362 236.736 79.8163L231.617 87.2188C231.303 87.673 231.416 88.2959 231.87 88.61C232.325 88.9242 232.948 88.8106 233.262 88.3563L237.812 81.7763L244.392 86.3264C244.846 86.6405 245.469 86.5269 245.783 86.0727C246.097 85.6184 245.984 84.9955 245.529 84.6814L238.127 79.5625ZM245.384 117.723L244.957 115.378L242.989 115.737L243.417 118.082L245.384 117.723ZM244.101 110.688L243.246 105.999L241.278 106.358L242.134 111.047L244.101 110.688ZM242.391 101.309L241.535 96.6194L239.568 96.9783L240.423 101.668L242.391 101.309ZM240.68 91.9298L239.825 87.2401L237.857 87.5989L238.713 92.2886L240.68 91.9298ZM238.969 82.5504L238.542 80.2056L236.574 80.5644L237.002 82.9093L238.969 82.5504Z" fill="#0000FF"/>
<path d="M290.374 86.1494C290.426 85.8783 290.249 85.6161 289.978 85.5637L285.559 84.7112C285.288 84.6589 285.026 84.8363 284.973 85.1074C284.921 85.3786 285.098 85.6408 285.37 85.6931L289.297 86.4509L288.539 90.3785C288.487 90.6496 288.664 90.9118 288.936 90.9641C289.207 91.0165 289.469 90.8391 289.521 90.5679L290.374 86.1494ZM245.071 116.975L247.326 115.449L246.765 114.621L244.511 116.146L245.071 116.975ZM251.835 112.399L256.344 109.348L255.784 108.52L251.275 111.571L251.835 112.399ZM260.853 106.298L265.362 103.247L264.802 102.419L260.293 105.469L260.853 106.298ZM269.872 100.196L274.381 97.1459L273.821 96.3176L269.311 99.3682L269.872 100.196ZM278.89 94.0953L283.399 91.0447L282.839 90.2164L278.33 93.267L278.89 94.0953ZM287.908 87.9941L290.163 86.4688L289.603 85.6406L287.348 87.1658L287.908 87.9941ZM290.865 86.2441C290.969 85.7019 290.615 85.1774 290.072 85.0728L281.235 83.3678C280.693 83.2631 280.169 83.6179 280.064 84.1602C279.959 84.7025 280.314 85.2269 280.856 85.3315L288.711 86.8471L287.196 94.7023C287.091 95.2445 287.446 95.769 287.988 95.8736C288.531 95.9782 289.055 95.6234 289.16 95.0811L290.865 86.2441ZM245.351 117.389L247.606 115.864L246.485 114.207L244.231 115.732L245.351 117.389ZM252.115 112.813L256.624 109.762L255.504 108.106L250.994 111.156L252.115 112.813ZM261.133 106.712L265.643 103.661L264.522 102.005L260.013 105.055L261.133 106.712ZM270.152 100.611L274.661 97.56L273.54 95.9035L269.031 98.9541L270.152 100.611ZM279.17 94.5094L283.679 91.4588L282.559 89.8023L278.05 92.8529L279.17 94.5094ZM288.189 88.4082L290.443 86.8829L289.322 85.2264L287.068 86.7517L288.189 88.4082Z" fill="#008000"/>
<path d="M207.627 108.091C207.394 108.239 207.324 108.548 207.472 108.781L209.878 112.583C210.026 112.817 210.335 112.886 210.568 112.739C210.802 112.591 210.871 112.282 210.723 112.049L208.584 108.669L211.964 106.53C212.198 106.382 212.267 106.073 212.12 105.84C211.972 105.606 211.663 105.537 211.43 105.685L207.627 108.091ZM244.285 116.184L242.018 115.674L241.799 116.65L244.066 117.16L244.285 116.184ZM237.483 114.654L232.948 113.635L232.728 114.61L237.263 115.63L237.483 114.654ZM228.412 112.615L223.877 111.595L223.658 112.571L228.193 113.59L228.412 112.615ZM219.342 110.575L214.807 109.555L214.588 110.531L219.123 111.551L219.342 110.575ZM210.272 108.536L208.004 108.026L207.785 109.001L210.052 109.511L210.272 108.536ZM207.36 107.669C206.893 107.964 206.754 108.582 207.049 109.048L211.862 116.653C212.158 117.12 212.775 117.259 213.242 116.964C213.709 116.668 213.848 116.051 213.552 115.584L209.274 108.824L216.034 104.546C216.501 104.25 216.64 103.633 216.345 103.166C216.049 102.699 215.432 102.56 214.965 102.856L207.36 107.669ZM244.395 115.696L242.128 115.186L241.689 117.138L243.956 117.648L244.395 115.696ZM237.592 114.167L233.057 113.147L232.618 115.098L237.154 116.118L237.592 114.167ZM228.522 112.127L223.987 111.107L223.548 113.058L228.083 114.078L228.522 112.127ZM219.452 110.087L214.917 109.068L214.478 111.019L219.013 112.039L219.452 110.087ZM210.381 108.048L208.114 107.538L207.675 109.489L209.943 109.999L210.381 108.048Z" fill="#FF0000"/>
<path d="M216.676 143.672C216.676 143.948 216.9 144.172 217.176 144.172L221.676 144.172C221.952 144.172 222.176 143.948 222.176 143.672C222.176 143.396 221.952 143.172 221.676 143.172L217.676 143.172L217.676 139.172C217.676 138.896 217.452 138.672 217.176 138.672C216.9 138.672 216.676 138.896 216.676 139.172L216.676 143.672ZM243.822 116.318L242.135 118.006L242.842 118.713L244.529 117.025L243.822 116.318ZM238.76 121.381L235.385 124.756L236.092 125.463L239.467 122.088L238.76 121.381ZM232.01 128.131L228.635 131.506L229.342 132.213L232.717 128.838L232.01 128.131ZM225.26 134.881L221.885 138.256L222.592 138.963L225.967 135.588L225.26 134.881ZM218.51 141.631L216.822 143.318L217.529 144.025L219.217 142.338L218.51 141.631ZM216.176 143.672C216.176 144.224 216.623 144.672 217.176 144.672L226.176 144.672C226.728 144.672 227.176 144.224 227.176 143.672C227.176 143.12 226.728 142.672 226.176 142.672L218.176 142.672L218.176 134.672C218.176 134.12 217.728 133.672 217.176 133.672C216.623 133.672 216.176 134.12 216.176 134.672L216.176 143.672ZM243.469 115.965L241.781 117.652L243.195 119.066L244.883 117.379L243.469 115.965ZM238.406 121.027L235.031 124.402L236.445 125.816L239.82 122.441L238.406 121.027ZM231.656 127.777L228.281 131.152L229.695 132.566L233.07 129.191L231.656 127.777ZM224.906 134.527L221.531 137.902L222.945 139.316L226.32 135.941L224.906 134.527ZM218.156 141.277L216.469 142.965L217.883 144.379L219.57 142.691L218.156 141.277Z" fill="#FF0000"/>
<path d="M128.984 118.986L129.033 119.673C129.458 119.142 130.028 118.876 130.742 118.876C131.372 118.876 131.841 119.061 132.149 119.431C132.456 119.801 132.614 120.354 132.621 121.091V124.932H131.033V121.129C131.033 120.792 130.96 120.549 130.813 120.398C130.667 120.245 130.423 120.168 130.083 120.168C129.636 120.168 129.301 120.358 129.077 120.739V124.932H127.489V118.986H128.984ZM136.566 125.042C135.695 125.042 134.984 124.774 134.434 124.239C133.889 123.704 133.616 122.992 133.616 122.102V121.948C133.616 121.351 133.731 120.818 133.962 120.349C134.193 119.876 134.519 119.514 134.94 119.261C135.365 119.005 135.848 118.876 136.391 118.876C137.204 118.876 137.843 119.133 138.308 119.646C138.777 120.159 139.012 120.886 139.012 121.827V122.475H135.226C135.277 122.864 135.431 123.175 135.687 123.41C135.947 123.644 136.275 123.761 136.671 123.761C137.283 123.761 137.761 123.54 138.105 123.096L138.885 123.97C138.647 124.307 138.325 124.571 137.918 124.761C137.512 124.948 137.061 125.042 136.566 125.042ZM136.385 120.162C136.07 120.162 135.814 120.268 135.616 120.481C135.422 120.693 135.297 120.997 135.242 121.393H137.451V121.267C137.444 120.915 137.349 120.644 137.165 120.453C136.982 120.259 136.722 120.162 136.385 120.162ZM139.687 121.915C139.687 121.003 139.904 120.268 140.336 119.712C140.772 119.155 141.358 118.876 142.094 118.876C142.746 118.876 143.254 119.1 143.616 119.547L143.682 118.986H145.122V124.734C145.122 125.254 145.003 125.706 144.765 126.091C144.53 126.476 144.199 126.769 143.77 126.97C143.341 127.172 142.84 127.272 142.265 127.272C141.829 127.272 141.404 127.184 140.99 127.009C140.576 126.836 140.263 126.613 140.05 126.338L140.753 125.371C141.149 125.814 141.629 126.036 142.193 126.036C142.614 126.036 142.942 125.923 143.177 125.695C143.411 125.472 143.528 125.153 143.528 124.739V124.421C143.162 124.835 142.68 125.042 142.083 125.042C141.369 125.042 140.79 124.763 140.347 124.206C139.907 123.646 139.687 122.904 139.687 121.981V121.915ZM141.275 122.03C141.275 122.569 141.384 122.992 141.6 123.3C141.816 123.604 142.112 123.756 142.49 123.756C142.973 123.756 143.319 123.574 143.528 123.212V120.712C143.316 120.349 142.973 120.168 142.501 120.168C142.12 120.168 141.819 120.323 141.6 120.635C141.384 120.946 141.275 121.411 141.275 122.03ZM149.792 124.932C149.719 124.789 149.666 124.611 149.633 124.399C149.248 124.827 148.748 125.042 148.133 125.042C147.55 125.042 147.067 124.873 146.682 124.536C146.301 124.199 146.111 123.774 146.111 123.261C146.111 122.631 146.343 122.148 146.809 121.811C147.278 121.474 147.953 121.303 148.836 121.3H149.567V120.959C149.567 120.684 149.496 120.464 149.353 120.3C149.214 120.135 148.992 120.052 148.688 120.052C148.42 120.052 148.21 120.116 148.056 120.245C147.906 120.373 147.831 120.549 147.831 120.772H146.243C146.243 120.428 146.349 120.109 146.561 119.816C146.774 119.523 147.074 119.294 147.463 119.129C147.851 118.961 148.287 118.876 148.77 118.876C149.503 118.876 150.084 119.061 150.512 119.431C150.944 119.798 151.161 120.314 151.161 120.981V123.558C151.164 124.122 151.243 124.549 151.397 124.838V124.932H149.792ZM148.479 123.827C148.714 123.827 148.93 123.776 149.127 123.673C149.325 123.567 149.472 123.426 149.567 123.25V122.228H148.974C148.179 122.228 147.756 122.503 147.704 123.052L147.699 123.146C147.699 123.344 147.768 123.507 147.908 123.635C148.047 123.763 148.237 123.827 148.479 123.827ZM154.282 117.525V118.986H155.298V120.151H154.282V123.118C154.282 123.338 154.324 123.496 154.408 123.591C154.492 123.686 154.653 123.734 154.891 123.734C155.067 123.734 155.223 123.721 155.359 123.695V124.899C155.047 124.994 154.727 125.042 154.397 125.042C153.283 125.042 152.716 124.479 152.694 123.355V120.151H151.825V118.986H152.694V117.525H154.282ZM157.859 124.932H156.265V118.986H157.859V124.932ZM156.172 117.448C156.172 117.21 156.251 117.014 156.408 116.86C156.569 116.706 156.787 116.629 157.062 116.629C157.333 116.629 157.549 116.706 157.71 116.86C157.871 117.014 157.952 117.21 157.952 117.448C157.952 117.69 157.87 117.887 157.705 118.041C157.544 118.195 157.329 118.272 157.062 118.272C156.795 118.272 156.578 118.195 156.414 118.041C156.252 117.887 156.172 117.69 156.172 117.448ZM161.397 122.992L162.502 118.986H164.161L162.156 124.932H160.639L158.633 118.986H160.293L161.397 122.992ZM167.524 125.042C166.652 125.042 165.941 124.774 165.392 124.239C164.846 123.704 164.573 122.992 164.573 122.102V121.948C164.573 121.351 164.689 120.818 164.919 120.349C165.15 119.876 165.476 119.514 165.898 119.261C166.322 119.005 166.806 118.876 167.348 118.876C168.161 118.876 168.801 119.133 169.266 119.646C169.735 120.159 169.969 120.886 169.969 121.827V122.475H166.183C166.235 122.864 166.388 123.175 166.645 123.41C166.905 123.644 167.233 123.761 167.628 123.761C168.24 123.761 168.718 123.54 169.063 123.096L169.843 123.97C169.605 124.307 169.282 124.571 168.876 124.761C168.469 124.948 168.018 125.042 167.524 125.042ZM167.343 120.162C167.028 120.162 166.771 120.268 166.573 120.481C166.379 120.693 166.255 120.997 166.2 121.393H168.409V121.267C168.401 120.915 168.306 120.644 168.123 120.453C167.94 120.259 167.68 120.162 167.343 120.162ZM175.903 122.992L177.008 118.986H178.667L176.662 124.932H175.145L173.14 118.986H174.799L175.903 122.992ZM181.047 124.932H179.453V118.986H181.047V124.932ZM179.36 117.448C179.36 117.21 179.438 117.014 179.596 116.86C179.757 116.706 179.975 116.629 180.25 116.629C180.521 116.629 180.737 116.706 180.898 116.86C181.059 117.014 181.14 117.21 181.14 117.448C181.14 117.69 181.058 117.887 180.893 118.041C180.732 118.195 180.517 118.272 180.25 118.272C179.982 118.272 179.766 118.195 179.601 118.041C179.44 117.887 179.36 117.69 179.36 117.448ZM187.717 122.014C187.717 122.966 187.514 123.71 187.107 124.245C186.701 124.776 186.133 125.042 185.404 125.042C184.759 125.042 184.245 124.794 183.86 124.3L183.788 124.932H182.36V116.492H183.948V119.519C184.314 119.091 184.796 118.876 185.393 118.876C186.118 118.876 186.686 119.144 187.096 119.679C187.51 120.21 187.717 120.959 187.717 121.926V122.014ZM186.129 121.899C186.129 121.298 186.034 120.86 185.844 120.585C185.653 120.307 185.369 120.168 184.992 120.168C184.486 120.168 184.138 120.375 183.948 120.789V123.135C184.142 123.552 184.494 123.761 185.003 123.761C185.516 123.761 185.853 123.508 186.014 123.003C186.091 122.761 186.129 122.393 186.129 121.899ZM191.437 125.042C190.565 125.042 189.855 124.774 189.305 124.239C188.759 123.704 188.487 122.992 188.487 122.102V121.948C188.487 121.351 188.602 120.818 188.833 120.349C189.063 119.876 189.389 119.514 189.811 119.261C190.236 119.005 190.719 118.876 191.261 118.876C192.075 118.876 192.714 119.133 193.179 119.646C193.648 120.159 193.882 120.886 193.882 121.827V122.475H190.096C190.148 122.864 190.302 123.175 190.558 123.41C190.818 123.644 191.146 123.761 191.542 123.761C192.153 123.761 192.631 123.54 192.976 123.096L193.756 123.97C193.518 124.307 193.196 124.571 192.789 124.761C192.382 124.948 191.932 125.042 191.437 125.042ZM191.256 120.162C190.941 120.162 190.684 120.268 190.487 120.481C190.292 120.693 190.168 120.997 190.113 121.393H192.322V121.267C192.315 120.915 192.219 120.644 192.036 120.453C191.853 120.259 191.593 120.162 191.256 120.162ZM198.009 123.289C198.009 123.095 197.912 122.943 197.718 122.833C197.527 122.719 197.22 122.618 196.795 122.53C195.381 122.234 194.674 121.633 194.674 120.728C194.674 120.201 194.892 119.761 195.328 119.409C195.767 119.054 196.34 118.876 197.047 118.876C197.802 118.876 198.405 119.054 198.855 119.409C199.309 119.765 199.537 120.226 199.537 120.794H197.949C197.949 120.567 197.875 120.38 197.729 120.234C197.582 120.083 197.353 120.008 197.042 120.008C196.774 120.008 196.567 120.069 196.421 120.19C196.274 120.311 196.201 120.464 196.201 120.651C196.201 120.827 196.284 120.97 196.448 121.08C196.617 121.186 196.899 121.279 197.295 121.36C197.69 121.437 198.024 121.525 198.295 121.624C199.134 121.931 199.553 122.464 199.553 123.223C199.553 123.765 199.32 124.204 198.855 124.542C198.39 124.875 197.789 125.042 197.053 125.042C196.555 125.042 196.111 124.954 195.723 124.778C195.338 124.598 195.036 124.355 194.816 124.047C194.597 123.736 194.487 123.4 194.487 123.041H195.992C196.007 123.324 196.111 123.54 196.306 123.69C196.5 123.84 196.76 123.915 197.086 123.915C197.39 123.915 197.619 123.858 197.773 123.745C197.93 123.628 198.009 123.476 198.009 123.289ZM202.196 122.475H200.877L200.69 116.931H202.383L202.196 122.475ZM201.537 123.344C201.804 123.344 202.018 123.422 202.179 123.58C202.344 123.737 202.427 123.939 202.427 124.184C202.427 124.426 202.344 124.626 202.179 124.783C202.018 124.941 201.804 125.02 201.537 125.02C201.273 125.02 201.059 124.941 200.894 124.783C200.733 124.626 200.652 124.426 200.652 124.184C200.652 123.943 200.733 123.743 200.894 123.585C201.059 123.424 201.273 123.344 201.537 123.344Z" fill="#FF0000"/>
<path d="M301.518 124.985C301.518 125.9 301.31 126.635 300.892 127.188C300.478 127.738 299.918 128.012 299.211 128.012C298.61 128.012 298.125 127.803 297.755 127.386V130.188H296.167V121.957H297.639L297.694 122.539C298.079 122.078 298.581 121.847 299.2 121.847C299.932 121.847 300.502 122.118 300.909 122.66C301.315 123.202 301.518 123.95 301.518 124.902V124.985ZM299.93 124.869C299.93 124.316 299.832 123.889 299.634 123.589C299.44 123.289 299.156 123.138 298.782 123.138C298.284 123.138 297.941 123.329 297.755 123.71V126.144C297.949 126.536 298.295 126.732 298.793 126.732C299.551 126.732 299.93 126.111 299.93 124.869ZM302.26 124.875C302.26 124.285 302.374 123.759 302.601 123.298C302.828 122.836 303.154 122.479 303.579 122.226C304.008 121.973 304.504 121.847 305.068 121.847C305.87 121.847 306.524 122.093 307.03 122.583C307.539 123.074 307.823 123.741 307.881 124.584L307.892 124.99C307.892 125.902 307.638 126.635 307.129 127.188C306.619 127.738 305.936 128.012 305.079 128.012C304.222 128.012 303.537 127.738 303.024 127.188C302.515 126.639 302.26 125.891 302.26 124.946V124.875ZM303.848 124.99C303.848 125.554 303.954 125.987 304.167 126.287C304.379 126.584 304.683 126.732 305.079 126.732C305.464 126.732 305.764 126.585 305.98 126.292C306.196 125.996 306.304 125.523 306.304 124.875C306.304 124.322 306.196 123.893 305.98 123.589C305.764 123.285 305.46 123.133 305.068 123.133C304.68 123.133 304.379 123.285 304.167 123.589C303.954 123.889 303.848 124.356 303.848 124.99ZM312.09 126.259C312.09 126.065 311.993 125.913 311.799 125.803C311.609 125.69 311.301 125.589 310.876 125.501C309.462 125.204 308.755 124.604 308.755 123.699C308.755 123.171 308.973 122.732 309.409 122.38C309.849 122.025 310.422 121.847 311.129 121.847C311.883 121.847 312.486 122.025 312.937 122.38C313.391 122.735 313.618 123.197 313.618 123.765H312.03C312.03 123.538 311.957 123.351 311.81 123.204C311.664 123.054 311.435 122.979 311.123 122.979C310.856 122.979 310.649 123.039 310.502 123.16C310.356 123.281 310.283 123.435 310.283 123.622C310.283 123.798 310.365 123.941 310.53 124.051C310.698 124.157 310.98 124.25 311.376 124.331C311.772 124.408 312.105 124.496 312.376 124.594C313.215 124.902 313.634 125.435 313.634 126.193C313.634 126.736 313.402 127.175 312.937 127.512C312.471 127.846 311.871 128.012 311.134 128.012C310.636 128.012 310.193 127.924 309.805 127.748C309.42 127.569 309.118 127.325 308.898 127.018C308.678 126.706 308.568 126.371 308.568 126.012H310.074C310.088 126.294 310.193 126.51 310.387 126.661C310.581 126.811 310.841 126.886 311.167 126.886C311.471 126.886 311.7 126.829 311.854 126.715C312.012 126.598 312.09 126.446 312.09 126.259ZM316.338 127.902H314.744V121.957H316.338V127.902ZM314.651 120.418C314.651 120.18 314.73 119.984 314.887 119.831C315.048 119.677 315.266 119.6 315.541 119.6C315.812 119.6 316.028 119.677 316.19 119.831C316.351 119.984 316.431 120.18 316.431 120.418C316.431 120.66 316.349 120.858 316.184 121.012C316.023 121.166 315.809 121.243 315.541 121.243C315.274 121.243 315.058 121.166 314.893 121.012C314.732 120.858 314.651 120.66 314.651 120.418ZM319.552 120.495V121.957H320.569V123.122H319.552V126.089C319.552 126.309 319.594 126.466 319.679 126.562C319.763 126.657 319.924 126.704 320.162 126.704C320.338 126.704 320.494 126.692 320.629 126.666V127.869C320.318 127.965 319.997 128.012 319.668 128.012C318.554 128.012 317.986 127.45 317.964 126.325V123.122H317.096V121.957H317.964V120.495H319.552ZM323.129 127.902H321.536V121.957H323.129V127.902ZM321.443 120.418C321.443 120.18 321.521 119.984 321.679 119.831C321.84 119.677 322.058 119.6 322.333 119.6C322.604 119.6 322.82 119.677 322.981 119.831C323.142 119.984 323.223 120.18 323.223 120.418C323.223 120.66 323.14 120.858 322.976 121.012C322.814 121.166 322.6 121.243 322.333 121.243C322.065 121.243 321.849 121.166 321.684 121.012C321.523 120.858 321.443 120.66 321.443 120.418ZM326.668 125.963L327.772 121.957H329.432L327.426 127.902H325.91L323.904 121.957H325.564L326.668 125.963ZM332.795 128.012C331.923 128.012 331.212 127.745 330.663 127.21C330.117 126.675 329.844 125.963 329.844 125.073V124.919C329.844 124.322 329.959 123.789 330.19 123.32C330.421 122.847 330.747 122.484 331.168 122.232C331.593 121.975 332.077 121.847 332.619 121.847C333.432 121.847 334.071 122.104 334.537 122.616C335.005 123.129 335.24 123.856 335.24 124.798V125.446H331.454C331.505 125.834 331.659 126.146 331.916 126.38C332.176 126.615 332.503 126.732 332.899 126.732C333.511 126.732 333.989 126.51 334.333 126.067L335.114 126.941C334.875 127.278 334.553 127.542 334.146 127.732C333.74 127.919 333.289 128.012 332.795 128.012ZM332.613 123.133C332.298 123.133 332.042 123.239 331.844 123.452C331.65 123.664 331.525 123.968 331.47 124.364H333.679V124.237C333.672 123.886 333.577 123.615 333.394 123.424C333.21 123.23 332.95 123.133 332.613 123.133ZM341.174 125.963L342.279 121.957H343.938L341.933 127.902H340.416L338.41 121.957H340.07L341.174 125.963ZM346.317 127.902H344.724V121.957H346.317V127.902ZM344.63 120.418C344.63 120.18 344.709 119.984 344.867 119.831C345.028 119.677 345.246 119.6 345.521 119.6C345.792 119.6 346.008 119.677 346.169 119.831C346.33 119.984 346.411 120.18 346.411 120.418C346.411 120.66 346.328 120.858 346.163 121.012C346.002 121.166 345.788 121.243 345.521 121.243C345.253 121.243 345.037 121.166 344.872 121.012C344.711 120.858 344.63 120.66 344.63 120.418ZM352.988 124.985C352.988 125.937 352.785 126.681 352.378 127.215C351.971 127.747 351.404 128.012 350.675 128.012C350.03 128.012 349.515 127.765 349.131 127.27L349.059 127.902H347.631V119.462H349.219V122.49C349.585 122.061 350.067 121.847 350.664 121.847C351.389 121.847 351.957 122.115 352.367 122.649C352.781 123.181 352.988 123.93 352.988 124.897V124.985ZM351.4 124.869C351.4 124.268 351.305 123.831 351.114 123.556C350.924 123.278 350.64 123.138 350.263 123.138C349.757 123.138 349.409 123.345 349.219 123.759V126.106C349.413 126.523 349.764 126.732 350.274 126.732C350.786 126.732 351.123 126.479 351.285 125.974C351.362 125.732 351.4 125.364 351.4 124.869ZM356.708 128.012C355.836 128.012 355.125 127.745 354.576 127.21C354.03 126.675 353.757 125.963 353.757 125.073V124.919C353.757 124.322 353.873 123.789 354.103 123.32C354.334 122.847 354.66 122.484 355.082 122.232C355.506 121.975 355.99 121.847 356.532 121.847C357.345 121.847 357.985 122.104 358.45 122.616C358.919 123.129 359.153 123.856 359.153 124.798V125.446H355.367C355.419 125.834 355.572 126.146 355.829 126.38C356.089 126.615 356.417 126.732 356.812 126.732C357.424 126.732 357.902 126.51 358.246 126.067L359.027 126.941C358.789 127.278 358.466 127.542 358.06 127.732C357.653 127.919 357.202 128.012 356.708 128.012ZM356.527 123.133C356.212 123.133 355.955 123.239 355.757 123.452C355.563 123.664 355.439 123.968 355.384 124.364H357.593V124.237C357.585 123.886 357.49 123.615 357.307 123.424C357.124 123.23 356.864 123.133 356.527 123.133ZM363.28 126.259C363.28 126.065 363.183 125.913 362.988 125.803C362.798 125.69 362.49 125.589 362.065 125.501C360.651 125.204 359.944 124.604 359.944 123.699C359.944 123.171 360.162 122.732 360.598 122.38C361.038 122.025 361.611 121.847 362.318 121.847C363.073 121.847 363.675 122.025 364.126 122.38C364.58 122.735 364.807 123.197 364.807 123.765H363.219C363.219 123.538 363.146 123.351 362.999 123.204C362.853 123.054 362.624 122.979 362.313 122.979C362.045 122.979 361.838 123.039 361.692 123.16C361.545 123.281 361.472 123.435 361.472 123.622C361.472 123.798 361.554 123.941 361.719 124.051C361.888 124.157 362.17 124.25 362.565 124.331C362.961 124.408 363.294 124.496 363.565 124.594C364.404 124.902 364.824 125.435 364.824 126.193C364.824 126.736 364.591 127.175 364.126 127.512C363.661 127.846 363.06 128.012 362.324 128.012C361.825 128.012 361.382 127.924 360.994 127.748C360.609 127.569 360.307 127.325 360.087 127.018C359.867 126.706 359.758 126.371 359.758 126.012H361.263C361.278 126.294 361.382 126.51 361.576 126.661C361.77 126.811 362.031 126.886 362.357 126.886C362.661 126.886 362.89 126.829 363.043 126.715C363.201 126.598 363.28 126.446 363.28 126.259ZM367.467 125.446H366.148L365.961 119.902H367.654L367.467 125.446ZM366.807 126.314C367.075 126.314 367.289 126.393 367.45 126.551C367.615 126.708 367.697 126.91 367.697 127.155C367.697 127.397 367.615 127.596 367.45 127.754C367.289 127.912 367.075 127.99 366.807 127.99C366.544 127.99 366.329 127.912 366.164 127.754C366.003 127.596 365.923 127.397 365.923 127.155C365.923 126.913 366.003 126.714 366.164 126.556C366.329 126.395 366.544 126.314 366.807 126.314Z" fill="#008000"/>
<path d="M218.434 68.792H221.341V70.0723H216.407V69.1052L219.203 65.4127H216.489V64.1269H221.253V65.0665L218.434 68.792ZM224.984 70.1822C224.112 70.1822 223.401 69.9147 222.852 69.3799C222.306 68.8451 222.033 68.1326 222.033 67.2425V67.0886C222.033 66.4915 222.149 65.9585 222.379 65.4896C222.61 65.0171 222.936 64.6544 223.357 64.4017C223.782 64.1452 224.266 64.017 224.808 64.017C225.621 64.017 226.261 64.2735 226.726 64.7863C227.195 65.2991 227.429 66.0263 227.429 66.9677V67.6161H223.643C223.695 68.0044 223.848 68.3158 224.105 68.5502C224.365 68.7847 224.693 68.9019 225.088 68.9019C225.7 68.9019 226.178 68.6803 226.522 68.237L227.303 69.1107C227.065 69.4477 226.742 69.7114 226.336 69.9019C225.929 70.0887 225.478 70.1822 224.984 70.1822ZM224.803 65.3028C224.488 65.3028 224.231 65.409 224.033 65.6215C223.839 65.834 223.715 66.138 223.66 66.5336H225.869V66.4073C225.861 66.0556 225.766 65.7845 225.583 65.594C225.4 65.3999 225.14 65.3028 224.803 65.3028ZM231.677 65.616C231.46 65.5867 231.27 65.572 231.105 65.572C230.504 65.572 230.111 65.7754 229.924 66.182V70.0723H228.336V64.1269H229.836L229.88 64.8357C230.198 64.2899 230.64 64.017 231.204 64.017C231.38 64.017 231.545 64.0408 231.699 64.0885L231.677 65.616ZM232.001 67.0446C232.001 66.4549 232.114 65.9292 232.341 65.4676C232.569 65.0061 232.895 64.6489 233.32 64.3962C233.748 64.1434 234.244 64.017 234.809 64.017C235.611 64.017 236.265 64.2625 236.77 64.7533C237.279 65.2442 237.563 65.9109 237.622 66.7534L237.633 67.16C237.633 68.0722 237.378 68.8048 236.869 69.3579C236.36 69.9074 235.677 70.1822 234.82 70.1822C233.962 70.1822 233.277 69.9074 232.765 69.3579C232.255 68.8085 232.001 68.0612 232.001 67.1161V67.0446ZM233.589 67.16C233.589 67.7242 233.695 68.1564 233.907 68.4568C234.12 68.7535 234.424 68.9019 234.82 68.9019C235.204 68.9019 235.505 68.7554 235.721 68.4623C235.937 68.1656 236.045 67.693 236.045 67.0446C236.045 66.4915 235.937 66.0629 235.721 65.7589C235.505 65.4548 235.201 65.3028 234.809 65.3028C234.42 65.3028 234.12 65.4548 233.907 65.7589C233.695 66.0593 233.589 66.5263 233.589 67.16ZM243.639 68.1326L244.743 64.1269H246.403L244.397 70.0723H242.88L240.875 64.1269H242.534L243.639 68.1326ZM248.782 70.0723H247.188V64.1269H248.782V70.0723ZM247.095 62.5884C247.095 62.3503 247.174 62.1543 247.331 62.0004C247.492 61.8466 247.71 61.7697 247.985 61.7697C248.256 61.7697 248.472 61.8466 248.633 62.0004C248.795 62.1543 248.875 62.3503 248.875 62.5884C248.875 62.8302 248.793 63.028 248.628 63.1818C248.467 63.3357 248.252 63.4126 247.985 63.4126C247.718 63.4126 247.502 63.3357 247.337 63.1818C247.176 63.028 247.095 62.8302 247.095 62.5884ZM255.452 67.1545C255.452 68.107 255.249 68.8506 254.843 69.3854C254.436 69.9166 253.868 70.1822 253.139 70.1822C252.494 70.1822 251.98 69.9349 251.595 69.4404L251.524 70.0723H250.095V61.6323H251.683V64.6599C252.049 64.2313 252.531 64.017 253.128 64.017C253.853 64.017 254.421 64.2844 254.832 64.8193C255.245 65.3504 255.452 66.0995 255.452 67.0666V67.1545ZM253.864 67.0392C253.864 66.4384 253.769 66.0006 253.579 65.7259C253.388 65.4475 253.104 65.3083 252.727 65.3083C252.222 65.3083 251.874 65.5153 251.683 65.9292V68.2755C251.877 68.6931 252.229 68.9019 252.738 68.9019C253.251 68.9019 253.588 68.6491 253.749 68.1436C253.826 67.9018 253.864 67.5337 253.864 67.0392ZM259.172 70.1822C258.301 70.1822 257.59 69.9147 257.04 69.3799C256.495 68.8451 256.222 68.1326 256.222 67.2425V67.0886C256.222 66.4915 256.337 65.9585 256.568 65.4896C256.799 65.0171 257.125 64.6544 257.546 64.4017C257.971 64.1452 258.454 64.017 258.997 64.017C259.81 64.017 260.449 64.2735 260.914 64.7863C261.383 65.2991 261.618 66.0263 261.618 66.9677V67.6161H257.832C257.883 68.0044 258.037 68.3158 258.293 68.5502C258.553 68.7847 258.881 68.9019 259.277 68.9019C259.889 68.9019 260.367 68.6803 260.711 68.237L261.491 69.1107C261.253 69.4477 260.931 69.7114 260.524 69.9019C260.118 70.0887 259.667 70.1822 259.172 70.1822ZM258.991 65.3028C258.676 65.3028 258.42 65.409 258.222 65.6215C258.028 65.834 257.903 66.138 257.848 66.5336H260.057V66.4073C260.05 66.0556 259.955 65.7845 259.771 65.594C259.588 65.3999 259.328 65.3028 258.991 65.3028ZM265.744 68.4293C265.744 68.2352 265.647 68.0832 265.453 67.9733C265.262 67.8597 264.955 67.759 264.53 67.6711C263.116 67.3743 262.409 66.7736 262.409 65.8688C262.409 65.3413 262.627 64.9017 263.063 64.55C263.502 64.1947 264.076 64.017 264.783 64.017C265.537 64.017 266.14 64.1947 266.59 64.55C267.045 64.9053 267.272 65.3669 267.272 65.9347H265.684C265.684 65.7076 265.61 65.5208 265.464 65.3742C265.317 65.224 265.088 65.149 264.777 65.149C264.51 65.149 264.303 65.2094 264.156 65.3303C264.01 65.4512 263.936 65.605 263.936 65.7918C263.936 65.9677 264.019 66.1105 264.184 66.2204C264.352 66.3267 264.634 66.4201 265.03 66.5007C265.425 66.5776 265.759 66.6655 266.03 66.7644C266.869 67.0721 267.288 67.6051 267.288 68.3634C267.288 68.9055 267.056 69.3451 266.59 69.6821C266.125 70.0155 265.524 70.1822 264.788 70.1822C264.29 70.1822 263.847 70.0942 263.458 69.9184C263.074 69.7389 262.771 69.4953 262.552 69.1876C262.332 68.8762 262.222 68.5411 262.222 68.1821H263.728C263.742 68.4641 263.847 68.6803 264.041 68.8304C264.235 68.9806 264.495 69.0557 264.821 69.0557C265.125 69.0557 265.354 68.999 265.508 68.8854C265.665 68.7682 265.744 68.6162 265.744 68.4293Z" fill="#0000FF"/>
<circle cx="244.511" cy="116.77" r="7.3459" transform="rotate(-10.3359 244.511 116.77)" fill="white"/>
<circle cx="244.511" cy="116.77" r="3.12591" transform="rotate(-10.3359 244.511 116.77)" fill="black"/>
</svg>
