<?xml version="1.0" standalone="no"?>
<!DOCTYPE svg PUBLIC "-//W3C//DTD SVG 20010904//EN"
 "http://www.w3.org/TR/2001/REC-SVG-20010904/DTD/svg10.dtd">
<svg version="1.0" xmlns="http://www.w3.org/2000/svg"
 width="700.000000pt" height="700.000000pt" viewBox="0 0 700.000000 700.000000"
 preserveAspectRatio="xMidYMid meet">
<metadata>
Created by potrace 1.11, written by Peter Selinger 2001-2013
</metadata>
<g transform="translate(0.000000,700.000000) scale(0.100000,-0.100000)"
fill="#000000" stroke="none">
<path d="M3290 6990 c-30 -4 -73 -10 -95 -14 -22 -4 -56 -9 -75 -12 -19 -3
-43 -7 -52 -10 -9 -3 -25 -7 -35 -9 -185 -43 -411 -137 -571 -237 -65 -42 -68
-52 -17 -62 227 -41 561 -173 778 -307 43 -27 82 -49 87 -49 5 0 10 -3 12 -7
2 -5 22 -20 45 -35 147 -96 374 -308 505 -471 77 -97 178 -240 178 -253 0 -3
8 -18 19 -32 26 -37 115 -216 141 -282 11 -30 25 -64 30 -75 24 -55 74 -235
95 -345 23 -125 25 -136 33 -250 11 -140 4 -370 -14 -465 -2 -11 -6 -37 -9
-57 -8 -63 -44 -213 -69 -292 l-24 -77 21 7 c39 12 180 86 272 143 514 317
836 883 829 1461 -6 509 -243 989 -645 1309 -103 81 -139 109 -169 125 -10 6
-45 27 -77 46 -147 87 -414 190 -561 216 -90 16 -142 24 -177 30 -61 9 -393
12 -455 4z"/>
<path d="M1787 6124 c-1 -1 -40 -4 -87 -8 -459 -33 -926 -256 -1236 -590 -254
-273 -402 -586 -453 -958 -10 -74 -9 -363 2 -374 4 -4 24 10 45 32 208 216
532 427 846 549 185 72 443 139 621 161 202 25 614 24 705 -1 8 -2 33 -6 55
-9 61 -7 190 -34 293 -62 398 -107 805 -336 1090 -614 35 -34 66 -59 70 -55 4
3 8 75 9 158 2 205 -21 356 -84 546 -36 110 -114 274 -164 348 -16 24 -29 46
-29 49 0 3 -21 33 -47 67 -116 151 -251 286 -387 386 -208 153 -446 262 -716
325 -100 24 -127 28 -265 42 -55 6 -263 12 -268 8z"/>
<path d="M5883 5956 c14 -35 48 -159 66 -236 35 -154 45 -258 46 -465 0 -152
-6 -250 -19 -325 -3 -14 -7 -43 -11 -65 -12 -80 -64 -273 -100 -370 -282 -758
-959 -1332 -1788 -1516 l-59 -13 24 -18 c25 -20 103 -66 187 -110 108 -57 348
-144 454 -164 12 -2 33 -6 47 -9 14 -3 43 -8 65 -11 22 -3 46 -7 53 -9 51 -17
305 -23 457 -11 186 14 459 84 613 156 35 17 66 30 69 30 10 0 186 102 238
139 128 88 153 109 270 226 272 272 442 611 492 980 17 130 9 376 -16 515 -94
519 -466 996 -967 1240 -107 52 -130 59 -121 36z"/>
<path d="M1787 4374 c-1 -1 -40 -4 -87 -8 -153 -10 -332 -49 -497 -107 -96
-34 -272 -117 -328 -155 -20 -13 -38 -24 -40 -24 -11 0 -146 -99 -222 -161
-193 -162 -371 -397 -467 -619 -15 -36 -34 -78 -41 -95 -7 -16 -21 -57 -31
-90 -22 -76 -19 -62 -45 -185 -35 -168 -33 -470 4 -630 2 -8 7 -33 11 -55 25
-126 123 -360 214 -505 132 -212 356 -433 582 -575 54 -34 274 -145 278 -140
2 2 -8 41 -22 86 -36 121 -60 227 -72 324 -4 28 -9 54 -12 59 -3 5 -6 100 -7
210 -2 181 3 268 21 376 3 19 7 49 10 67 8 60 62 258 98 355 64 178 173 385
285 543 41 57 46 64 129 161 337 396 811 681 1347 809 l90 21 -59 38 c-101 66
-287 153 -411 194 -172 57 -254 75 -442 98 -46 5 -281 12 -286 8z"/>
<path d="M2720 3343 c-47 -17 -207 -103 -280 -150 -197 -128 -337 -260 -503
-474 -67 -87 -173 -293 -220 -429 -31 -89 -45 -142 -62 -230 -3 -14 -7 -36
-10 -50 -23 -112 -23 -425 0 -510 2 -8 6 -33 10 -55 17 -118 89 -326 157 -455
48 -91 55 -103 129 -208 174 -246 412 -446 694 -582 143 -69 331 -135 439
-154 16 -3 52 -10 80 -15 28 -6 69 -13 91 -16 76 -11 390 -13 470 -4 260 30
522 113 740 235 124 69 138 79 135 89 -1 6 -43 20 -93 32 -518 127 -966 396
-1310 786 -31 35 -71 83 -88 108 -18 24 -35 46 -39 49 -6 4 -76 109 -117 175
-19 30 -136 265 -155 310 -44 108 -85 242 -118 390 -52 234 -58 557 -14 804 9
47 18 100 21 116 3 17 20 78 37 138 18 59 30 107 27 106 -3 0 -13 -3 -21 -6z"/>
<path d="M3255 2734 c-7 -69 0 -307 9 -323 2 -3 6 -28 10 -56 27 -231 169
-548 343 -770 106 -134 349 -352 461 -411 15 -8 45 -26 67 -39 264 -160 627
-256 970 -258 194 -1 413 29 575 79 30 10 60 18 65 20 26 5 176 69 247 105
202 100 334 195 494 354 151 150 253 295 343 486 117 250 161 453 157 731 -1
81 -5 151 -9 155 -4 4 -27 -13 -50 -38 -24 -24 -72 -69 -108 -99 -35 -30 -66
-57 -69 -60 -25 -28 -199 -147 -325 -222 -76 -46 -289 -148 -307 -148 -8 0
-18 -4 -24 -9 -33 -32 -424 -140 -566 -157 -29 -4 -55 -8 -58 -10 -29 -16
-429 -24 -585 -11 -81 6 -126 12 -250 32 -77 12 -291 68 -375 97 -360 127
-688 325 -938 567 -34 34 -64 61 -66 61 -2 0 -7 -34 -11 -76z"/>
</g>
</svg>
